<svg width="113" height="99" viewBox="0 0 113 99" fill="none" xmlns="http://www.w3.org/2000/svg">
<rect x="0.998047" y="0.621094" width="105" height="91" fill="white"/>
<rect x="7.99805" y="7.62109" width="105" height="91" fill="black"/>
<rect x="7.99805" y="7.62109" width="98" height="84" fill="#808080"/>
<rect x="7.99805" y="7.62109" width="91" height="77" fill="#D9D9D9"/>
<path d="M42.998 21.6211H28.998V28.6211H35.998V35.6211H42.998V42.6211H49.998V49.6211H42.998V56.6211H35.998V63.6211H28.998V70.6211H42.998V63.6211H49.998V56.6211H63.998V63.6211H70.998V70.6211H84.998V63.6211H77.998V56.6211H70.998V49.6211H63.998V42.6211H70.998V35.6211H77.998V28.6211H84.998V21.6211H70.998V28.6211H63.998V35.6211H49.998V28.6211H42.998V21.6211Z" fill="black"/>
</svg>
