<svg width="114" height="115" viewBox="0 0 114 115" fill="none" xmlns="http://www.w3.org/2000/svg">
<path d="M33.4678 114.433V107.292L106.679 35.8848H114V85.8698H106.679V100.151H99.3577V107.292H84.7155V114.433H33.4678Z" fill="#808080"/>
<rect x="13.5967" y="7.3252" width="15.6881" height="7.14072" fill="#A50021"/>
<rect x="29.2842" y="100.154" width="15.6881" height="7.14072" transform="rotate(-180 29.2842 100.154)" fill="#A50021"/>
<rect x="95.1738" y="100.154" width="15.6881" height="7.14072" transform="rotate(-180 95.1738 100.154)" fill="#A50021"/>
<rect x="14.6426" y="14.46" width="14.2814" height="7.32111" transform="rotate(90 14.6426 14.46)" fill="#A50021"/>
<rect x="101.449" y="14.46" width="14.2814" height="7.32111" transform="rotate(90 101.449 14.46)" fill="#A50021"/>
<rect x="7.32129" y="93.0107" width="14.2814" height="7.32111" transform="rotate(-90 7.32129 93.0107)" fill="#A50021"/>
<rect x="94.1279" y="93.0107" width="14.2814" height="7.32111" transform="rotate(-90 94.1279 93.0107)" fill="#A50021"/>
<rect x="7.32129" y="28.7451" width="49.9851" height="7.32111" transform="rotate(90 7.32129 28.7451)" fill="#A50021"/>
<rect x="108.771" y="28.7451" width="49.9851" height="7.32111" transform="rotate(90 108.771 28.7451)" fill="#A50021"/>
<rect x="79.4863" y="7.3252" width="15.6881" height="7.14072" fill="#A50021"/>
<rect x="28.2383" y="100.154" width="52.2936" height="7.14072" fill="#A50021"/>
<rect x="28.2383" y="0.181641" width="52.2936" height="7.14072" fill="#A50021"/>
<path d="M6.66699 28.7474V78.2626V78.7946H13.9151V93.0139H28.5383V100.155H80.0088V93.0139H94.651V78.7324H101.972V28.7474H94.651V14.4659H79.8674V7.3252H28.6343V14.4659H13.984V28.7474H6.66699Z" fill="#FF0000"/>
<path d="M28.7617 79.7497H43.4039V72.609H50.725V65.4683H58.0461V72.609H65.3673V79.7497H80.0095V65.4683H72.6884V58.3275H65.3673V51.1868H72.6884V44.0461H80.0095V29.7646H65.3673V36.9054H58.0461V44.0461H50.725V36.9054H43.4039V29.7646H28.7617V44.0461H36.0828V51.1868H43.4039V58.3275H36.0828V65.4683H28.7617V79.7497Z" fill="white"/>
</svg>
