<svg width="228" height="234" viewBox="0 0 228 234" fill="none" xmlns="http://www.w3.org/2000/svg">
<path d="M67.6406 233.869V219.291L213.42 73.5107H227.998V175.557H213.42V204.713H198.842V219.291H169.687V233.869H67.6406Z" fill="#808080"/>
<rect x="28.0713" y="15.1992" width="31.2385" height="14.578" fill="#A50021"/>
<rect x="59.3096" y="204.713" width="31.2385" height="14.578" transform="rotate(-180 59.3096 204.713)" fill="#A50021"/>
<rect x="190.512" y="204.713" width="31.2385" height="14.578" transform="rotate(-180 190.512 204.713)" fill="#A50021"/>
<rect x="30.1543" y="29.7773" width="29.156" height="14.578" transform="rotate(90 30.1543 29.7773)" fill="#A50021"/>
<rect x="203.007" y="29.7773" width="29.156" height="14.578" transform="rotate(90 203.007 29.7773)" fill="#A50021"/>
<rect x="15.5762" y="190.135" width="29.156" height="14.578" transform="rotate(-90 15.5762 190.135)" fill="#A50021"/>
<rect x="188.43" y="190.135" width="29.156" height="14.578" transform="rotate(-90 188.43 190.135)" fill="#A50021"/>
<rect x="15.5762" y="58.9326" width="102.046" height="14.578" transform="rotate(90 15.5762 58.9326)" fill="#A50021"/>
<rect x="217.585" y="58.9326" width="102.046" height="14.578" transform="rotate(90 217.585 58.9326)" fill="#A50021"/>
<rect x="159.273" y="15.1992" width="31.2385" height="14.578" fill="#A50021"/>
<rect x="57.2275" y="204.713" width="104.128" height="14.578" fill="#A50021"/>
<rect x="57.2275" y="0.621094" width="104.128" height="14.578" fill="#A50021"/>
<path d="M14.2734 58.9332V160.02V161.106H28.7061V190.135H57.8242V204.713H160.314V190.135H189.47V160.979H204.048V58.9332H189.47V29.7772H160.032V15.1992H58.0153V29.7772H28.8433V58.9332H14.2734Z" fill="#FF0000"/>
<path d="M58.2686 163.061H87.4245V148.484H102.002V133.906H116.58V148.484H131.158V163.061H160.314V133.906H145.736V119.328H131.158V104.75H145.736V90.1716H160.314V61.0156H131.158V75.5936H116.58V90.1716H102.002V75.5936H87.4245V61.0156H58.2686V90.1716H72.8465V104.75H87.4245V119.328H72.8465V133.906H58.2686V163.061Z" fill="white"/>
</svg>
