<svg width="91" height="95" viewBox="0 0 91 95" fill="none" xmlns="http://www.w3.org/2000/svg">
<path d="M2.02832 88.2692V77.2565L21.4455 37.8425L31.0092 19.2948L37.0952 6.833L42.3117 1.90625H48.1079L54.1939 11.1801L89.2607 77.2565V84.7915L82.3053 92.9062L9.56335 93.4858L2.02832 88.2692Z" fill="#F4FE00"/>
<rect x="40.5732" y="69.1406" width="12.172" height="12.172" fill="black"/>
<rect x="37.0957" y="28.5684" width="16.2293" height="24.9235" fill="black"/>
<rect x="40.5732" y="53.4902" width="9.27388" height="5.21656" fill="black"/>
<rect x="43.4717" y="53.4902" width="3.4777" height="12.7516" fill="black"/>
<rect y="75.5176" width="2.89809" height="13.9108" fill="#BDB457"/>
<rect x="2.89844" y="87.6895" width="2.89809" height="3.4777" fill="#BDB457"/>
<rect x="6.37598" y="91.166" width="2.89809" height="3.4777" fill="#BDB457"/>
<rect x="9.27344" y="91.166" width="74.7706" height="3.4777" fill="black"/>
<rect x="84.0449" y="87.6895" width="3.4777" height="3.4777" fill="black"/>
<rect x="80.5664" y="87.6895" width="3.4777" height="3.4777" fill="#DCD3D4"/>
<rect x="84.0449" y="84.2129" width="3.4777" height="3.4777" fill="#DCD3D4"/>
<rect x="84.0449" y="75.5176" width="3.4777" height="3.4777" fill="#DCD3D4"/>
<rect x="80.5664" y="69.1406" width="3.4777" height="3.4777" fill="#DCD3D4"/>
<rect x="77.6689" y="62.7676" width="3.4777" height="3.4777" fill="#DCD3D4"/>
<rect x="74.7705" y="56.3887" width="2.89809" height="3.4777" fill="#DCD3D4"/>
<rect x="71.293" y="50.5938" width="3.4777" height="3.4777" fill="#DCD3D4"/>
<rect x="68.3945" y="44.2168" width="2.89809" height="2.89809" fill="#DCD3D4"/>
<rect x="65.4971" y="37.8398" width="2.89809" height="2.89809" fill="#DCD3D4"/>
<rect x="62.0186" y="31.4668" width="3.4777" height="3.4777" fill="#DCD3D4"/>
<rect x="59.1211" y="25.668" width="2.89809" height="2.89809" fill="#DCD3D4"/>
<rect x="56.2227" y="19.2949" width="2.89809" height="2.89809" fill="#DCD3D4"/>
<rect x="52.7451" y="12.916" width="3.4777" height="3.4777" fill="#DCD3D4"/>
<rect x="37.0957" y="28.5684" width="3.4777" height="3.4777" fill="#DCD3D4"/>
<rect x="49.8467" y="28.5684" width="3.4777" height="3.4777" fill="#DCD3D4"/>
<rect x="49.8467" y="50.0156" width="3.4777" height="3.4777" fill="#DCD3D4"/>
<rect x="37.0957" y="50.0156" width="3.4777" height="3.4777" fill="#DCD3D4"/>
<rect x="40.5732" y="59.8672" width="2.89809" height="2.89809" fill="#DCD3D4"/>
<rect x="40.5732" y="69.1406" width="2.89809" height="2.89809" fill="#DCD3D4"/>
<rect x="49.8467" y="69.1406" width="2.89809" height="2.89809" fill="#DCD3D4"/>
<rect x="49.8467" y="78.4141" width="2.89809" height="2.89809" fill="#DCD3D4"/>
<rect x="40.5732" y="78.4141" width="2.89809" height="2.89809" fill="#DCD3D4"/>
<rect x="46.9492" y="59.8672" width="2.89809" height="2.89809" fill="#DCD3D4"/>
<rect x="46.9492" y="56.3887" width="2.89809" height="3.4777" fill="#B4B16A"/>
<rect x="40.5732" y="56.3887" width="2.89809" height="3.4777" fill="#B4B16A"/>
<rect x="49.8467" y="47.1152" width="3.4777" height="2.89809" fill="#B4B16A"/>
<rect x="37.0957" y="47.1152" width="3.4777" height="2.89809" fill="#B4B16A"/>
<rect x="49.8467" y="6.54297" width="2.89809" height="2.89809" fill="#DCD3D4"/>
<rect x="46.3691" y="3.64453" width="3.4777" height="3.4777" fill="#DCD3D4"/>
<rect x="87.5225" y="73.7773" width="3.4777" height="13.9108" fill="black"/>
<rect x="84.0449" y="68.5586" width="3.4777" height="6.95541" fill="black"/>
<rect x="81.1465" y="61.6074" width="3.4777" height="7.53502" fill="black"/>
<rect x="77.6689" y="56.3887" width="3.4777" height="6.37579" fill="black"/>
<rect x="74.7705" y="50.0156" width="3.4777" height="6.37579" fill="black"/>
<rect x="71.293" y="44.2168" width="3.4777" height="6.37579" fill="black"/>
<rect x="68.3945" y="37.8398" width="3.4777" height="6.37579" fill="black"/>
<rect x="65.4971" y="31.4668" width="3.4777" height="6.37579" fill="black"/>
<rect x="62.0186" y="25.0898" width="3.4777" height="6.37579" fill="black"/>
<rect x="59.1211" y="19.2949" width="3.4777" height="6.37579" fill="black"/>
<rect x="56.2227" y="12.916" width="3.4777" height="6.37579" fill="black"/>
<rect x="52.7451" y="6.54297" width="3.4777" height="6.37579" fill="black"/>
<rect x="49.8467" y="3.64453" width="3.4777" height="2.89809" fill="black"/>
<rect x="2.89844" y="69.1406" width="3.4777" height="6.37579" fill="#BDB457"/>
<rect x="5.7959" y="62.7676" width="3.4777" height="6.37579" fill="#BDB457"/>
<rect x="9.27344" y="56.3887" width="3.4777" height="6.95541" fill="#BDB457"/>
<rect x="12.1719" y="49.4336" width="3.4777" height="6.95541" fill="#BDB457"/>
<rect x="15.6494" y="43.6367" width="2.89809" height="6.95541" fill="#BDB457"/>
<rect x="18.5479" y="37.8398" width="2.89809" height="6.37579" fill="#BDB457"/>
<rect x="21.4453" y="30.8848" width="3.4777" height="6.95541" fill="#BDB457"/>
<rect x="24.9238" y="25.0898" width="2.89809" height="6.37579" fill="#BDB457"/>
<rect x="27.8213" y="18.7148" width="3.4777" height="6.95541" fill="#BDB457"/>
<rect x="31.2998" y="12.916" width="2.89809" height="6.37579" fill="#BDB457"/>
<rect x="34.1973" y="5.96289" width="3.4777" height="6.95541" fill="#BDB457"/>
<rect x="37.6748" y="3.64453" width="2.89809" height="2.89809" fill="#BDB457"/>
<rect x="40.5732" y="0.746094" width="9.27388" height="2.89809" fill="#BDB457"/>
</svg>
