<svg width="284" height="293" viewBox="0 0 284 293" fill="none" xmlns="http://www.w3.org/2000/svg">
<path d="M6.31641 272.498V238.21L66.7716 115.495L96.548 57.7464L115.497 18.9468L131.738 3.60742H149.785L168.733 32.4815L277.913 238.21V261.67L256.258 286.935L29.7766 288.739L6.31641 272.498Z" fill="#F4FE00"/>
<rect x="126.324" y="212.949" width="37.8973" height="37.8973" fill="black"/>
<rect x="115.496" y="86.625" width="50.5297" height="77.5992" fill="black"/>
<rect x="126.324" y="164.221" width="28.8741" height="16.2417" fill="black"/>
<rect x="135.348" y="164.221" width="10.8278" height="39.7019" fill="black"/>
<rect y="232.799" width="9.02316" height="43.3112" fill="#BDB457"/>
<rect x="9.02344" y="270.695" width="9.02316" height="10.8278" fill="#BDB457"/>
<rect x="19.8506" y="281.521" width="9.02316" height="10.8278" fill="#BDB457"/>
<rect x="28.874" y="281.521" width="232.798" height="10.8278" fill="black"/>
<rect x="261.672" y="270.695" width="10.8278" height="10.8278" fill="black"/>
<rect x="250.844" y="270.695" width="10.8278" height="10.8278" fill="#DCD3D4"/>
<rect x="261.672" y="259.867" width="10.8278" height="10.8278" fill="#DCD3D4"/>
<rect x="261.672" y="232.799" width="10.8278" height="10.8278" fill="#DCD3D4"/>
<rect x="250.844" y="212.949" width="10.8278" height="10.8278" fill="#DCD3D4"/>
<rect x="241.82" y="193.096" width="10.8278" height="10.8278" fill="#DCD3D4"/>
<rect x="232.798" y="173.244" width="9.02316" height="10.8278" fill="#DCD3D4"/>
<rect x="221.97" y="155.199" width="10.8278" height="10.8278" fill="#DCD3D4"/>
<rect x="212.946" y="135.348" width="9.02316" height="9.02316" fill="#DCD3D4"/>
<rect x="203.923" y="115.494" width="9.02316" height="9.02316" fill="#DCD3D4"/>
<rect x="193.096" y="95.6445" width="10.8278" height="10.8278" fill="#DCD3D4"/>
<rect x="184.072" y="77.5996" width="9.02316" height="9.02316" fill="#DCD3D4"/>
<rect x="175.049" y="57.748" width="9.02316" height="9.02316" fill="#DCD3D4"/>
<rect x="164.222" y="37.8965" width="10.8278" height="10.8278" fill="#DCD3D4"/>
<rect x="115.496" y="86.625" width="10.8278" height="10.8278" fill="#DCD3D4"/>
<rect x="155.198" y="86.625" width="10.8278" height="10.8278" fill="#DCD3D4"/>
<rect x="155.198" y="153.395" width="10.8278" height="10.8278" fill="#DCD3D4"/>
<rect x="115.496" y="153.395" width="10.8278" height="10.8278" fill="#DCD3D4"/>
<rect x="126.324" y="184.072" width="9.02316" height="9.02316" fill="#DCD3D4"/>
<rect x="126.324" y="212.949" width="9.02316" height="9.02316" fill="#DCD3D4"/>
<rect x="155.198" y="212.949" width="9.02316" height="9.02316" fill="#DCD3D4"/>
<rect x="155.198" y="241.818" width="9.02316" height="9.02316" fill="#DCD3D4"/>
<rect x="126.324" y="241.818" width="9.02316" height="9.02316" fill="#DCD3D4"/>
<rect x="146.175" y="184.072" width="9.02316" height="9.02316" fill="#DCD3D4"/>
<rect x="146.175" y="173.244" width="9.02316" height="10.8278" fill="#B4B16A"/>
<rect x="126.324" y="173.244" width="9.02316" height="10.8278" fill="#B4B16A"/>
<rect x="155.198" y="144.371" width="10.8278" height="9.02316" fill="#B4B16A"/>
<rect x="115.496" y="144.371" width="10.8278" height="9.02316" fill="#B4B16A"/>
<rect x="155.198" y="18.0469" width="9.02316" height="9.02316" fill="#DCD3D4"/>
<rect x="144.37" y="9.02344" width="10.8278" height="10.8278" fill="#DCD3D4"/>
<rect x="272.499" y="227.383" width="10.8278" height="43.3112" fill="black"/>
<rect x="261.672" y="211.143" width="10.8278" height="21.6556" fill="black"/>
<rect x="252.648" y="189.486" width="10.8278" height="23.4602" fill="black"/>
<rect x="241.82" y="173.244" width="10.8278" height="19.851" fill="black"/>
<rect x="232.798" y="153.395" width="10.8278" height="19.851" fill="black"/>
<rect x="221.97" y="135.348" width="10.8278" height="19.851" fill="black"/>
<rect x="212.946" y="115.494" width="10.8278" height="19.851" fill="black"/>
<rect x="203.923" y="95.6445" width="10.8278" height="19.851" fill="black"/>
<rect x="193.096" y="75.7949" width="10.8278" height="19.851" fill="black"/>
<rect x="184.072" y="57.748" width="10.8278" height="19.851" fill="black"/>
<rect x="175.049" y="37.8965" width="10.8278" height="19.851" fill="black"/>
<rect x="164.222" y="18.0469" width="10.8278" height="19.851" fill="black"/>
<rect x="155.198" y="9.02344" width="10.8278" height="9.02316" fill="black"/>
<rect x="9.02344" y="212.949" width="10.8278" height="19.851" fill="#BDB457"/>
<rect x="18.0459" y="193.096" width="10.8278" height="19.851" fill="#BDB457"/>
<rect x="28.874" y="173.244" width="10.8278" height="21.6556" fill="#BDB457"/>
<rect x="37.8975" y="151.59" width="10.8278" height="21.6556" fill="#BDB457"/>
<rect x="48.7256" y="133.541" width="9.02316" height="21.6556" fill="#BDB457"/>
<rect x="57.748" y="115.494" width="9.02316" height="19.851" fill="#BDB457"/>
<rect x="66.7715" y="93.8398" width="10.8278" height="21.6556" fill="#BDB457"/>
<rect x="77.5996" y="75.7949" width="9.02316" height="19.851" fill="#BDB457"/>
<rect x="86.6221" y="55.9453" width="10.8278" height="21.6556" fill="#BDB457"/>
<rect x="97.4502" y="37.8965" width="9.02316" height="19.851" fill="#BDB457"/>
<rect x="106.474" y="16.2422" width="10.8278" height="21.6556" fill="#BDB457"/>
<rect x="117.301" y="9.02344" width="9.02316" height="9.02316" fill="#BDB457"/>
<rect x="126.324" width="28.8741" height="9.02316" fill="#BDB457"/>
</svg>
