<svg width="33" height="20" viewBox="0 0 33 20" fill="none" xmlns="http://www.w3.org/2000/svg">
<path d="M15.0462 9.5L16.5 7.97392L17.9538 9.5H15.0462Z" stroke="#FF0000" stroke-width="11"/>
<mask id="path-2-inside-1_308_665" fill="white">
<path d="M16.5 4.25L28.1913 16.0625H4.80866L16.5 4.25Z"/>
</mask>
<path d="M16.5 4.25L24.3182 -3.48798L16.5 -11.3872L8.68183 -3.48798L16.5 4.25ZM28.1913 16.0625V27.0625H54.5553L36.0095 8.32452L28.1913 16.0625ZM4.80866 16.0625L-3.00951 8.32452L-21.5553 27.0625H4.80866V16.0625ZM8.68183 11.988L20.3732 23.8005L36.0095 8.32452L24.3182 -3.48798L8.68183 11.988ZM28.1913 5.0625H4.80866V27.0625H28.1913V5.0625ZM12.6268 23.8005L24.3182 11.988L8.68183 -3.48798L-3.00951 8.32452L12.6268 23.8005Z" fill="white" mask="url(#path-2-inside-1_308_665)"/>
</svg>
