<svg width="337" height="399" viewBox="0 0 337 399" fill="none" xmlns="http://www.w3.org/2000/svg">
<path d="M2.34375 66.0595C2.34375 63.8578 2.63672 61.8307 3.22266 59.9782C3.81451 58.1257 4.71709 56.4093 5.9304 54.829H9.54368C9.08203 55.415 8.65294 56.1311 8.25639 56.9775C7.85985 57.8179 7.51361 58.7412 7.21769 59.7473C6.92176 60.7535 6.69093 61.7952 6.52521 62.8723C6.35949 63.9436 6.27663 65.006 6.27663 66.0595C6.27663 67.4622 6.41868 68.8797 6.70277 70.312C6.99278 71.7383 7.3834 73.0641 7.87465 74.2892C8.3718 75.5144 8.92815 76.5176 9.54368 77.2988H5.9304C4.71709 75.7186 3.81451 74.0022 3.22266 72.1497C2.63672 70.2972 2.34375 68.2671 2.34375 66.0595ZM17.8112 77.4231V54.6958H19.2671V77.4231H17.8112ZM21.673 62.1976C21.602 61.4815 21.2972 60.9251 20.7586 60.5286C20.22 60.132 19.4891 59.9338 18.5658 59.9338C17.9384 59.9338 17.4087 60.0225 16.9767 60.2001C16.5446 60.3717 16.2132 60.6114 15.9823 60.9192C15.7574 61.227 15.645 61.5762 15.645 61.9668C15.6331 62.2923 15.7012 62.5764 15.8492 62.8191C16.003 63.0617 16.2132 63.2718 16.4795 63.4494C16.7458 63.621 17.0536 63.772 17.4028 63.9022C17.752 64.0265 18.1249 64.133 18.5214 64.2218L20.1549 64.6124C20.948 64.7899 21.676 65.0267 22.3389 65.3226C23.0017 65.6185 23.5758 65.9825 24.0612 66.4146C24.5465 66.8466 24.9223 67.3556 25.1887 67.9416C25.4609 68.5275 25.6 69.1993 25.6059 69.9569C25.6 71.0695 25.3159 72.0343 24.7536 72.851C24.1973 73.6619 23.3924 74.2922 22.3389 74.742C21.2913 75.1859 20.0277 75.4078 18.548 75.4078C17.0802 75.4078 15.8018 75.1829 14.7128 74.7331C13.6297 74.2833 12.7834 73.6175 12.1737 72.7356C11.57 71.8478 11.2534 70.7499 11.2238 69.4419H14.9436C14.9851 70.0516 15.1597 70.5605 15.4674 70.9689C15.7811 71.3714 16.1984 71.6762 16.7192 71.8833C17.2459 72.0846 17.8408 72.1852 18.5036 72.1852C19.1547 72.1852 19.7199 72.0905 20.1993 71.9011C20.6846 71.7117 21.0605 71.4483 21.3268 71.111C21.5931 70.7736 21.7263 70.3859 21.7263 69.948C21.7263 69.5396 21.605 69.1963 21.3623 68.9181C21.1256 68.64 20.7764 68.4032 20.3147 68.2079C19.859 68.0126 19.2997 67.835 18.6368 67.6752L16.657 67.1781C15.1241 66.8052 13.9138 66.2222 13.026 65.4292C12.1382 64.6361 11.6973 63.5678 11.7032 62.2243C11.6973 61.1234 11.9903 60.1616 12.5821 59.339C13.1799 58.5163 13.9996 57.8741 15.0413 57.4125C16.0829 56.9508 17.2667 56.72 18.5924 56.72C19.9419 56.72 21.1196 56.9508 22.1258 57.4125C23.1379 57.8741 23.925 58.5163 24.4873 59.339C25.0496 60.1616 25.3396 61.1145 25.3573 62.1976H21.673ZM34.8056 75.399C33.4798 75.399 32.2991 75.1711 31.2633 74.7154C30.2335 74.2537 29.4197 73.6204 28.8219 72.8155C28.2301 72.0047 27.9252 71.0695 27.9075 70.0101H31.7782C31.8019 70.454 31.9469 70.8446 32.2132 71.182C32.4855 71.5134 32.8465 71.7709 33.2963 71.9544C33.7462 72.1378 34.2522 72.2296 34.8145 72.2296C35.4004 72.2296 35.9183 72.126 36.3681 71.9189C36.8179 71.7117 37.17 71.4247 37.4245 71.0577C37.679 70.6908 37.8063 70.2676 37.8063 69.7882C37.8063 69.3029 37.6702 68.8738 37.3979 68.5009C37.1316 68.1221 36.7469 67.8262 36.2438 67.6131C35.7466 67.4 35.1548 67.2935 34.4682 67.2935H32.7725V64.4703H34.4682C35.0482 64.4703 35.5602 64.3697 36.0041 64.1685C36.4539 63.9673 36.8031 63.6891 37.0517 63.334C37.3002 62.973 37.4245 62.5527 37.4245 62.0733C37.4245 61.6176 37.315 61.2181 37.0961 60.8748C36.883 60.5256 36.5811 60.2534 36.1905 60.0581C35.8058 59.8627 35.356 59.7651 34.8411 59.7651C34.3203 59.7651 33.8438 59.8598 33.4118 60.0492C32.9797 60.2327 32.6335 60.496 32.373 60.8393C32.1126 61.1826 31.9735 61.585 31.9558 62.0467H28.2715C28.2892 60.9991 28.5881 60.0758 29.1681 59.2768C29.7482 58.4778 30.5294 57.8534 31.5119 57.4036C32.5003 56.9479 33.6159 56.72 34.8588 56.72C36.1136 56.72 37.2115 56.9479 38.1525 57.4036C39.0936 57.8593 39.8245 58.4748 40.3453 59.2502C40.8721 60.0196 41.1325 60.8837 41.1266 61.8425C41.1325 62.8605 40.8159 63.7098 40.1767 64.3904C39.5434 65.0711 38.7177 65.5031 37.6998 65.6866V65.8287C39.0373 66.0003 40.0553 66.4649 40.7537 67.2225C41.458 67.9741 41.8072 68.9152 41.8013 70.0456C41.8072 71.0814 41.5083 72.0017 40.9047 72.8066C40.3069 73.6116 39.4812 74.2449 38.4277 74.7065C37.3742 75.1681 36.1668 75.399 34.8056 75.399ZM48.1978 72.6646L48.1001 73.6412C48.0232 74.4224 47.8752 75.2007 47.6562 75.976C47.4432 76.7573 47.2183 77.4645 46.9815 78.0978C46.7507 78.7311 46.5643 79.2283 46.4222 79.5893H43.9719C44.0607 79.2401 44.1821 78.7518 44.3359 78.1245C44.4898 77.503 44.6348 76.8046 44.771 76.0293C44.9071 75.254 44.9929 74.4638 45.0284 73.6589L45.0728 72.6646H48.1978ZM58.1143 75.399C56.8596 75.399 55.741 75.1681 54.7585 74.7065C53.782 74.2449 53.0066 73.6086 52.4325 72.7978C51.8584 71.9869 51.5595 71.0577 51.5359 70.0101H55.2646C55.306 70.7144 55.6019 71.2856 56.1523 71.7235C56.7028 72.1615 57.3568 72.3805 58.1143 72.3805C58.718 72.3805 59.2507 72.2473 59.7124 71.981C60.1799 71.7087 60.5439 71.3329 60.8043 70.8535C61.0707 70.3682 61.2038 69.8118 61.2038 69.1845C61.2038 68.5453 61.0677 67.983 60.7955 67.4977C60.5291 67.0124 60.1592 66.6336 59.6857 66.3613C59.2122 66.0891 58.6707 65.95 58.0611 65.9441C57.5284 65.9441 57.0105 66.0536 56.5075 66.2725C56.0103 66.4915 55.6226 66.7904 55.3445 67.1692L51.9265 66.5566L52.7876 56.9686H63.9027V60.1113H55.957L55.4865 64.6657H55.593C55.9126 64.2158 56.395 63.843 57.0401 63.5471C57.6853 63.2511 58.4073 63.1032 59.2063 63.1032C60.3013 63.1032 61.2778 63.3606 62.136 63.8755C62.9942 64.3904 63.6719 65.0977 64.169 65.9973C64.6662 66.891 64.9118 67.9209 64.9059 69.0868C64.9118 70.312 64.6277 71.401 64.0536 72.3539C63.4854 73.3008 62.6894 74.0466 61.6655 74.5911C60.6475 75.1297 59.4638 75.399 58.1143 75.399ZM67.3118 71.9544V68.927L74.9023 56.9686H77.5124V61.1589H75.9677L71.1825 68.7317V68.8738H81.9691V71.9544H67.3118ZM76.0387 75.1504V71.0311L76.1097 69.6905V56.9686H79.7141V75.1504H76.0387ZM91.1088 56.72C92.044 56.72 92.9436 56.8768 93.8077 57.1905C94.6777 57.5042 95.4531 58.0043 96.1337 58.6909C96.8203 59.3774 97.3618 60.2889 97.7583 61.4252C98.1608 62.5557 98.365 63.9436 98.3709 65.589C98.3709 67.1337 98.1963 68.5127 97.8471 69.726C97.5038 70.9334 97.0096 71.9603 96.3645 72.8066C95.7194 73.653 94.9411 74.2981 94.0297 74.742C93.1182 75.18 92.1002 75.399 90.9757 75.399C89.7624 75.399 88.6911 75.1652 87.7619 74.6976C86.8327 74.2241 86.084 73.582 85.5158 72.7711C84.9535 71.9544 84.6132 71.037 84.4949 70.019H88.2857C88.4337 70.6819 88.7444 71.1968 89.2179 71.5637C89.6913 71.9248 90.2773 72.1053 90.9757 72.1053C92.1594 72.1053 93.059 71.5904 93.6745 70.5605C94.2901 69.5248 94.6008 68.1073 94.6067 66.3081H94.4824C94.2102 66.8407 93.8432 67.2994 93.3816 67.6841C92.9199 68.0629 92.3902 68.3559 91.7924 68.563C91.2006 68.7702 90.5703 68.8738 89.9015 68.8738C88.8302 68.8738 87.8743 68.6222 87.0339 68.1191C86.1935 67.6161 85.5306 66.9236 85.0453 66.0417C84.56 65.1599 84.3173 64.1537 84.3173 63.0233C84.3114 61.804 84.5925 60.718 85.1607 59.7651C85.7289 58.8122 86.522 58.0665 87.54 57.5279C88.5639 56.9834 89.7535 56.7141 91.1088 56.72ZM91.1355 59.7385C90.5377 59.7385 90.005 59.8805 89.5375 60.1646C89.0758 60.4487 88.7089 60.8304 88.4366 61.3098C88.1703 61.7892 88.0401 62.3249 88.046 62.9167C88.046 63.5145 88.1762 64.0531 88.4366 64.5325C88.7029 65.006 89.064 65.3848 89.5197 65.6689C89.9814 65.947 90.5081 66.0861 91.1 66.0861C91.5439 66.0861 91.9552 66.0033 92.334 65.8375C92.7128 65.6718 93.0413 65.444 93.3194 65.1539C93.6035 64.858 93.8255 64.5177 93.9853 64.133C94.1451 63.7483 94.225 63.3399 94.225 62.9078C94.219 62.3337 94.0829 61.807 93.8166 61.3276C93.5502 60.8482 93.1833 60.4635 92.7157 60.1735C92.2482 59.8835 91.7214 59.7385 91.1355 59.7385ZM102.548 75.3812C101.962 75.3812 101.459 75.1741 101.039 74.7598C100.624 74.3395 100.417 73.8365 100.417 73.2505C100.417 72.6705 100.624 72.1734 101.039 71.7591C101.459 71.3448 101.962 71.1376 102.548 71.1376C103.116 71.1376 103.613 71.3448 104.039 71.7591C104.466 72.1734 104.679 72.6705 104.679 73.2505C104.679 73.6412 104.578 73.9992 104.377 74.3248C104.181 74.6444 103.924 74.9018 103.604 75.0971C103.285 75.2865 102.933 75.3812 102.548 75.3812ZM113.994 75.399C113.059 75.3931 112.156 75.2362 111.286 74.9284C110.422 74.6207 109.647 74.1206 108.96 73.4281C108.273 72.7356 107.729 71.8182 107.326 70.676C106.93 69.5337 106.732 68.131 106.732 66.4679C106.738 64.9409 106.912 63.5766 107.255 62.3752C107.605 61.1678 108.102 60.1439 108.747 59.3034C109.398 58.463 110.176 57.8238 111.082 57.3858C111.987 56.9419 113.002 56.72 114.127 56.72C115.34 56.72 116.411 56.9567 117.341 57.4302C118.27 57.8978 119.016 58.534 119.578 59.339C120.146 60.1439 120.489 61.0465 120.608 62.0467H116.817C116.669 61.4134 116.358 60.9163 115.885 60.5552C115.411 60.1942 114.825 60.0137 114.127 60.0137C112.943 60.0137 112.044 60.5286 111.428 61.5584C110.818 62.5882 110.508 63.988 110.496 65.7576H110.62C110.892 65.219 111.259 64.7604 111.721 64.3816C112.189 63.9969 112.718 63.7039 113.31 63.5027C113.908 63.2955 114.538 63.1919 115.201 63.1919C116.278 63.1919 117.237 63.4464 118.078 63.9554C118.918 64.4585 119.581 65.151 120.066 66.0328C120.551 66.9147 120.794 67.9238 120.794 69.0602C120.794 70.2913 120.507 71.3862 119.933 72.345C119.365 73.3038 118.569 74.0555 117.545 74.6C116.527 75.1386 115.343 75.4049 113.994 75.399ZM113.976 72.3805C114.568 72.3805 115.098 72.2385 115.565 71.9544C116.033 71.6703 116.4 71.2856 116.666 70.8002C116.932 70.3149 117.065 69.7704 117.065 69.1667C117.065 68.563 116.932 68.0215 116.666 67.5421C116.406 67.0627 116.044 66.6809 115.583 66.3968C115.121 66.1127 114.594 65.9707 114.003 65.9707C113.559 65.9707 113.147 66.0536 112.769 66.2193C112.396 66.385 112.067 66.6158 111.783 66.9118C111.505 67.2077 111.286 67.551 111.126 67.9416C110.966 68.3263 110.886 68.7376 110.886 69.1756C110.886 69.7615 111.02 70.2972 111.286 70.7825C111.558 71.2678 111.925 71.6555 112.387 71.9455C112.854 72.2355 113.384 72.3805 113.976 72.3805ZM131.43 56.9686V75.1504H127.586V60.6174H127.479L123.315 63.2275V59.8184L127.816 56.9686H131.43ZM142.161 66.0595C142.161 68.2671 141.865 70.2972 141.273 72.1497C140.687 74.0022 139.788 75.7186 138.574 77.2988H134.961C135.423 76.7129 135.852 75.9967 136.248 75.1504C136.645 74.304 136.991 73.3807 137.287 72.3805C137.583 71.3743 137.814 70.3327 137.979 69.2555C138.145 68.1783 138.228 67.113 138.228 66.0595C138.228 64.6568 138.083 63.2422 137.793 61.8159C137.509 60.3836 137.118 59.0578 136.621 57.8386C136.13 56.6135 135.576 55.6103 134.961 54.829H138.574C139.788 56.4093 140.687 58.1257 141.273 59.9782C141.865 61.8307 142.161 63.8578 142.161 66.0595Z" fill="#D90620"/>
<path d="M241.13 69.2193V72.22H232.838V69.2193H241.13ZM243.804 79.8105V77.0407L250.276 71.0481C250.827 70.5154 251.288 70.036 251.661 69.6099C252.04 69.1838 252.327 68.7665 252.522 68.3581C252.718 67.9438 252.815 67.497 252.815 67.0176C252.815 66.4849 252.694 66.0262 252.451 65.6415C252.209 65.2509 251.877 64.952 251.457 64.7449C251.037 64.5318 250.56 64.4252 250.028 64.4252C249.471 64.4252 248.986 64.5377 248.572 64.7626C248.157 64.9875 247.838 65.3101 247.613 65.7303C247.388 66.1505 247.275 66.6506 247.275 67.2306H243.627C243.627 66.041 243.896 65.0082 244.435 64.1323C244.973 63.2563 245.728 62.5787 246.698 62.0993C247.669 61.6199 248.788 61.3801 250.054 61.3801C251.356 61.3801 252.49 61.611 253.454 62.0726C254.425 62.5283 255.18 63.1616 255.718 63.9725C256.257 64.7833 256.526 65.7125 256.526 66.7601C256.526 67.4467 256.39 68.1243 256.118 68.7931C255.851 69.4619 255.375 70.2047 254.688 71.0215C254.002 71.8323 253.034 72.8059 251.785 73.9423L249.131 76.5435V76.6678H256.766V79.8105H243.804ZM266.334 80.0591C264.967 80.0591 263.751 79.8372 262.685 79.3933C261.626 78.9435 260.794 78.3309 260.191 77.5556C259.587 76.7802 259.285 75.9013 259.285 74.9189C259.285 74.1613 259.457 73.4658 259.8 72.8326C260.149 72.1934 260.623 71.6636 261.22 71.2434C261.818 70.8173 262.487 70.545 263.227 70.4267V70.3024C262.256 70.1071 261.469 69.6365 260.865 68.8908C260.262 68.1391 259.96 67.2662 259.96 66.2718C259.96 65.3308 260.235 64.4933 260.785 63.7594C261.336 63.0196 262.09 62.4396 263.049 62.0194C264.014 61.5932 265.109 61.3801 266.334 61.3801C267.559 61.3801 268.651 61.5932 269.61 62.0194C270.575 62.4455 271.332 63.0285 271.883 63.7683C272.433 64.5022 272.711 65.3367 272.717 66.2718C272.711 67.2721 272.403 68.1451 271.794 68.8908C271.184 69.6365 270.403 70.1071 269.45 70.3024V70.4267C270.178 70.545 270.838 70.8173 271.43 71.2434C272.028 71.6636 272.501 72.1934 272.85 72.8326C273.205 73.4658 273.386 74.1613 273.392 74.9189C273.386 75.9013 273.081 76.7802 272.477 77.5556C271.874 78.3309 271.039 78.9435 269.974 79.3933C268.914 79.8372 267.701 80.0591 266.334 80.0591ZM266.334 77.236C266.944 77.236 267.476 77.1265 267.932 76.9075C268.388 76.6826 268.743 76.3748 268.997 75.9842C269.258 75.5877 269.388 75.1319 269.388 74.617C269.388 74.0903 269.255 73.6257 268.988 73.2232C268.722 72.8148 268.361 72.4952 267.905 72.2644C267.45 72.0276 266.926 71.9093 266.334 71.9093C265.748 71.9093 265.224 72.0276 264.763 72.2644C264.301 72.4952 263.937 72.8148 263.671 73.2232C263.41 73.6257 263.28 74.0903 263.28 74.617C263.28 75.1319 263.407 75.5877 263.662 75.9842C263.916 76.3748 264.274 76.6826 264.736 76.9075C265.198 77.1265 265.73 77.236 266.334 77.236ZM266.334 69.1127C266.843 69.1127 267.296 69.0092 267.692 68.802C268.089 68.5949 268.4 68.3078 268.624 67.9409C268.849 67.5739 268.962 67.1507 268.962 66.6713C268.962 66.1979 268.849 65.7836 268.624 65.4284C268.4 65.0674 268.092 64.7863 267.701 64.585C267.311 64.3779 266.855 64.2743 266.334 64.2743C265.819 64.2743 265.363 64.3779 264.967 64.585C264.57 64.7863 264.26 65.0674 264.035 65.4284C263.816 65.7836 263.706 66.1979 263.706 66.6713C263.706 67.1507 263.819 67.5739 264.044 67.9409C264.268 68.3078 264.579 68.5949 264.976 68.802C265.372 69.0092 265.825 69.1127 266.334 69.1127ZM277.813 80.0414C277.227 80.0414 276.724 79.8342 276.304 79.4199C275.89 78.9997 275.682 78.4966 275.682 77.9107C275.682 77.3307 275.89 76.8335 276.304 76.4192C276.724 76.0049 277.227 75.7978 277.813 75.7978C278.381 75.7978 278.878 76.0049 279.305 76.4192C279.731 76.8335 279.944 77.3307 279.944 77.9107C279.944 78.3013 279.843 78.6594 279.642 78.9849C279.447 79.3045 279.189 79.562 278.87 79.7573C278.55 79.9467 278.198 80.0414 277.813 80.0414ZM289.41 80.21C287.883 80.2041 286.569 79.8283 285.468 79.0826C284.373 78.3368 283.53 77.2567 282.938 75.8422C282.352 74.4276 282.062 72.726 282.068 70.7374C282.068 68.7547 282.361 67.0649 282.947 65.6681C283.539 64.2714 284.382 63.209 285.477 62.481C286.578 61.7471 287.889 61.3801 289.41 61.3801C290.931 61.3801 292.239 61.7471 293.334 62.481C294.435 63.2149 295.281 64.2802 295.873 65.677C296.465 67.0679 296.758 68.7547 296.752 70.7374C296.752 72.7319 296.456 74.4365 295.864 75.851C295.278 77.2656 294.438 78.3457 293.343 79.0914C292.248 79.8372 290.937 80.21 289.41 80.21ZM289.41 77.0229C290.451 77.0229 291.283 76.4991 291.904 75.4515C292.526 74.4039 292.834 72.8326 292.828 70.7374C292.828 69.3584 292.686 68.2102 292.402 67.2928C292.123 66.3754 291.727 65.6859 291.212 65.2243C290.703 64.7626 290.102 64.5318 289.41 64.5318C288.374 64.5318 287.545 65.0497 286.924 66.0854C286.302 67.1212 285.989 68.6718 285.983 70.7374C285.983 72.1342 286.122 73.3001 286.4 74.2353C286.684 75.1645 287.084 75.8629 287.599 76.3304C288.114 76.7921 288.717 77.0229 289.41 77.0229ZM306.071 61.3801C307.006 61.3801 307.906 61.537 308.77 61.8507C309.64 62.1644 310.415 62.6645 311.096 63.351C311.783 64.0376 312.324 64.949 312.721 66.0854C313.123 67.2158 313.327 68.6038 313.333 70.2491C313.333 71.7939 313.159 73.1729 312.809 74.3862C312.466 75.5936 311.972 76.6204 311.327 77.4668C310.682 78.3132 309.903 78.9583 308.992 79.4022C308.081 79.8401 307.063 80.0591 305.938 80.0591C304.725 80.0591 303.653 79.8253 302.724 79.3578C301.795 78.8843 301.046 78.2421 300.478 77.4313C299.916 76.6145 299.576 75.6971 299.457 74.6792H303.248C303.396 75.342 303.707 75.8569 304.18 76.2239C304.654 76.5849 305.24 76.7654 305.938 76.7654C307.122 76.7654 308.021 76.2505 308.637 75.2207C309.252 74.185 309.563 72.7675 309.569 70.9682H309.445C309.173 71.5009 308.806 71.9596 308.344 72.3443C307.882 72.7231 307.353 73.016 306.755 73.2232C306.163 73.4303 305.533 73.5339 304.864 73.5339C303.793 73.5339 302.837 73.2824 301.996 72.7793C301.156 72.2762 300.493 71.5837 300.008 70.7019C299.522 69.82 299.28 68.8139 299.28 67.6834C299.274 66.4642 299.555 65.3781 300.123 64.4252C300.691 63.4724 301.484 62.7266 302.502 62.188C303.526 61.6435 304.716 61.3742 306.071 61.3801ZM306.098 64.3986C305.5 64.3986 304.967 64.5407 304.5 64.8248C304.038 65.1088 303.671 65.4906 303.399 65.97C303.133 66.4494 303.002 66.985 303.008 67.5769C303.008 68.1747 303.139 68.7132 303.399 69.1926C303.665 69.6661 304.026 70.0449 304.482 70.329C304.944 70.6072 305.47 70.7463 306.062 70.7463C306.506 70.7463 306.918 70.6634 307.296 70.4977C307.675 70.332 308.004 70.1041 308.282 69.8141C308.566 69.5182 308.788 69.1779 308.948 68.7931C309.107 68.4084 309.187 68.0001 309.187 67.568C309.181 66.9939 309.045 66.4672 308.779 65.9877C308.513 65.5083 308.146 65.1236 307.678 64.8336C307.211 64.5436 306.684 64.3986 306.098 64.3986ZM325.949 76.4015V75.4426C325.949 74.7147 326.103 74.0459 326.41 73.4363C326.724 72.8207 327.177 72.3295 327.769 71.9625C328.366 71.5897 329.094 71.4032 329.953 71.4032C330.823 71.4032 331.554 71.5867 332.145 71.9537C332.743 72.3206 333.193 72.8118 333.495 73.4274C333.803 74.037 333.957 74.7087 333.957 75.4426V76.4015C333.957 77.1294 333.803 77.8012 333.495 78.4167C333.187 79.0263 332.734 79.5146 332.137 79.8816C331.539 80.2544 330.811 80.4409 329.953 80.4409C329.083 80.4409 328.352 80.2544 327.76 79.8816C327.168 79.5146 326.718 79.0263 326.41 78.4167C326.103 77.8012 325.949 77.1294 325.949 76.4015ZM328.532 75.4426V76.4015C328.532 76.8217 328.633 77.2182 328.834 77.5911C329.041 77.964 329.414 78.1504 329.953 78.1504C330.491 78.1504 330.858 77.9669 331.053 77.6C331.255 77.233 331.355 76.8335 331.355 76.4015V75.4426C331.355 75.0106 331.261 74.6081 331.071 74.2353C330.882 73.8624 330.509 73.676 329.953 73.676C329.42 73.676 329.05 73.8624 328.843 74.2353C328.636 74.6081 328.532 75.0106 328.532 75.4426ZM316.618 65.9966V65.0378C316.618 64.3039 316.775 63.6322 317.089 63.0225C317.402 62.407 317.855 61.9158 318.447 61.5488C319.045 61.1819 319.767 60.9984 320.613 60.9984C321.489 60.9984 322.223 61.1819 322.815 61.5488C323.407 61.9158 323.856 62.407 324.164 63.0225C324.472 63.6322 324.626 64.3039 324.626 65.0378V65.9966C324.626 66.7305 324.469 67.4023 324.155 68.0119C323.848 68.6215 323.395 69.1098 322.797 69.4767C322.205 69.8378 321.477 70.0183 320.613 70.0183C319.749 70.0183 319.018 69.8348 318.42 69.4679C317.828 69.095 317.379 68.6067 317.071 68.003C316.769 67.3934 316.618 66.7246 316.618 65.9966ZM319.219 65.0378V65.9966C319.219 66.4287 319.32 66.8282 319.521 67.1951C319.728 67.5621 320.092 67.7456 320.613 67.7456C321.158 67.7456 321.528 67.5621 321.723 67.1951C321.924 66.8282 322.025 66.4287 322.025 65.9966V65.0378C322.025 64.6058 321.93 64.2033 321.741 63.8304C321.551 63.4576 321.175 63.2711 320.613 63.2711C320.086 63.2711 319.722 63.4605 319.521 63.8393C319.32 64.2181 319.219 64.6176 319.219 65.0378ZM317.79 79.8105L330.29 61.6287H332.616L320.116 79.8105H317.79Z" fill="#D90620"/>
<path d="M2.34375 128.039C2.34375 125.837 2.63672 123.81 3.22266 121.958C3.81451 120.105 4.71709 118.389 5.9304 116.809H9.54368C9.08203 117.394 8.65294 118.111 8.25639 118.957C7.85985 119.797 7.51361 120.721 7.21769 121.727C6.92176 122.733 6.69093 123.775 6.52521 124.852C6.35949 125.923 6.27663 126.985 6.27663 128.039C6.27663 129.442 6.41868 130.859 6.70277 132.291C6.99278 133.718 7.3834 135.044 7.87465 136.269C8.3718 137.494 8.92815 138.497 9.54368 139.278H5.9304C4.71709 137.698 3.81451 135.982 3.22266 134.129C2.63672 132.277 2.34375 130.247 2.34375 128.039ZM17.8112 139.403V116.675H19.2671V139.403H17.8112ZM21.673 124.177C21.602 123.461 21.2972 122.905 20.7586 122.508C20.22 122.112 19.4891 121.913 18.5658 121.913C17.9384 121.913 17.4087 122.002 16.9767 122.18C16.5446 122.351 16.2132 122.591 15.9823 122.899C15.7574 123.206 15.645 123.556 15.645 123.946C15.6331 124.272 15.7012 124.556 15.8492 124.799C16.003 125.041 16.2132 125.251 16.4795 125.429C16.7458 125.601 17.0536 125.751 17.4028 125.882C17.752 126.006 18.1249 126.112 18.5214 126.201L20.1549 126.592C20.948 126.769 21.676 127.006 22.3389 127.302C23.0017 127.598 23.5758 127.962 24.0612 128.394C24.5465 128.826 24.9223 129.335 25.1887 129.921C25.4609 130.507 25.6 131.179 25.6059 131.936C25.6 133.049 25.3159 134.014 24.7536 134.831C24.1973 135.641 23.3924 136.272 22.3389 136.722C21.2913 137.165 20.0277 137.387 18.548 137.387C17.0802 137.387 15.8018 137.162 14.7128 136.713C13.6297 136.263 12.7834 135.597 12.1737 134.715C11.57 133.827 11.2534 132.729 11.2238 131.421H14.9436C14.9851 132.031 15.1597 132.54 15.4674 132.948C15.7811 133.351 16.1984 133.656 16.7192 133.863C17.2459 134.064 17.8408 134.165 18.5036 134.165C19.1547 134.165 19.7199 134.07 20.1993 133.881C20.6846 133.691 21.0605 133.428 21.3268 133.09C21.5931 132.753 21.7263 132.365 21.7263 131.927C21.7263 131.519 21.605 131.176 21.3623 130.898C21.1256 130.619 20.7764 130.383 20.3147 130.187C19.859 129.992 19.2997 129.815 18.6368 129.655L16.657 129.158C15.1241 128.785 13.9138 128.202 13.026 127.409C12.1382 126.616 11.6973 125.547 11.7032 124.204C11.6973 123.103 11.9903 122.141 12.5821 121.318C13.1799 120.496 13.9996 119.854 15.0413 119.392C16.0829 118.93 17.2667 118.699 18.5924 118.699C19.9419 118.699 21.1196 118.93 22.1258 119.392C23.1379 119.854 23.925 120.496 24.4873 121.318C25.0496 122.141 25.3396 123.094 25.3573 124.177H21.673ZM34.8056 137.378C33.4798 137.378 32.2991 137.151 31.2633 136.695C30.2335 136.233 29.4197 135.6 28.8219 134.795C28.2301 133.984 27.9252 133.049 27.9075 131.99H31.7782C31.8019 132.434 31.9469 132.824 32.2132 133.161C32.4855 133.493 32.8465 133.75 33.2963 133.934C33.7462 134.117 34.2522 134.209 34.8145 134.209C35.4004 134.209 35.9183 134.105 36.3681 133.898C36.8179 133.691 37.17 133.404 37.4245 133.037C37.679 132.67 37.8063 132.247 37.8063 131.768C37.8063 131.282 37.6702 130.853 37.3979 130.48C37.1316 130.102 36.7469 129.806 36.2438 129.593C35.7466 129.38 35.1548 129.273 34.4682 129.273H32.7725V126.45H34.4682C35.0482 126.45 35.5602 126.349 36.0041 126.148C36.4539 125.947 36.8031 125.669 37.0517 125.313C37.3002 124.952 37.4245 124.532 37.4245 124.053C37.4245 123.597 37.315 123.198 37.0961 122.854C36.883 122.505 36.5811 122.233 36.1905 122.038C35.8058 121.842 35.356 121.745 34.8411 121.745C34.3203 121.745 33.8438 121.839 33.4118 122.029C32.9797 122.212 32.6335 122.476 32.373 122.819C32.1126 123.162 31.9735 123.565 31.9558 124.026H28.2715C28.2892 122.979 28.5881 122.055 29.1681 121.256C29.7482 120.457 30.5294 119.833 31.5119 119.383C32.5003 118.927 33.6159 118.699 34.8588 118.699C36.1136 118.699 37.2115 118.927 38.1525 119.383C39.0936 119.839 39.8245 120.454 40.3453 121.23C40.8721 121.999 41.1325 122.863 41.1266 123.822C41.1325 124.84 40.8159 125.689 40.1767 126.37C39.5434 127.051 38.7177 127.483 37.6998 127.666V127.808C39.0373 127.98 40.0553 128.444 40.7537 129.202C41.458 129.954 41.8072 130.895 41.8013 132.025C41.8072 133.061 41.5083 133.981 40.9047 134.786C40.3069 135.591 39.4812 136.224 38.4277 136.686C37.3742 137.148 36.1668 137.378 34.8056 137.378ZM48.1978 134.644L48.1001 135.621C48.0232 136.402 47.8752 137.18 47.6562 137.956C47.4432 138.737 47.2183 139.444 46.9815 140.077C46.7507 140.711 46.5643 141.208 46.4222 141.569H43.9719C44.0607 141.22 44.1821 140.731 44.3359 140.104C44.4898 139.483 44.6348 138.784 44.771 138.009C44.9071 137.233 44.9929 136.443 45.0284 135.638L45.0728 134.644H48.1978ZM58.1143 137.378C56.8596 137.378 55.741 137.148 54.7585 136.686C53.782 136.224 53.0066 135.588 52.4325 134.777C51.8584 133.966 51.5595 133.037 51.5359 131.99H55.2646C55.306 132.694 55.6019 133.265 56.1523 133.703C56.7028 134.141 57.3568 134.36 58.1143 134.36C58.718 134.36 59.2507 134.227 59.7124 133.96C60.1799 133.688 60.5439 133.312 60.8043 132.833C61.0707 132.348 61.2038 131.791 61.2038 131.164C61.2038 130.525 61.0677 129.963 60.7955 129.477C60.5291 128.992 60.1592 128.613 59.6857 128.341C59.2122 128.069 58.6707 127.929 58.0611 127.924C57.5284 127.924 57.0105 128.033 56.5075 128.252C56.0103 128.471 55.6226 128.77 55.3445 129.149L51.9265 128.536L52.7876 118.948H63.9027V122.091H55.957L55.4865 126.645H55.593C55.9126 126.195 56.395 125.822 57.0401 125.527C57.6853 125.231 58.4073 125.083 59.2063 125.083C60.3013 125.083 61.2778 125.34 62.136 125.855C62.9942 126.37 63.6719 127.077 64.169 127.977C64.6662 128.871 64.9118 129.9 64.9059 131.066C64.9118 132.291 64.6277 133.38 64.0536 134.333C63.4854 135.28 62.6894 136.026 61.6655 136.571C60.6475 137.109 59.4638 137.378 58.1143 137.378ZM75.4972 118.948V137.13H71.6531V122.597H71.5465L67.3828 125.207V121.798L71.8839 118.948H75.4972ZM86.539 137.378C85.2132 137.378 84.0325 137.151 82.9967 136.695C81.9669 136.233 81.1531 135.6 80.5553 134.795C79.9635 133.984 79.6586 133.049 79.6409 131.99H83.5116C83.5353 132.434 83.6803 132.824 83.9466 133.161C84.2189 133.493 84.5799 133.75 85.0297 133.934C85.4796 134.117 85.9856 134.209 86.5479 134.209C87.1338 134.209 87.6517 134.105 88.1015 133.898C88.5513 133.691 88.9034 133.404 89.1579 133.037C89.4124 132.67 89.5397 132.247 89.5397 131.768C89.5397 131.282 89.4036 130.853 89.1313 130.48C88.865 130.102 88.4803 129.806 87.9772 129.593C87.48 129.38 86.8882 129.273 86.2016 129.273H84.5059V126.45H86.2016C86.7816 126.45 87.2936 126.349 87.7375 126.148C88.1873 125.947 88.5365 125.669 88.7851 125.313C89.0336 124.952 89.1579 124.532 89.1579 124.053C89.1579 123.597 89.0484 123.198 88.8295 122.854C88.6164 122.505 88.3145 122.233 87.9239 122.038C87.5392 121.842 87.0894 121.745 86.5745 121.745C86.0537 121.745 85.5772 121.839 85.1452 122.029C84.7131 122.212 84.3669 122.476 84.1064 122.819C83.846 123.162 83.7069 123.565 83.6892 124.026H80.0049C80.0226 122.979 80.3215 122.055 80.9015 121.256C81.4816 120.457 82.2628 119.833 83.2453 119.383C84.2337 118.927 85.3493 118.699 86.5922 118.699C87.847 118.699 88.9449 118.927 89.8859 119.383C90.827 119.839 91.5579 120.454 92.0787 121.23C92.6055 121.999 92.8659 122.863 92.86 123.822C92.8659 124.84 92.5493 125.689 91.9101 126.37C91.2768 127.051 90.4511 127.483 89.4331 127.666V127.808C90.7707 127.98 91.7887 128.444 92.4871 129.202C93.1914 129.954 93.5406 130.895 93.5347 132.025C93.5406 133.061 93.2417 133.981 92.6381 134.786C92.0403 135.591 91.2146 136.224 90.1611 136.686C89.1076 137.148 87.9002 137.378 86.539 137.378ZM98.0313 137.361C97.4454 137.361 96.9423 137.154 96.5221 136.739C96.1078 136.319 95.9007 135.816 95.9007 135.23C95.9007 134.65 96.1078 134.153 96.5221 133.739C96.9423 133.324 97.4454 133.117 98.0313 133.117C98.5995 133.117 99.0967 133.324 99.5228 133.739C99.949 134.153 100.162 134.65 100.162 135.23C100.162 135.621 100.061 135.979 99.8602 136.304C99.6649 136.624 99.4074 136.881 99.0878 137.077C98.7682 137.266 98.416 137.361 98.0313 137.361ZM109.628 137.529C108.101 137.523 106.787 137.148 105.686 136.402C104.591 135.656 103.748 134.576 103.156 133.161C102.57 131.747 102.28 130.045 102.286 128.057C102.286 126.074 102.579 124.384 103.165 122.987C103.757 121.591 104.6 120.528 105.695 119.8C106.796 119.066 108.107 118.699 109.628 118.699C111.149 118.699 112.457 119.066 113.552 119.8C114.653 120.534 115.499 121.6 116.091 122.996C116.683 124.387 116.976 126.074 116.97 128.057C116.97 130.051 116.674 131.756 116.082 133.17C115.496 134.585 114.656 135.665 113.561 136.411C112.466 137.157 111.155 137.529 109.628 137.529ZM109.628 134.342C110.67 134.342 111.501 133.818 112.123 132.771C112.744 131.723 113.052 130.152 113.046 128.057C113.046 126.678 112.904 125.53 112.62 124.612C112.342 123.695 111.945 123.005 111.43 122.544C110.921 122.082 110.32 121.851 109.628 121.851C108.592 121.851 107.764 122.369 107.142 123.405C106.521 124.44 106.207 125.991 106.201 128.057C106.201 129.454 106.34 130.619 106.618 131.555C106.903 132.484 107.302 133.182 107.817 133.65C108.332 134.111 108.936 134.342 109.628 134.342ZM119.436 133.934V130.907L127.026 118.948H129.636V123.138H128.092L123.307 130.711V130.853H134.093V133.934H119.436ZM128.163 137.13V133.011L128.234 131.67V118.948H131.838V137.13H128.163ZM143.064 128.039C143.064 130.247 142.768 132.277 142.176 134.129C141.59 135.982 140.691 137.698 139.478 139.278H135.864C136.326 138.692 136.755 137.976 137.152 137.13C137.548 136.284 137.894 135.36 138.19 134.36C138.486 133.354 138.717 132.312 138.883 131.235C139.048 130.158 139.131 129.092 139.131 128.039C139.131 126.636 138.986 125.222 138.696 123.795C138.412 122.363 138.022 121.037 137.524 119.818C137.033 118.593 136.48 117.59 135.864 116.809H139.478C140.691 118.389 141.59 120.105 142.176 121.958C142.768 123.81 143.064 125.837 143.064 128.039Z" fill="#D90620"/>
<path d="M244.279 131.2V134.2H235.987V131.2H244.279ZM255.377 123.609V141.791H251.532V127.258H251.426L247.262 129.868V126.459L251.763 123.609H255.377ZM266.48 142.04C265.113 142.04 263.897 141.818 262.832 141.374C261.772 140.924 260.941 140.311 260.337 139.536C259.733 138.761 259.431 137.882 259.431 136.899C259.431 136.142 259.603 135.446 259.946 134.813C260.296 134.174 260.769 133.644 261.367 133.224C261.965 132.798 262.633 132.526 263.373 132.407V132.283C262.403 132.088 261.615 131.617 261.012 130.871C260.408 130.12 260.106 129.247 260.106 128.252C260.106 127.311 260.381 126.474 260.932 125.74C261.482 125 262.237 124.42 263.196 124C264.16 123.574 265.255 123.361 266.48 123.361C267.706 123.361 268.798 123.574 269.756 124C270.721 124.426 271.479 125.009 272.029 125.749C272.58 126.483 272.858 127.317 272.864 128.252C272.858 129.253 272.55 130.126 271.94 130.871C271.331 131.617 270.549 132.088 269.597 132.283V132.407C270.325 132.526 270.985 132.798 271.576 133.224C272.174 133.644 272.648 134.174 272.997 134.813C273.352 135.446 273.532 136.142 273.538 136.899C273.532 137.882 273.228 138.761 272.624 139.536C272.02 140.311 271.186 140.924 270.12 141.374C269.061 141.818 267.848 142.04 266.48 142.04ZM266.48 139.216C267.09 139.216 267.623 139.107 268.078 138.888C268.534 138.663 268.889 138.355 269.144 137.965C269.404 137.568 269.534 137.112 269.534 136.597C269.534 136.071 269.401 135.606 269.135 135.204C268.869 134.795 268.508 134.476 268.052 134.245C267.596 134.008 267.072 133.89 266.48 133.89C265.895 133.89 265.371 134.008 264.909 134.245C264.447 134.476 264.083 134.795 263.817 135.204C263.557 135.606 263.427 136.071 263.427 136.597C263.427 137.112 263.554 137.568 263.808 137.965C264.063 138.355 264.421 138.663 264.882 138.888C265.344 139.107 265.877 139.216 266.48 139.216ZM266.48 131.093C266.989 131.093 267.442 130.99 267.839 130.782C268.235 130.575 268.546 130.288 268.771 129.921C268.996 129.554 269.108 129.131 269.108 128.652C269.108 128.178 268.996 127.764 268.771 127.409C268.546 127.048 268.238 126.767 267.848 126.566C267.457 126.358 267.001 126.255 266.48 126.255C265.966 126.255 265.51 126.358 265.113 126.566C264.717 126.767 264.406 127.048 264.181 127.409C263.962 127.764 263.853 128.178 263.853 128.652C263.853 129.131 263.965 129.554 264.19 129.921C264.415 130.288 264.726 130.575 265.122 130.782C265.519 130.99 265.971 131.093 266.48 131.093ZM277.96 142.022C277.374 142.022 276.871 141.815 276.45 141.4C276.036 140.98 275.829 140.477 275.829 139.891C275.829 139.311 276.036 138.814 276.45 138.4C276.871 137.985 277.374 137.778 277.96 137.778C278.528 137.778 279.025 137.985 279.451 138.4C279.877 138.814 280.09 139.311 280.09 139.891C280.09 140.282 279.99 140.64 279.788 140.965C279.593 141.285 279.336 141.542 279.016 141.738C278.696 141.927 278.344 142.022 277.96 142.022ZM289.294 142.04C287.969 142.04 286.788 141.812 285.752 141.356C284.722 140.894 283.908 140.261 283.311 139.456C282.719 138.645 282.414 137.71 282.396 136.651H286.267C286.291 137.095 286.436 137.485 286.702 137.823C286.974 138.154 287.335 138.412 287.785 138.595C288.235 138.778 288.741 138.87 289.303 138.87C289.889 138.87 290.407 138.767 290.857 138.559C291.307 138.352 291.659 138.065 291.913 137.698C292.168 137.331 292.295 136.908 292.295 136.429C292.295 135.943 292.159 135.514 291.887 135.142C291.62 134.763 291.236 134.467 290.733 134.254C290.235 134.041 289.644 133.934 288.957 133.934H287.261V131.111H288.957C289.537 131.111 290.049 131.01 290.493 130.809C290.943 130.608 291.292 130.33 291.54 129.975C291.789 129.614 291.913 129.193 291.913 128.714C291.913 128.258 291.804 127.859 291.585 127.515C291.372 127.166 291.07 126.894 290.679 126.699C290.295 126.503 289.845 126.406 289.33 126.406C288.809 126.406 288.333 126.5 287.9 126.69C287.468 126.873 287.122 127.137 286.862 127.48C286.601 127.823 286.462 128.226 286.445 128.687H282.76C282.778 127.64 283.077 126.716 283.657 125.917C284.237 125.118 285.018 124.494 286.001 124.044C286.989 123.588 288.105 123.361 289.348 123.361C290.602 123.361 291.7 123.588 292.641 124.044C293.582 124.5 294.313 125.115 294.834 125.891C295.361 126.66 295.621 127.524 295.615 128.483C295.621 129.501 295.305 130.35 294.665 131.031C294.032 131.712 293.206 132.144 292.188 132.327V132.469C293.526 132.641 294.544 133.106 295.242 133.863C295.947 134.615 296.296 135.556 296.29 136.686C296.296 137.722 295.997 138.642 295.393 139.447C294.796 140.252 293.97 140.885 292.916 141.347C291.863 141.809 290.656 142.04 289.294 142.04ZM298.778 138.595V135.568L306.369 123.609H308.979V127.8H307.434L302.649 135.372V135.514H313.435V138.595H298.778ZM307.505 141.791V137.672L307.576 136.331V123.609H311.18V141.791H307.505ZM325.949 138.382V137.423C325.949 136.695 326.103 136.026 326.41 135.417C326.724 134.801 327.177 134.31 327.769 133.943C328.366 133.57 329.094 133.384 329.953 133.384C330.823 133.384 331.554 133.567 332.145 133.934C332.743 134.301 333.193 134.792 333.495 135.408C333.803 136.017 333.957 136.689 333.957 137.423V138.382C333.957 139.11 333.803 139.782 333.495 140.397C333.187 141.007 332.734 141.495 332.137 141.862C331.539 142.235 330.811 142.421 329.953 142.421C329.083 142.421 328.352 142.235 327.76 141.862C327.168 141.495 326.718 141.007 326.41 140.397C326.103 139.782 325.949 139.11 325.949 138.382ZM328.532 137.423V138.382C328.532 138.802 328.633 139.199 328.834 139.572C329.041 139.944 329.414 140.131 329.953 140.131C330.491 140.131 330.858 139.947 331.053 139.58C331.255 139.213 331.355 138.814 331.355 138.382V137.423C331.355 136.991 331.261 136.589 331.071 136.216C330.882 135.843 330.509 135.656 329.953 135.656C329.42 135.656 329.05 135.843 328.843 136.216C328.636 136.589 328.532 136.991 328.532 137.423ZM316.618 127.977V127.018C316.618 126.284 316.775 125.613 317.089 125.003C317.402 124.387 317.855 123.896 318.447 123.529C319.045 123.162 319.767 122.979 320.613 122.979C321.489 122.979 322.223 123.162 322.815 123.529C323.407 123.896 323.856 124.387 324.164 125.003C324.472 125.613 324.626 126.284 324.626 127.018V127.977C324.626 128.711 324.469 129.383 324.155 129.992C323.848 130.602 323.395 131.09 322.797 131.457C322.205 131.818 321.477 131.999 320.613 131.999C319.749 131.999 319.018 131.815 318.42 131.448C317.828 131.075 317.379 130.587 317.071 129.983C316.769 129.374 316.618 128.705 316.618 127.977ZM319.219 127.018V127.977C319.219 128.409 319.32 128.809 319.521 129.176C319.728 129.543 320.092 129.726 320.613 129.726C321.158 129.726 321.528 129.543 321.723 129.176C321.924 128.809 322.025 128.409 322.025 127.977V127.018C322.025 126.586 321.93 126.184 321.741 125.811C321.551 125.438 321.175 125.252 320.613 125.252C320.086 125.252 319.722 125.441 319.521 125.82C319.32 126.199 319.219 126.598 319.219 127.018ZM317.79 141.791L330.29 123.609H332.616L320.116 141.791H317.79Z" fill="#D90620"/>
<path d="M2.34375 190.019C2.34375 187.818 2.63672 185.791 3.22266 183.938C3.81451 182.086 4.71709 180.369 5.9304 178.789H9.54368C9.08203 179.375 8.65294 180.091 8.25639 180.937C7.85985 181.778 7.51361 182.701 7.21769 183.707C6.92176 184.713 6.69093 185.755 6.52521 186.832C6.35949 187.904 6.27663 188.966 6.27663 190.019C6.27663 191.422 6.41868 192.84 6.70277 194.272C6.99278 195.698 7.3834 197.024 7.87465 198.249C8.3718 199.474 8.92815 200.478 9.54368 201.259H5.9304C4.71709 199.679 3.81451 197.962 3.22266 196.11C2.63672 194.257 2.34375 192.227 2.34375 190.019ZM17.8112 201.383V178.656H19.2671V201.383H17.8112ZM21.673 186.158C21.602 185.441 21.2972 184.885 20.7586 184.489C20.22 184.092 19.4891 183.894 18.5658 183.894C17.9384 183.894 17.4087 183.983 16.9767 184.16C16.5446 184.332 16.2132 184.571 15.9823 184.879C15.7574 185.187 15.645 185.536 15.645 185.927C15.6331 186.252 15.7012 186.536 15.8492 186.779C16.003 187.022 16.2132 187.232 16.4795 187.409C16.7458 187.581 17.0536 187.732 17.4028 187.862C17.752 187.986 18.1249 188.093 18.5214 188.182L20.1549 188.572C20.948 188.75 21.676 188.987 22.3389 189.283C23.0017 189.579 23.5758 189.943 24.0612 190.375C24.5465 190.807 24.9223 191.316 25.1887 191.902C25.4609 192.487 25.6 193.159 25.6059 193.917C25.6 195.03 25.3159 195.994 24.7536 196.811C24.1973 197.622 23.3924 198.252 22.3389 198.702C21.2913 199.146 20.0277 199.368 18.548 199.368C17.0802 199.368 15.8018 199.143 14.7128 198.693C13.6297 198.243 12.7834 197.577 12.1737 196.696C11.57 195.808 11.2534 194.71 11.2238 193.402H14.9436C14.9851 194.012 15.1597 194.521 15.4674 194.929C15.7811 195.331 16.1984 195.636 16.7192 195.843C17.2459 196.045 17.8408 196.145 18.5036 196.145C19.1547 196.145 19.7199 196.05 20.1993 195.861C20.6846 195.672 21.0605 195.408 21.3268 195.071C21.5931 194.734 21.7263 194.346 21.7263 193.908C21.7263 193.5 21.605 193.156 21.3623 192.878C21.1256 192.6 20.7764 192.363 20.3147 192.168C19.859 191.973 19.2997 191.795 18.6368 191.635L16.657 191.138C15.1241 190.765 13.9138 190.182 13.026 189.389C12.1382 188.596 11.6973 187.528 11.7032 186.184C11.6973 185.083 11.9903 184.122 12.5821 183.299C13.1799 182.476 13.9996 181.834 15.0413 181.372C16.0829 180.911 17.2667 180.68 18.5924 180.68C19.9419 180.68 21.1196 180.911 22.1258 181.372C23.1379 181.834 23.925 182.476 24.4873 183.299C25.0496 184.122 25.3396 185.074 25.3573 186.158H21.673ZM28.085 199.11V196.34L34.557 190.348C35.1074 189.815 35.5691 189.336 35.9419 188.91C36.3207 188.484 36.6078 188.066 36.8031 187.658C36.9984 187.244 37.0961 186.797 37.0961 186.317C37.0961 185.785 36.9747 185.326 36.7321 184.941C36.4894 184.551 36.158 184.252 35.7377 184.045C35.3175 183.832 34.8411 183.725 34.3084 183.725C33.7521 183.725 33.2667 183.838 32.8525 184.062C32.4382 184.287 32.1185 184.61 31.8936 185.03C31.6687 185.45 31.5563 185.95 31.5563 186.53H27.9075C27.9075 185.341 28.1768 184.308 28.7154 183.432C29.254 182.556 30.0086 181.878 30.9792 181.399C31.9499 180.92 33.0685 180.68 34.335 180.68C35.6371 180.68 36.7705 180.911 37.7353 181.372C38.7059 181.828 39.4605 182.461 39.9991 183.272C40.5377 184.083 40.807 185.012 40.807 186.06C40.807 186.746 40.6709 187.424 40.3986 188.093C40.1323 188.762 39.6558 189.505 38.9693 190.321C38.2827 191.132 37.315 192.106 36.0662 193.242L33.4118 195.843V195.968H41.0467V199.11H28.085ZM47.9781 196.625L47.8804 197.601C47.8035 198.382 47.6555 199.161 47.4365 199.936C47.2235 200.717 46.9986 201.425 46.7618 202.058C46.531 202.691 46.3445 203.188 46.2025 203.549H43.7522C43.841 203.2 43.9623 202.712 44.1162 202.084C44.2701 201.463 44.4151 200.765 44.5512 199.989C44.6874 199.214 44.7732 198.424 44.8087 197.619L44.8531 196.625H47.9781ZM57.0401 180.929V199.11H53.196V184.577H53.0895L48.9258 187.187V183.778L53.4268 180.929H57.0401ZM61.0862 195.914V192.887L68.6768 180.929H71.2868V185.119H69.7421L64.9569 192.692V192.834H75.7435V195.914H61.0862ZM69.8131 199.11V194.991L69.8841 193.65V180.929H73.4885V199.11H69.8131ZM78.0296 195.914V192.887L85.6201 180.929H88.2302V185.119H86.6855L81.9003 192.692V192.834H92.6869V195.914H78.0296ZM86.7565 199.11V194.991L86.8275 193.65V180.929H90.4319V199.11H86.7565ZM97.1524 199.341C96.5665 199.341 96.0634 199.134 95.6432 198.72C95.2289 198.3 95.0218 197.796 95.0218 197.21C95.0218 196.63 95.2289 196.133 95.6432 195.719C96.0634 195.305 96.5665 195.098 97.1524 195.098C97.7206 195.098 98.2178 195.305 98.6439 195.719C99.07 196.133 99.2831 196.63 99.2831 197.21C99.2831 197.601 99.1825 197.959 98.9813 198.285C98.786 198.604 98.5285 198.862 98.2089 199.057C97.8893 199.246 97.5371 199.341 97.1524 199.341ZM108.749 199.51C107.222 199.504 105.908 199.128 104.807 198.382C103.712 197.637 102.869 196.556 102.277 195.142C101.691 193.727 101.401 192.026 101.407 190.037C101.407 188.054 101.7 186.365 102.286 184.968C102.878 183.571 103.721 182.509 104.816 181.781C105.917 181.047 107.228 180.68 108.749 180.68C110.27 180.68 111.578 181.047 112.673 181.781C113.774 182.515 114.62 183.58 115.212 184.977C115.804 186.368 116.097 188.054 116.091 190.037C116.091 192.032 115.795 193.736 115.203 195.151C114.617 196.565 113.777 197.646 112.682 198.391C111.587 199.137 110.276 199.51 108.749 199.51ZM108.749 196.323C109.791 196.323 110.622 195.799 111.244 194.751C111.865 193.704 112.173 192.132 112.167 190.037C112.167 188.658 112.025 187.51 111.741 186.593C111.463 185.675 111.066 184.986 110.551 184.524C110.042 184.062 109.442 183.832 108.749 183.832C107.713 183.832 106.885 184.349 106.263 185.385C105.642 186.421 105.328 187.972 105.322 190.037C105.322 191.434 105.461 192.6 105.74 193.535C106.024 194.464 106.423 195.163 106.938 195.63C107.453 196.092 108.057 196.323 108.749 196.323ZM125.961 199.51C124.434 199.504 123.12 199.128 122.019 198.382C120.924 197.637 120.081 196.556 119.489 195.142C118.903 193.727 118.613 192.026 118.619 190.037C118.619 188.054 118.912 186.365 119.498 184.968C120.09 183.571 120.933 182.509 122.028 181.781C123.129 181.047 124.44 180.68 125.961 180.68C127.482 180.68 128.79 181.047 129.885 181.781C130.986 182.515 131.832 183.58 132.424 184.977C133.016 186.368 133.309 188.054 133.303 190.037C133.303 192.032 133.007 193.736 132.415 195.151C131.829 196.565 130.989 197.646 129.894 198.391C128.799 199.137 127.488 199.51 125.961 199.51ZM125.961 196.323C127.003 196.323 127.834 195.799 128.456 194.751C129.077 193.704 129.385 192.132 129.379 190.037C129.379 188.658 129.237 187.51 128.953 186.593C128.675 185.675 128.278 184.986 127.763 184.524C127.254 184.062 126.653 183.832 125.961 183.832C124.925 183.832 124.097 184.349 123.475 185.385C122.854 186.421 122.54 187.972 122.534 190.037C122.534 191.434 122.673 192.6 122.951 193.535C123.236 194.464 123.635 195.163 124.15 195.63C124.665 196.092 125.269 196.323 125.961 196.323ZM142.454 190.019C142.454 192.227 142.158 194.257 141.566 196.11C140.98 197.962 140.08 199.679 138.867 201.259H135.254C135.716 200.673 136.145 199.957 136.541 199.11C136.938 198.264 137.284 197.341 137.58 196.34C137.876 195.334 138.107 194.293 138.272 193.215C138.438 192.138 138.521 191.073 138.521 190.019C138.521 188.617 138.376 187.202 138.086 185.776C137.802 184.344 137.411 183.018 136.914 181.799C136.423 180.573 135.869 179.57 135.254 178.789H138.867C140.08 180.369 140.98 182.086 141.566 183.938C142.158 185.791 142.454 187.818 142.454 190.019Z" fill="#D90620"/>
<path d="M258.586 193.178V196.179H250.294V193.178H258.586ZM268.556 204.018C267.188 204.018 265.972 203.796 264.907 203.352C263.847 202.902 263.016 202.29 262.412 201.515C261.809 200.739 261.507 199.86 261.507 198.878C261.507 198.12 261.678 197.425 262.022 196.792C262.371 196.152 262.844 195.623 263.442 195.202C264.04 194.776 264.709 194.504 265.448 194.386V194.261C264.478 194.066 263.691 193.596 263.087 192.85C262.483 192.098 262.181 191.225 262.181 190.231C262.181 189.29 262.457 188.452 263.007 187.718C263.557 186.979 264.312 186.399 265.271 185.978C266.236 185.552 267.331 185.339 268.556 185.339C269.781 185.339 270.873 185.552 271.832 185.978C272.796 186.404 273.554 186.987 274.104 187.727C274.655 188.461 274.933 189.296 274.939 190.231C274.933 191.231 274.625 192.104 274.016 192.85C273.406 193.596 272.625 194.066 271.672 194.261V194.386C272.4 194.504 273.06 194.776 273.652 195.202C274.249 195.623 274.723 196.152 275.072 196.792C275.427 197.425 275.608 198.12 275.614 198.878C275.608 199.86 275.303 200.739 274.699 201.515C274.095 202.29 273.261 202.902 272.196 203.352C271.136 203.796 269.923 204.018 268.556 204.018ZM268.556 201.195C269.165 201.195 269.698 201.085 270.154 200.866C270.609 200.642 270.965 200.334 271.219 199.943C271.479 199.547 271.61 199.091 271.61 198.576C271.61 198.049 271.476 197.585 271.21 197.182C270.944 196.774 270.583 196.454 270.127 196.223C269.671 195.987 269.148 195.868 268.556 195.868C267.97 195.868 267.446 195.987 266.984 196.223C266.523 196.454 266.159 196.774 265.892 197.182C265.632 197.585 265.502 198.049 265.502 198.576C265.502 199.091 265.629 199.547 265.883 199.943C266.138 200.334 266.496 200.642 266.958 200.866C267.419 201.085 267.952 201.195 268.556 201.195ZM268.556 193.072C269.065 193.072 269.517 192.968 269.914 192.761C270.311 192.554 270.621 192.267 270.846 191.9C271.071 191.533 271.184 191.11 271.184 190.63C271.184 190.157 271.071 189.743 270.846 189.387C270.621 189.026 270.313 188.745 269.923 188.544C269.532 188.337 269.077 188.233 268.556 188.233C268.041 188.233 267.585 188.337 267.188 188.544C266.792 188.745 266.481 189.026 266.256 189.387C266.037 189.743 265.928 190.157 265.928 190.63C265.928 191.11 266.04 191.533 266.265 191.9C266.49 192.267 266.801 192.554 267.197 192.761C267.594 192.968 268.047 193.072 268.556 193.072ZM280.035 204C279.449 204 278.946 203.793 278.525 203.379C278.111 202.959 277.904 202.456 277.904 201.87C277.904 201.29 278.111 200.792 278.525 200.378C278.946 199.964 279.449 199.757 280.035 199.757C280.603 199.757 281.1 199.964 281.526 200.378C281.952 200.792 282.165 201.29 282.165 201.87C282.165 202.26 282.065 202.618 281.864 202.944C281.668 203.263 281.411 203.521 281.091 203.716C280.772 203.906 280.419 204 280.035 204ZM291.37 204.018C290.044 204.018 288.863 203.79 287.827 203.335C286.797 202.873 285.984 202.24 285.386 201.435C284.794 200.624 284.489 199.689 284.471 198.629H288.342C288.366 199.073 288.511 199.464 288.777 199.801C289.049 200.133 289.41 200.39 289.86 200.574C290.31 200.757 290.816 200.849 291.378 200.849C291.964 200.849 292.482 200.745 292.932 200.538C293.382 200.331 293.734 200.044 293.988 199.677C294.243 199.31 294.37 198.887 294.37 198.407C294.37 197.922 294.234 197.493 293.962 197.12C293.696 196.741 293.311 196.445 292.808 196.232C292.311 196.019 291.719 195.913 291.032 195.913H289.336V193.089H291.032C291.612 193.089 292.124 192.989 292.568 192.788C293.018 192.586 293.367 192.308 293.616 191.953C293.864 191.592 293.988 191.172 293.988 190.692C293.988 190.237 293.879 189.837 293.66 189.494C293.447 189.145 293.145 188.873 292.754 188.677C292.37 188.482 291.92 188.384 291.405 188.384C290.884 188.384 290.408 188.479 289.976 188.668C289.544 188.852 289.197 189.115 288.937 189.458C288.677 189.802 288.537 190.204 288.52 190.666H284.835C284.853 189.618 285.152 188.695 285.732 187.896C286.312 187.097 287.093 186.473 288.076 186.023C289.064 185.567 290.18 185.339 291.423 185.339C292.678 185.339 293.775 185.567 294.716 186.023C295.658 186.478 296.388 187.094 296.909 187.869C297.436 188.639 297.696 189.503 297.691 190.462C297.696 191.48 297.38 192.329 296.741 193.01C296.107 193.69 295.282 194.122 294.264 194.306V194.448C295.601 194.619 296.619 195.084 297.318 195.842C298.022 196.593 298.371 197.534 298.365 198.665C298.371 199.701 298.072 200.621 297.469 201.426C296.871 202.231 296.045 202.864 294.992 203.326C293.938 203.787 292.731 204.018 291.37 204.018ZM301.848 203.77L309.385 188.855V188.73H300.605V185.588H313.362V188.775L305.816 203.77H301.848ZM325.949 200.36V199.402C325.949 198.674 326.103 198.005 326.41 197.395C326.724 196.78 327.177 196.288 327.769 195.922C328.366 195.549 329.094 195.362 329.953 195.362C330.823 195.362 331.554 195.546 332.145 195.913C332.743 196.28 333.193 196.771 333.495 197.386C333.803 197.996 333.957 198.668 333.957 199.402V200.36C333.957 201.088 333.803 201.76 333.495 202.376C333.187 202.985 332.734 203.474 332.137 203.841C331.539 204.213 330.811 204.4 329.953 204.4C329.083 204.4 328.352 204.213 327.76 203.841C327.168 203.474 326.718 202.985 326.41 202.376C326.103 201.76 325.949 201.088 325.949 200.36ZM328.532 199.402V200.36C328.532 200.781 328.633 201.177 328.834 201.55C329.041 201.923 329.414 202.109 329.953 202.109C330.491 202.109 330.858 201.926 331.053 201.559C331.255 201.192 331.355 200.792 331.355 200.36V199.402C331.355 198.97 331.261 198.567 331.071 198.194C330.882 197.821 330.509 197.635 329.953 197.635C329.42 197.635 329.05 197.821 328.843 198.194C328.636 198.567 328.532 198.97 328.532 199.402ZM316.618 189.956V188.997C316.618 188.263 316.775 187.591 317.089 186.982C317.402 186.366 317.855 185.875 318.447 185.508C319.045 185.141 319.767 184.957 320.613 184.957C321.489 184.957 322.223 185.141 322.815 185.508C323.407 185.875 323.856 186.366 324.164 186.982C324.472 187.591 324.626 188.263 324.626 188.997V189.956C324.626 190.69 324.469 191.361 324.155 191.971C323.848 192.58 323.395 193.069 322.797 193.436C322.205 193.797 321.477 193.977 320.613 193.977C319.749 193.977 319.018 193.794 318.42 193.427C317.828 193.054 317.379 192.566 317.071 191.962C316.769 191.352 316.618 190.684 316.618 189.956ZM319.219 188.997V189.956C319.219 190.388 319.32 190.787 319.521 191.154C319.728 191.521 320.092 191.705 320.613 191.705C321.158 191.705 321.528 191.521 321.723 191.154C321.924 190.787 322.025 190.388 322.025 189.956V188.997C322.025 188.565 321.93 188.162 321.741 187.789C321.551 187.417 321.175 187.23 320.613 187.23C320.086 187.23 319.722 187.42 319.521 187.798C319.32 188.177 319.219 188.577 319.219 188.997ZM317.79 203.77L330.29 185.588H332.616L320.116 203.77H317.79Z" fill="#D90620"/>
<path d="M2.34375 251.998C2.34375 249.796 2.63672 247.769 3.22266 245.917C3.81451 244.064 4.71709 242.348 5.9304 240.767H9.54368C9.08203 241.353 8.65294 242.07 8.25639 242.916C7.85985 243.756 7.51361 244.68 7.21769 245.686C6.92176 246.692 6.69093 247.734 6.52521 248.811C6.35949 249.882 6.27663 250.944 6.27663 251.998C6.27663 253.401 6.41868 254.818 6.70277 256.25C6.99278 257.677 7.3834 259.003 7.87465 260.228C8.3718 261.453 8.92815 262.456 9.54368 263.237H5.9304C4.71709 261.657 3.81451 259.941 3.22266 258.088C2.63672 256.236 2.34375 254.206 2.34375 251.998ZM17.8112 263.362V240.634H19.2671V263.362H17.8112ZM21.673 248.136C21.602 247.42 21.2972 246.864 20.7586 246.467C20.22 246.071 19.4891 245.872 18.5658 245.872C17.9384 245.872 17.4087 245.961 16.9767 246.139C16.5446 246.31 16.2132 246.55 15.9823 246.858C15.7574 247.165 15.645 247.515 15.645 247.905C15.6331 248.231 15.7012 248.515 15.8492 248.758C16.003 249 16.2132 249.21 16.4795 249.388C16.7458 249.56 17.0536 249.71 17.4028 249.841C17.752 249.965 18.1249 250.071 18.5214 250.16L20.1549 250.551C20.948 250.728 21.676 250.965 22.3389 251.261C23.0017 251.557 23.5758 251.921 24.0612 252.353C24.5465 252.785 24.9223 253.294 25.1887 253.88C25.4609 254.466 25.6 255.138 25.6059 255.895C25.6 257.008 25.3159 257.973 24.7536 258.79C24.1973 259.6 23.3924 260.231 22.3389 260.68C21.2913 261.124 20.0277 261.346 18.548 261.346C17.0802 261.346 15.8018 261.121 14.7128 260.672C13.6297 260.222 12.7834 259.556 12.1737 258.674C11.57 257.786 11.2534 256.688 11.2238 255.38H14.9436C14.9851 255.99 15.1597 256.499 15.4674 256.907C15.7811 257.31 16.1984 257.615 16.7192 257.822C17.2459 258.023 17.8408 258.124 18.5036 258.124C19.1547 258.124 19.7199 258.029 20.1993 257.84C20.6846 257.65 21.0605 257.387 21.3268 257.049C21.5931 256.712 21.7263 256.324 21.7263 255.886C21.7263 255.478 21.605 255.135 21.3623 254.857C21.1256 254.578 20.7764 254.342 20.3147 254.146C19.859 253.951 19.2997 253.774 18.6368 253.614L16.657 253.117C15.1241 252.744 13.9138 252.161 13.026 251.368C12.1382 250.575 11.6973 249.506 11.7032 248.163C11.6973 247.062 11.9903 246.1 12.5821 245.277C13.1799 244.455 13.9996 243.813 15.0413 243.351C16.0829 242.889 17.2667 242.658 18.5924 242.658C19.9419 242.658 21.1196 242.889 22.1258 243.351C23.1379 243.813 23.925 244.455 24.4873 245.277C25.0496 246.1 25.3396 247.053 25.3573 248.136H21.673ZM35.9952 242.907V261.089H32.1511V246.556H32.0446L27.8809 249.166V245.757L32.3819 242.907H35.9952ZM43.4859 258.603L43.3882 259.58C43.3113 260.361 43.1633 261.139 42.9443 261.915C42.7313 262.696 42.5064 263.403 42.2696 264.036C42.0388 264.67 41.8524 265.167 41.7103 265.528H39.26C39.3488 265.179 39.4701 264.69 39.624 264.063C39.7779 263.441 39.9229 262.743 40.059 261.968C40.1952 261.192 40.281 260.402 40.3165 259.597L40.3609 258.603H43.4859ZM53.4024 261.337C52.1477 261.337 51.0291 261.107 50.0466 260.645C49.07 260.183 48.2947 259.547 47.7206 258.736C47.1465 257.925 46.8476 256.996 46.824 255.949H50.5526C50.5941 256.653 50.89 257.224 51.4404 257.662C51.9909 258.1 52.6449 258.319 53.4024 258.319C54.0061 258.319 54.5388 258.186 55.0004 257.919C55.468 257.647 55.832 257.271 56.0924 256.792C56.3588 256.307 56.4919 255.75 56.4919 255.123C56.4919 254.484 56.3558 253.921 56.0835 253.436C55.8172 252.951 55.4473 252.572 54.9738 252.3C54.5003 252.028 53.9588 251.888 53.3492 251.883C52.8165 251.883 52.2986 251.992 51.7955 252.211C51.2984 252.43 50.9107 252.729 50.6325 253.108L47.2146 252.495L48.0757 242.907H59.1908V246.05H51.2451L50.7746 250.604H50.8811C51.2007 250.154 51.6831 249.781 52.3282 249.486C52.9733 249.19 53.6954 249.042 54.4944 249.042C55.5893 249.042 56.5659 249.299 57.4241 249.814C58.2823 250.329 58.96 251.036 59.4571 251.936C59.9543 252.83 60.1999 253.859 60.194 255.025C60.1999 256.25 59.9158 257.339 59.3417 258.292C58.7735 259.239 57.9775 259.985 56.9536 260.53C55.9356 261.068 54.7519 261.337 53.4024 261.337ZM62.5999 257.893V254.866L70.1904 242.907H72.8005V247.097H71.2558L66.4706 254.67V254.812H77.2572V257.893H62.5999ZM71.3268 261.089V256.97L71.3978 255.629V242.907H75.0022V261.089H71.3268ZM80.5376 261.089L88.0748 246.174V246.05H79.2947V242.907H92.0521V246.094L84.5059 261.089H80.5376ZM93.8077 261.32C93.2218 261.32 92.7187 261.113 92.2985 260.698C91.8842 260.278 91.677 259.775 91.677 259.189C91.677 258.609 91.8842 258.112 92.2985 257.698C92.7187 257.283 93.2218 257.076 93.8077 257.076C94.3759 257.076 94.873 257.283 95.2992 257.698C95.7253 258.112 95.9384 258.609 95.9384 259.189C95.9384 259.58 95.8378 259.938 95.6365 260.263C95.4412 260.583 95.1838 260.84 94.8642 261.036C94.5446 261.225 94.1924 261.32 93.8077 261.32ZM105.253 261.337C104.318 261.332 103.416 261.175 102.546 260.867C101.682 260.559 100.906 260.059 100.22 259.367C99.5332 258.674 98.9887 257.757 98.5862 256.614C98.1897 255.472 97.9914 254.069 97.9914 252.406C97.9973 250.879 98.1719 249.515 98.5152 248.314C98.8644 247.106 99.3615 246.082 100.007 245.242C100.658 244.401 101.436 243.762 102.342 243.324C103.247 242.88 104.262 242.658 105.387 242.658C106.6 242.658 107.671 242.895 108.6 243.369C109.53 243.836 110.275 244.473 110.838 245.277C111.406 246.082 111.749 246.985 111.867 247.985H108.077C107.929 247.352 107.618 246.855 107.144 246.494C106.671 246.133 106.085 245.952 105.387 245.952C104.203 245.952 103.303 246.467 102.688 247.497C102.078 248.527 101.767 249.926 101.756 251.696H101.88C102.152 251.158 102.519 250.699 102.981 250.32C103.448 249.935 103.978 249.642 104.57 249.441C105.168 249.234 105.798 249.13 106.461 249.13C107.538 249.13 108.497 249.385 109.337 249.894C110.178 250.397 110.841 251.089 111.326 251.971C111.811 252.853 112.054 253.862 112.054 254.999C112.054 256.23 111.767 257.325 111.193 258.283C110.625 259.242 109.829 259.994 108.805 260.538C107.787 261.077 106.603 261.343 105.253 261.337ZM105.236 258.319C105.828 258.319 106.357 258.177 106.825 257.893C107.292 257.609 107.659 257.224 107.926 256.739C108.192 256.253 108.325 255.709 108.325 255.105C108.325 254.502 108.192 253.96 107.926 253.481C107.665 253.001 107.304 252.619 106.843 252.335C106.381 252.051 105.854 251.909 105.262 251.909C104.818 251.909 104.407 251.992 104.028 252.158C103.655 252.323 103.327 252.554 103.043 252.85C102.765 253.146 102.546 253.489 102.386 253.88C102.226 254.265 102.146 254.676 102.146 255.114C102.146 255.7 102.279 256.236 102.546 256.721C102.818 257.206 103.185 257.594 103.647 257.884C104.114 258.174 104.644 258.319 105.236 258.319ZM115.498 261.089L123.036 246.174V246.05H114.256V242.907H127.013V246.094L119.467 261.089H115.498ZM136.057 251.998C136.057 254.206 135.761 256.236 135.17 258.088C134.584 259.941 133.684 261.657 132.471 263.237H128.857C129.319 262.651 129.748 261.935 130.145 261.089C130.541 260.243 130.887 259.319 131.183 258.319C131.479 257.313 131.71 256.271 131.876 255.194C132.042 254.117 132.124 253.051 132.124 251.998C132.124 250.595 131.979 249.181 131.689 247.754C131.405 246.322 131.015 244.996 130.518 243.777C130.026 242.552 129.473 241.549 128.857 240.767H132.471C133.684 242.348 134.584 244.064 135.17 245.917C135.761 247.769 136.057 249.796 136.057 251.998Z" fill="#D90620"/>
<path d="M248.063 255.159V258.159H239.771V255.159H248.063ZM259.161 247.568V265.75H255.317V251.217H255.21L251.046 253.827V250.418L255.547 247.568H259.161ZM270.123 265.999C268.868 265.999 267.749 265.768 266.767 265.306C265.79 264.844 265.015 264.208 264.441 263.397C263.867 262.587 263.568 261.657 263.544 260.61H267.273C267.314 261.314 267.61 261.885 268.161 262.323C268.711 262.761 269.365 262.98 270.123 262.98C270.726 262.98 271.259 262.847 271.721 262.581C272.188 262.308 272.552 261.933 272.813 261.453C273.079 260.968 273.212 260.411 273.212 259.784C273.212 259.145 273.076 258.583 272.804 258.097C272.537 257.612 272.167 257.233 271.694 256.961C271.221 256.689 270.679 256.55 270.069 256.544C269.537 256.544 269.019 256.653 268.516 256.872C268.019 257.091 267.631 257.39 267.353 257.769L263.935 257.156L264.796 247.568H275.911V250.711H267.965L267.495 255.265H267.601C267.921 254.815 268.403 254.443 269.048 254.147C269.694 253.851 270.416 253.703 271.215 253.703C272.31 253.703 273.286 253.96 274.144 254.475C275.002 254.99 275.68 255.697 276.177 256.597C276.674 257.491 276.92 258.52 276.914 259.686C276.92 260.912 276.636 262.001 276.062 262.953C275.494 263.9 274.698 264.646 273.674 265.191C272.656 265.729 271.472 265.999 270.123 265.999ZM281.255 265.981C280.669 265.981 280.166 265.774 279.746 265.359C279.332 264.939 279.125 264.436 279.125 263.85C279.125 263.27 279.332 262.773 279.746 262.359C280.166 261.944 280.669 261.737 281.255 261.737C281.824 261.737 282.321 261.944 282.747 262.359C283.173 262.773 283.386 263.27 283.386 263.85C283.386 264.241 283.285 264.599 283.084 264.924C282.889 265.244 282.631 265.501 282.312 265.697C281.992 265.886 281.64 265.981 281.255 265.981ZM286.491 265.75L294.028 250.835V250.711H285.248V247.568H298.006V250.755L290.46 265.75H286.491ZM301.848 265.75L309.385 250.835V250.711H300.605V247.568H313.362V250.755L305.816 265.75H301.848ZM325.949 262.341V261.382C325.949 260.654 326.103 259.985 326.41 259.376C326.724 258.76 327.177 258.269 327.769 257.902C328.366 257.529 329.094 257.343 329.953 257.343C330.823 257.343 331.554 257.526 332.145 257.893C332.743 258.26 333.193 258.751 333.495 259.367C333.803 259.976 333.957 260.648 333.957 261.382V262.341C333.957 263.069 333.803 263.741 333.495 264.356C333.187 264.966 332.734 265.454 332.137 265.821C331.539 266.194 330.811 266.38 329.953 266.38C329.083 266.38 328.352 266.194 327.76 265.821C327.168 265.454 326.718 264.966 326.41 264.356C326.103 263.741 325.949 263.069 325.949 262.341ZM328.532 261.382V262.341C328.532 262.761 328.633 263.158 328.834 263.531C329.041 263.903 329.414 264.09 329.953 264.09C330.491 264.09 330.858 263.906 331.053 263.539C331.255 263.172 331.355 262.773 331.355 262.341V261.382C331.355 260.95 331.261 260.548 331.071 260.175C330.882 259.802 330.509 259.615 329.953 259.615C329.42 259.615 329.05 259.802 328.843 260.175C328.636 260.548 328.532 260.95 328.532 261.382ZM316.618 251.936V250.977C316.618 250.243 316.775 249.572 317.089 248.962C317.402 248.346 317.855 247.855 318.447 247.488C319.045 247.121 319.767 246.938 320.613 246.938C321.489 246.938 322.223 247.121 322.815 247.488C323.407 247.855 323.856 248.346 324.164 248.962C324.472 249.572 324.626 250.243 324.626 250.977V251.936C324.626 252.67 324.469 253.342 324.155 253.951C323.848 254.561 323.395 255.049 322.797 255.416C322.205 255.777 321.477 255.958 320.613 255.958C319.749 255.958 319.018 255.774 318.42 255.407C317.828 255.034 317.379 254.546 317.071 253.942C316.769 253.333 316.618 252.664 316.618 251.936ZM319.219 250.977V251.936C319.219 252.368 319.32 252.768 319.521 253.135C319.728 253.502 320.092 253.685 320.613 253.685C321.158 253.685 321.528 253.502 321.723 253.135C321.924 252.768 322.025 252.368 322.025 251.936V250.977C322.025 250.545 321.93 250.143 321.741 249.77C321.551 249.397 321.175 249.211 320.613 249.211C320.086 249.211 319.722 249.4 319.521 249.779C319.32 250.158 319.219 250.557 319.219 250.977ZM317.79 265.75L330.29 247.568H332.616L320.116 265.75H317.79Z" fill="#D90620"/>
<path d="M2.34375 313.978C2.34375 311.777 2.63672 309.75 3.22266 307.897C3.81451 306.045 4.71709 304.328 5.9304 302.748H9.54368C9.08203 303.334 8.65294 304.05 8.25639 304.896C7.85985 305.737 7.51361 306.66 7.21769 307.666C6.92176 308.672 6.69093 309.714 6.52521 310.791C6.35949 311.863 6.27663 312.925 6.27663 313.978C6.27663 315.381 6.41868 316.799 6.70277 318.231C6.99278 319.657 7.3834 320.983 7.87465 322.208C8.3718 323.433 8.92815 324.437 9.54368 325.218H5.9304C4.71709 323.638 3.81451 321.921 3.22266 320.069C2.63672 318.216 2.34375 316.186 2.34375 313.978ZM17.8112 325.342V302.615H19.2671V325.342H17.8112ZM21.673 310.117C21.602 309.4 21.2972 308.844 20.7586 308.448C20.22 308.051 19.4891 307.853 18.5658 307.853C17.9384 307.853 17.4087 307.941 16.9767 308.119C16.5446 308.291 16.2132 308.53 15.9823 308.838C15.7574 309.146 15.645 309.495 15.645 309.886C15.6331 310.211 15.7012 310.495 15.8492 310.738C16.003 310.981 16.2132 311.191 16.4795 311.368C16.7458 311.54 17.0536 311.691 17.4028 311.821C17.752 311.945 18.1249 312.052 18.5214 312.141L20.1549 312.531C20.948 312.709 21.676 312.946 22.3389 313.242C23.0017 313.537 23.5758 313.901 24.0612 314.334C24.5465 314.766 24.9223 315.275 25.1887 315.861C25.4609 316.446 25.6 317.118 25.6059 317.876C25.6 318.988 25.3159 319.953 24.7536 320.77C24.1973 321.581 23.3924 322.211 22.3389 322.661C21.2913 323.105 20.0277 323.327 18.548 323.327C17.0802 323.327 15.8018 323.102 14.7128 322.652C13.6297 322.202 12.7834 321.536 12.1737 320.655C11.57 319.767 11.2534 318.669 11.2238 317.361H14.9436C14.9851 317.97 15.1597 318.479 15.4674 318.888C15.7811 319.29 16.1984 319.595 16.7192 319.802C17.2459 320.004 17.8408 320.104 18.5036 320.104C19.1547 320.104 19.7199 320.009 20.1993 319.82C20.6846 319.631 21.0605 319.367 21.3268 319.03C21.5931 318.693 21.7263 318.305 21.7263 317.867C21.7263 317.459 21.605 317.115 21.3623 316.837C21.1256 316.559 20.7764 316.322 20.3147 316.127C19.859 315.932 19.2997 315.754 18.6368 315.594L16.657 315.097C15.1241 314.724 13.9138 314.141 13.026 313.348C12.1382 312.555 11.6973 311.487 11.7032 310.143C11.6973 309.042 11.9903 308.081 12.5821 307.258C13.1799 306.435 13.9996 305.793 15.0413 305.331C16.0829 304.87 17.2667 304.639 18.5924 304.639C19.9419 304.639 21.1196 304.87 22.1258 305.331C23.1379 305.793 23.925 306.435 24.4873 307.258C25.0496 308.081 25.3396 309.033 25.3573 310.117H21.673ZM35.9952 304.888V323.069H32.1511V308.536H32.0446L27.8809 311.146V307.737L32.3819 304.888H35.9952ZM43.4859 320.584L43.3882 321.56C43.3113 322.341 43.1633 323.12 42.9443 323.895C42.7313 324.676 42.5064 325.383 42.2696 326.017C42.0388 326.65 41.8524 327.147 41.7103 327.508H39.26C39.3488 327.159 39.4701 326.671 39.624 326.043C39.7779 325.422 39.9229 324.724 40.059 323.948C40.1952 323.173 40.281 322.383 40.3165 321.578L40.3609 320.584H43.4859ZM53.4024 323.318C52.1477 323.318 51.0291 323.087 50.0466 322.625C49.07 322.164 48.2947 321.528 47.7206 320.717C47.1465 319.906 46.8476 318.977 46.824 317.929H50.5526C50.5941 318.633 50.89 319.205 51.4404 319.642C51.9909 320.08 52.6449 320.299 53.4024 320.299C54.0061 320.299 54.5388 320.166 55.0004 319.9C55.468 319.628 55.832 319.252 56.0924 318.772C56.3588 318.287 56.4919 317.731 56.4919 317.103C56.4919 316.464 56.3558 315.902 56.0835 315.417C55.8172 314.931 55.4473 314.553 54.9738 314.28C54.5003 314.008 53.9588 313.869 53.3492 313.863C52.8165 313.863 52.2986 313.973 51.7955 314.191C51.2984 314.41 50.9107 314.709 50.6325 315.088L47.2146 314.476L48.0757 304.888H59.1908V308.03H51.2451L50.7746 312.585H50.8811C51.2007 312.135 51.6831 311.762 52.3282 311.466C52.9733 311.17 53.6954 311.022 54.4944 311.022C55.5893 311.022 56.5659 311.28 57.4241 311.794C58.2823 312.309 58.96 313.017 59.4571 313.916C59.9543 314.81 60.1999 315.84 60.194 317.006C60.1999 318.231 59.9158 319.32 59.3417 320.273C58.7735 321.22 57.9775 321.966 56.9536 322.51C55.9356 323.049 54.7519 323.318 53.4024 323.318ZM62.8751 323.069V320.299L69.347 314.307C69.8975 313.774 70.3591 313.295 70.732 312.869C71.1108 312.443 71.3978 312.025 71.5931 311.617C71.7884 311.203 71.8861 310.756 71.8861 310.276C71.8861 309.744 71.7648 309.285 71.5221 308.9C71.2794 308.51 70.948 308.211 70.5278 308.004C70.1076 307.791 69.6311 307.684 69.0985 307.684C68.5421 307.684 68.0568 307.796 67.6425 308.021C67.2282 308.246 66.9086 308.569 66.6837 308.989C66.4588 309.409 66.3463 309.909 66.3463 310.489H62.6975C62.6975 309.3 62.9668 308.267 63.5054 307.391C64.044 306.515 64.7986 305.837 65.7693 305.358C66.7399 304.879 67.8585 304.639 69.1251 304.639C70.4272 304.639 71.5606 304.87 72.5253 305.331C73.4959 305.787 74.2506 306.42 74.7892 307.231C75.3277 308.042 75.597 308.971 75.597 310.019C75.597 310.705 75.4609 311.383 75.1887 312.052C74.9223 312.721 74.4459 313.464 73.7593 314.28C73.0728 315.091 72.1051 316.065 70.8563 317.201L68.2018 319.802V319.927H75.8367V323.069H62.8751ZM79.3413 323.069L86.8786 308.155V308.03H78.0984V304.888H90.8558V308.075L83.3097 323.069H79.3413ZM92.6114 323.3C92.0255 323.3 91.5224 323.093 91.1022 322.679C90.6879 322.258 90.4807 321.755 90.4807 321.169C90.4807 320.589 90.6879 320.092 91.1022 319.678C91.5224 319.264 92.0255 319.057 92.6114 319.057C93.1796 319.057 93.6768 319.264 94.1029 319.678C94.529 320.092 94.7421 320.589 94.7421 321.169C94.7421 321.56 94.6415 321.918 94.4403 322.244C94.2449 322.563 93.9875 322.821 93.6679 323.016C93.3483 323.205 92.9961 323.3 92.6114 323.3ZM97.5364 319.873V316.846L105.127 304.888H107.737V309.078H106.192L101.407 316.651V316.793H112.194V319.873H97.5364ZM106.263 323.069V318.95L106.334 317.609V304.888H109.939V323.069H106.263ZM121.396 323.318C120.141 323.318 119.022 323.087 118.04 322.625C117.063 322.164 116.288 321.528 115.714 320.717C115.14 319.906 114.841 318.977 114.817 317.929H118.546C118.587 318.633 118.883 319.205 119.434 319.642C119.984 320.08 120.638 320.299 121.396 320.299C121.999 320.299 122.532 320.166 122.994 319.9C123.461 319.628 123.825 319.252 124.086 318.772C124.352 318.287 124.485 317.731 124.485 317.103C124.485 316.464 124.349 315.902 124.077 315.417C123.81 314.931 123.44 314.553 122.967 314.28C122.493 314.008 121.952 313.869 121.342 313.863C120.81 313.863 120.292 313.973 119.789 314.191C119.292 314.41 118.904 314.709 118.626 315.088L115.208 314.476L116.069 304.888H127.184V308.03H119.238L118.768 312.585H118.874C119.194 312.135 119.676 311.762 120.321 311.466C120.967 311.17 121.689 311.022 122.488 311.022C123.583 311.022 124.559 311.28 125.417 311.794C126.275 312.309 126.953 313.017 127.45 313.916C127.947 314.81 128.193 315.84 128.187 317.006C128.193 318.231 127.909 319.32 127.335 320.273C126.767 321.22 125.971 321.966 124.947 322.51C123.929 323.049 122.745 323.318 121.396 323.318ZM137.278 313.978C137.278 316.186 136.982 318.216 136.39 320.069C135.804 321.921 134.905 323.638 133.691 325.218H130.078C130.54 324.632 130.969 323.916 131.365 323.069C131.762 322.223 132.108 321.3 132.404 320.299C132.7 319.293 132.931 318.252 133.097 317.174C133.262 316.097 133.345 315.032 133.345 313.978C133.345 312.576 133.2 311.161 132.91 309.735C132.626 308.303 132.235 306.977 131.738 305.758C131.247 304.532 130.694 303.529 130.078 302.748H133.691C134.905 304.328 135.804 306.045 136.39 307.897C136.982 309.75 137.278 311.777 137.278 313.978Z" fill="#D90620"/>
<path d="M243.474 317.137V320.138H235.182V317.137H243.474ZM254.571 309.547V327.729H250.727V313.195H250.62L246.457 315.806V312.396L250.958 309.547H254.571ZM265.613 327.977C264.287 327.977 263.106 327.749 262.07 327.294C261.041 326.832 260.227 326.199 259.629 325.394C259.037 324.583 258.732 323.648 258.715 322.588H262.585C262.609 323.032 262.754 323.423 263.02 323.76C263.293 324.092 263.654 324.349 264.103 324.532C264.553 324.716 265.059 324.808 265.622 324.808C266.207 324.808 266.725 324.704 267.175 324.497C267.625 324.29 267.977 324.003 268.232 323.636C268.486 323.269 268.613 322.846 268.613 322.366C268.613 321.881 268.477 321.452 268.205 321.079C267.939 320.7 267.554 320.404 267.051 320.191C266.554 319.978 265.962 319.872 265.275 319.872H263.58V317.048H265.275C265.855 317.048 266.367 316.948 266.811 316.747C267.261 316.545 267.61 316.267 267.859 315.912C268.107 315.551 268.232 315.131 268.232 314.651C268.232 314.196 268.122 313.796 267.903 313.453C267.69 313.104 267.388 312.831 266.998 312.636C266.613 312.441 266.163 312.343 265.648 312.343C265.127 312.343 264.651 312.438 264.219 312.627C263.787 312.811 263.441 313.074 263.18 313.417C262.92 313.761 262.781 314.163 262.763 314.625H259.079C259.096 313.577 259.395 312.654 259.975 311.855C260.555 311.056 261.337 310.432 262.319 309.982C263.307 309.526 264.423 309.298 265.666 309.298C266.921 309.298 268.019 309.526 268.96 309.982C269.901 310.437 270.632 311.053 271.152 311.828C271.679 312.598 271.94 313.462 271.934 314.421C271.94 315.439 271.623 316.288 270.984 316.969C270.35 317.649 269.525 318.081 268.507 318.265V318.407C269.844 318.578 270.862 319.043 271.561 319.801C272.265 320.552 272.614 321.493 272.608 322.624C272.614 323.66 272.315 324.58 271.712 325.385C271.114 326.19 270.288 326.823 269.235 327.285C268.181 327.746 266.974 327.977 265.613 327.977ZM277.105 327.959C276.519 327.959 276.016 327.752 275.596 327.338C275.182 326.918 274.974 326.415 274.974 325.829C274.974 325.249 275.182 324.751 275.596 324.337C276.016 323.923 276.519 323.716 277.105 323.716C277.673 323.716 278.17 323.923 278.597 324.337C279.023 324.751 279.236 325.249 279.236 325.829C279.236 326.219 279.135 326.577 278.934 326.903C278.739 327.222 278.481 327.48 278.162 327.675C277.842 327.865 277.49 327.959 277.105 327.959ZM288.702 328.128C287.175 328.122 285.861 327.746 284.76 327.001C283.665 326.255 282.822 325.175 282.23 323.76C281.644 322.346 281.354 320.644 281.36 318.655C281.36 316.673 281.653 314.983 282.239 313.586C282.831 312.189 283.674 311.127 284.769 310.399C285.87 309.665 287.181 309.298 288.702 309.298C290.223 309.298 291.531 309.665 292.626 310.399C293.727 311.133 294.573 312.198 295.165 313.595C295.757 314.986 296.05 316.673 296.044 318.655C296.044 320.65 295.748 322.354 295.156 323.769C294.57 325.184 293.73 326.264 292.635 327.009C291.54 327.755 290.229 328.128 288.702 328.128ZM288.702 324.941C289.743 324.941 290.575 324.417 291.196 323.369C291.818 322.322 292.126 320.751 292.12 318.655C292.12 317.276 291.978 316.128 291.694 315.211C291.415 314.293 291.019 313.604 290.504 313.142C289.995 312.681 289.394 312.45 288.702 312.45C287.666 312.45 286.837 312.968 286.216 314.003C285.594 315.039 285.281 316.59 285.275 318.655C285.275 320.052 285.414 321.218 285.692 322.153C285.976 323.082 286.376 323.781 286.891 324.248C287.406 324.71 288.009 324.941 288.702 324.941ZM305.914 328.128C304.387 328.122 303.073 327.746 301.972 327.001C300.877 326.255 300.034 325.175 299.442 323.76C298.856 322.346 298.566 320.644 298.572 318.655C298.572 316.673 298.865 314.983 299.451 313.586C300.042 312.189 300.886 311.127 301.981 310.399C303.082 309.665 304.393 309.298 305.914 309.298C307.435 309.298 308.743 309.665 309.838 310.399C310.938 311.133 311.785 312.198 312.377 313.595C312.969 314.986 313.262 316.673 313.256 318.655C313.256 320.65 312.96 322.354 312.368 323.769C311.782 325.184 310.941 326.264 309.847 327.009C308.752 327.755 307.441 328.128 305.914 328.128ZM305.914 324.941C306.955 324.941 307.787 324.417 308.408 323.369C309.03 322.322 309.338 320.751 309.332 318.655C309.332 317.276 309.19 316.128 308.905 315.211C308.627 314.293 308.231 313.604 307.716 313.142C307.207 312.681 306.606 312.45 305.914 312.45C304.878 312.45 304.049 312.968 303.428 314.003C302.806 315.039 302.493 316.59 302.487 318.655C302.487 320.052 302.626 321.218 302.904 322.153C303.188 323.082 303.588 323.781 304.103 324.248C304.617 324.71 305.221 324.941 305.914 324.941ZM325.949 324.319V323.361C325.949 322.633 326.103 321.964 326.41 321.354C326.724 320.739 327.177 320.247 327.769 319.881C328.366 319.508 329.094 319.321 329.953 319.321C330.823 319.321 331.554 319.505 332.145 319.872C332.743 320.239 333.193 320.73 333.495 321.345C333.803 321.955 333.957 322.627 333.957 323.361V324.319C333.957 325.047 333.803 325.719 333.495 326.335C333.187 326.944 332.734 327.433 332.137 327.8C331.539 328.172 330.811 328.359 329.953 328.359C329.083 328.359 328.352 328.172 327.76 327.8C327.168 327.433 326.718 326.944 326.41 326.335C326.103 325.719 325.949 325.047 325.949 324.319ZM328.532 323.361V324.319C328.532 324.74 328.633 325.136 328.834 325.509C329.041 325.882 329.414 326.068 329.953 326.068C330.491 326.068 330.858 325.885 331.053 325.518C331.255 325.151 331.355 324.751 331.355 324.319V323.361C331.355 322.929 331.261 322.526 331.071 322.153C330.882 321.78 330.509 321.594 329.953 321.594C329.42 321.594 329.05 321.78 328.843 322.153C328.636 322.526 328.532 322.929 328.532 323.361ZM316.618 313.915V312.956C316.618 312.222 316.775 311.55 317.089 310.941C317.402 310.325 317.855 309.834 318.447 309.467C319.045 309.1 319.767 308.916 320.613 308.916C321.489 308.916 322.223 309.1 322.815 309.467C323.407 309.834 323.856 310.325 324.164 310.941C324.472 311.55 324.626 312.222 324.626 312.956V313.915C324.626 314.648 324.469 315.32 324.155 315.93C323.848 316.539 323.395 317.028 322.797 317.395C322.205 317.756 321.477 317.936 320.613 317.936C319.749 317.936 319.018 317.753 318.42 317.386C317.828 317.013 317.379 316.525 317.071 315.921C316.769 315.311 316.618 314.643 316.618 313.915ZM319.219 312.956V313.915C319.219 314.347 319.32 314.746 319.521 315.113C319.728 315.48 320.092 315.664 320.613 315.664C321.158 315.664 321.528 315.48 321.723 315.113C321.924 314.746 322.025 314.347 322.025 313.915V312.956C322.025 312.524 321.93 312.121 321.741 311.748C321.551 311.376 321.175 311.189 320.613 311.189C320.086 311.189 319.722 311.378 319.521 311.757C319.32 312.136 319.219 312.536 319.219 312.956ZM317.79 327.729L330.29 309.547H332.616L320.116 327.729H317.79Z" fill="#D90620"/>
<path d="M2.34375 375.959C2.34375 373.757 2.63672 371.73 3.22266 369.878C3.81451 368.025 4.71709 366.309 5.9304 364.728H9.54368C9.08203 365.314 8.65294 366.031 8.25639 366.877C7.85985 367.717 7.51361 368.641 7.21769 369.647C6.92176 370.653 6.69093 371.695 6.52521 372.772C6.35949 373.843 6.27663 374.905 6.27663 375.959C6.27663 377.362 6.41868 378.779 6.70277 380.211C6.99278 381.638 7.3834 382.964 7.87465 384.189C8.3718 385.414 8.92815 386.417 9.54368 387.198H5.9304C4.71709 385.618 3.81451 383.902 3.22266 382.049C2.63672 380.197 2.34375 378.167 2.34375 375.959ZM17.8112 387.323V364.595H19.2671V387.323H17.8112ZM21.673 372.097C21.602 371.381 21.2972 370.825 20.7586 370.428C20.22 370.031 19.4891 369.833 18.5658 369.833C17.9384 369.833 17.4087 369.922 16.9767 370.1C16.5446 370.271 16.2132 370.511 15.9823 370.819C15.7574 371.126 15.645 371.476 15.645 371.866C15.6331 372.192 15.7012 372.476 15.8492 372.718C16.003 372.961 16.2132 373.171 16.4795 373.349C16.7458 373.52 17.0536 373.671 17.4028 373.802C17.752 373.926 18.1249 374.032 18.5214 374.121L20.1549 374.512C20.948 374.689 21.676 374.926 22.3389 375.222C23.0017 375.518 23.5758 375.882 24.0612 376.314C24.5465 376.746 24.9223 377.255 25.1887 377.841C25.4609 378.427 25.6 379.099 25.6059 379.856C25.6 380.969 25.3159 381.934 24.7536 382.75C24.1973 383.561 23.3924 384.192 22.3389 384.641C21.2913 385.085 20.0277 385.307 18.548 385.307C17.0802 385.307 15.8018 385.082 14.7128 384.633C13.6297 384.183 12.7834 383.517 12.1737 382.635C11.57 381.747 11.2534 380.649 11.2238 379.341H14.9436C14.9851 379.951 15.1597 380.46 15.4674 380.868C15.7811 381.271 16.1984 381.576 16.7192 381.783C17.2459 381.984 17.8408 382.085 18.5036 382.085C19.1547 382.085 19.7199 381.99 20.1993 381.801C20.6846 381.611 21.0605 381.348 21.3268 381.01C21.5931 380.673 21.7263 380.285 21.7263 379.847C21.7263 379.439 21.605 379.096 21.3623 378.818C21.1256 378.539 20.7764 378.303 20.3147 378.107C19.859 377.912 19.2997 377.734 18.6368 377.575L16.657 377.078C15.1241 376.705 13.9138 376.122 13.026 375.329C12.1382 374.535 11.6973 373.467 11.7032 372.124C11.6973 371.023 11.9903 370.061 12.5821 369.238C13.1799 368.416 13.9996 367.774 15.0413 367.312C16.0829 366.85 17.2667 366.619 18.5924 366.619C19.9419 366.619 21.1196 366.85 22.1258 367.312C23.1379 367.774 23.925 368.416 24.4873 369.238C25.0496 370.061 25.3396 371.014 25.3573 372.097H21.673ZM35.9952 366.868V385.05H32.1511V370.517H32.0446L27.8809 373.127V369.718L32.3819 366.868H35.9952ZM43.4859 382.564L43.3882 383.541C43.3113 384.322 43.1633 385.1 42.9443 385.875C42.7313 386.657 42.5064 387.364 42.2696 387.997C42.0388 388.631 41.8524 389.128 41.7103 389.489H39.26C39.3488 389.14 39.4701 388.651 39.624 388.024C39.7779 387.402 39.9229 386.704 40.059 385.929C40.1952 385.153 40.281 384.363 40.3165 383.558L40.3609 382.564H43.4859ZM53.4024 385.298C52.1477 385.298 51.0291 385.068 50.0466 384.606C49.07 384.144 48.2947 383.508 47.7206 382.697C47.1465 381.886 46.8476 380.957 46.824 379.91H50.5526C50.5941 380.614 50.89 381.185 51.4404 381.623C51.9909 382.061 52.6449 382.28 53.4024 382.28C54.0061 382.28 54.5388 382.147 55.0004 381.88C55.468 381.608 55.832 381.232 56.0924 380.753C56.3588 380.268 56.4919 379.711 56.4919 379.084C56.4919 378.445 56.3558 377.882 56.0835 377.397C55.8172 376.912 55.4473 376.533 54.9738 376.261C54.5003 375.988 53.9588 375.849 53.3492 375.843C52.8165 375.843 52.2986 375.953 51.7955 376.172C51.2984 376.391 50.9107 376.69 50.6325 377.069L47.2146 376.456L48.0757 366.868H59.1908V370.011H51.2451L50.7746 374.565H50.8811C51.2007 374.115 51.6831 373.742 52.3282 373.446C52.9733 373.151 53.6954 373.003 54.4944 373.003C55.5893 373.003 56.5659 373.26 57.4241 373.775C58.2823 374.29 58.96 374.997 59.4571 375.897C59.9543 376.79 60.1999 377.82 60.194 378.986C60.1999 380.211 59.9158 381.3 59.3417 382.253C58.7735 383.2 57.9775 383.946 56.9536 384.491C55.9356 385.029 54.7519 385.298 53.4024 385.298ZM62.8751 385.05V382.28L69.347 376.287C69.8975 375.755 70.3591 375.275 70.732 374.849C71.1108 374.423 71.3978 374.006 71.5931 373.597C71.7884 373.183 71.8861 372.736 71.8861 372.257C71.8861 371.724 71.7648 371.265 71.5221 370.881C71.2794 370.49 70.948 370.191 70.5278 369.984C70.1076 369.771 69.6311 369.665 69.0985 369.665C68.5421 369.665 68.0568 369.777 67.6425 370.002C67.2282 370.227 66.9086 370.549 66.6837 370.97C66.4588 371.39 66.3463 371.89 66.3463 372.47H62.6975C62.6975 371.28 62.9668 370.247 63.5054 369.372C64.044 368.496 64.7986 367.818 65.7693 367.339C66.7399 366.859 67.8585 366.619 69.1251 366.619C70.4272 366.619 71.5606 366.85 72.5253 367.312C73.4959 367.768 74.2506 368.401 74.7892 369.212C75.3277 370.023 75.597 370.952 75.597 371.999C75.597 372.686 75.4609 373.364 75.1887 374.032C74.9223 374.701 74.4459 375.444 73.7593 376.261C73.0728 377.072 72.1051 378.045 70.8563 379.182L68.2018 381.783V381.907H75.8367V385.05H62.8751ZM78.6222 385.05V382.28L85.0941 376.287C85.6445 375.755 86.1062 375.275 86.479 374.849C86.8578 374.423 87.1449 374.006 87.3402 373.597C87.5355 373.183 87.6332 372.736 87.6332 372.257C87.6332 371.724 87.5118 371.265 87.2692 370.881C87.0265 370.49 86.6951 370.191 86.2749 369.984C85.8546 369.771 85.3782 369.665 84.8455 369.665C84.2892 369.665 83.8039 369.777 83.3896 370.002C82.9753 370.227 82.6557 370.549 82.4308 370.97C82.2058 371.39 82.0934 371.89 82.0934 372.47H78.4446C78.4446 371.28 78.7139 370.247 79.2525 369.372C79.7911 368.496 80.5457 367.818 81.5163 367.339C82.487 366.859 83.6056 366.619 84.8722 366.619C86.1742 366.619 87.3076 366.85 88.2724 367.312C89.243 367.768 89.9976 368.401 90.5362 369.212C91.0748 370.023 91.3441 370.952 91.3441 371.999C91.3441 372.686 91.208 373.364 90.9357 374.032C90.6694 374.701 90.1929 375.444 89.5064 376.261C88.8198 377.072 87.8522 378.045 86.6033 379.182L83.9489 381.783V381.907H91.5838V385.05H78.6222ZM96.6153 385.281C96.0294 385.281 95.5263 385.073 95.1061 384.659C94.6918 384.239 94.4846 383.736 94.4846 383.15C94.4846 382.57 94.6918 382.073 95.1061 381.658C95.5263 381.244 96.0294 381.037 96.6153 381.037C97.1835 381.037 97.6807 381.244 98.1068 381.658C98.5329 382.073 98.746 382.57 98.746 383.15C98.746 383.541 98.6454 383.899 98.4442 384.224C98.2488 384.544 97.9914 384.801 97.6718 384.997C97.3522 385.186 97 385.281 96.6153 385.281ZM107.866 385.298C106.499 385.298 105.282 385.076 104.217 384.633C103.158 384.183 102.326 383.57 101.722 382.795C101.119 382.02 100.817 381.141 100.817 380.158C100.817 379.401 100.988 378.705 101.332 378.072C101.681 377.433 102.154 376.903 102.752 376.483C103.35 376.057 104.019 375.784 104.759 375.666V375.542C103.788 375.346 103.001 374.876 102.397 374.13C101.793 373.378 101.491 372.505 101.491 371.511C101.491 370.57 101.767 369.733 102.317 368.999C102.868 368.259 103.622 367.679 104.581 367.259C105.546 366.832 106.641 366.619 107.866 366.619C109.091 366.619 110.183 366.832 111.142 367.259C112.106 367.685 112.864 368.268 113.414 369.008C113.965 369.741 114.243 370.576 114.249 371.511C114.243 372.511 113.935 373.384 113.326 374.13C112.716 374.876 111.935 375.346 110.982 375.542V375.666C111.71 375.784 112.37 376.057 112.962 376.483C113.559 376.903 114.033 377.433 114.382 378.072C114.737 378.705 114.918 379.401 114.924 380.158C114.918 381.141 114.613 382.02 114.009 382.795C113.406 383.57 112.571 384.183 111.506 384.633C110.446 385.076 109.233 385.298 107.866 385.298ZM107.866 382.475C108.475 382.475 109.008 382.366 109.464 382.147C109.92 381.922 110.275 381.614 110.529 381.223C110.79 380.827 110.92 380.371 110.92 379.856C110.92 379.33 110.787 378.865 110.52 378.462C110.254 378.054 109.893 377.734 109.437 377.504C108.981 377.267 108.458 377.149 107.866 377.149C107.28 377.149 106.756 377.267 106.294 377.504C105.833 377.734 105.469 378.054 105.202 378.462C104.942 378.865 104.812 379.33 104.812 379.856C104.812 380.371 104.939 380.827 105.194 381.223C105.448 381.614 105.806 381.922 106.268 382.147C106.729 382.366 107.262 382.475 107.866 382.475ZM107.866 374.352C108.375 374.352 108.828 374.248 109.224 374.041C109.621 373.834 109.931 373.547 110.156 373.18C110.381 372.813 110.494 372.39 110.494 371.911C110.494 371.437 110.381 371.023 110.156 370.668C109.931 370.307 109.624 370.026 109.233 369.824C108.842 369.617 108.387 369.514 107.866 369.514C107.351 369.514 106.895 369.617 106.499 369.824C106.102 370.026 105.791 370.307 105.566 370.668C105.347 371.023 105.238 371.437 105.238 371.911C105.238 372.39 105.35 372.813 105.575 373.18C105.8 373.547 106.111 373.834 106.507 374.041C106.904 374.248 107.357 374.352 107.866 374.352ZM124.332 385.298C123.006 385.298 121.825 385.071 120.79 384.615C119.76 384.153 118.946 383.52 118.348 382.715C117.756 381.904 117.452 380.969 117.434 379.91H121.305C121.328 380.353 121.473 380.744 121.74 381.081C122.012 381.413 122.373 381.67 122.823 381.854C123.273 382.037 123.779 382.129 124.341 382.129C124.927 382.129 125.445 382.025 125.894 381.818C126.344 381.611 126.696 381.324 126.951 380.957C127.205 380.59 127.333 380.167 127.333 379.688C127.333 379.202 127.197 378.773 126.924 378.4C126.658 378.022 126.273 377.726 125.77 377.513C125.273 377.299 124.681 377.193 123.995 377.193H122.299V374.37H123.995C124.575 374.37 125.087 374.269 125.53 374.068C125.98 373.867 126.329 373.589 126.578 373.233C126.827 372.872 126.951 372.452 126.951 371.973C126.951 371.517 126.841 371.118 126.622 370.774C126.409 370.425 126.108 370.153 125.717 369.957C125.332 369.762 124.882 369.665 124.367 369.665C123.847 369.665 123.37 369.759 122.938 369.949C122.506 370.132 122.16 370.395 121.899 370.739C121.639 371.082 121.5 371.484 121.482 371.946H117.798C117.816 370.899 118.114 369.975 118.695 369.176C119.275 368.377 120.056 367.753 121.038 367.303C122.027 366.847 123.142 366.619 124.385 366.619C125.64 366.619 126.738 366.847 127.679 367.303C128.62 367.759 129.351 368.374 129.872 369.15C130.398 369.919 130.659 370.783 130.653 371.742C130.659 372.76 130.342 373.609 129.703 374.29C129.07 374.97 128.244 375.403 127.226 375.586V375.728C128.564 375.9 129.582 376.364 130.28 377.122C130.984 377.874 131.334 378.815 131.328 379.945C131.334 380.981 131.035 381.901 130.431 382.706C129.833 383.511 129.008 384.144 127.954 384.606C126.901 385.068 125.693 385.298 124.332 385.298ZM140.501 375.959C140.501 378.167 140.205 380.197 139.613 382.049C139.027 383.902 138.127 385.618 136.914 387.198H133.301C133.762 386.612 134.192 385.896 134.588 385.05C134.985 384.203 135.331 383.28 135.627 382.28C135.923 381.274 136.154 380.232 136.319 379.155C136.485 378.078 136.568 377.012 136.568 375.959C136.568 374.556 136.423 373.142 136.133 371.715C135.849 370.283 135.458 368.957 134.961 367.738C134.47 366.513 133.916 365.51 133.301 364.728H136.914C138.127 366.309 139.027 368.025 139.613 369.878C140.205 371.73 140.501 373.757 140.501 375.959Z" fill="#D90620"/>
<path d="M249.357 379.118V382.118H241.065V379.118H249.357ZM260.455 371.527V389.709H256.611V375.176H256.504L252.34 377.786V374.377L256.841 371.527H260.455ZM264.776 389.709V386.939L271.248 380.947C271.798 380.414 272.26 379.934 272.633 379.508C273.012 379.082 273.299 378.665 273.494 378.257C273.689 377.842 273.787 377.395 273.787 376.916C273.787 376.383 273.666 375.925 273.423 375.54C273.18 375.149 272.849 374.85 272.429 374.643C272.008 374.43 271.532 374.324 270.999 374.324C270.443 374.324 269.958 374.436 269.543 374.661C269.129 374.886 268.809 375.209 268.585 375.629C268.36 376.049 268.247 376.549 268.247 377.129H264.598C264.598 375.939 264.868 374.907 265.406 374.031C265.945 373.155 266.699 372.477 267.67 371.998C268.641 371.518 269.759 371.279 271.026 371.279C272.328 371.279 273.461 371.509 274.426 371.971C275.397 372.427 276.151 373.06 276.69 373.871C277.229 374.682 277.498 375.611 277.498 376.659C277.498 377.345 277.362 378.023 277.09 378.692C276.823 379.36 276.347 380.103 275.66 380.92C274.974 381.731 274.006 382.704 272.757 383.841L270.103 386.442V386.566H277.738V389.709H264.776ZM282.769 389.94C282.183 389.94 281.68 389.733 281.26 389.318C280.846 388.898 280.638 388.395 280.638 387.809C280.638 387.229 280.846 386.732 281.26 386.318C281.68 385.903 282.183 385.696 282.769 385.696C283.337 385.696 283.834 385.903 284.261 386.318C284.687 386.732 284.9 387.229 284.9 387.809C284.9 388.2 284.799 388.558 284.598 388.883C284.403 389.203 284.145 389.46 283.826 389.656C283.506 389.845 283.154 389.94 282.769 389.94ZM294.02 389.958C292.652 389.958 291.436 389.736 290.371 389.292C289.311 388.842 288.48 388.229 287.876 387.454C287.272 386.679 286.971 385.8 286.971 384.817C286.971 384.06 287.142 383.364 287.485 382.731C287.835 382.092 288.308 381.562 288.906 381.142C289.504 380.716 290.172 380.443 290.912 380.325V380.201C289.942 380.006 289.154 379.535 288.551 378.789C287.947 378.038 287.645 377.165 287.645 376.17C287.645 375.229 287.92 374.392 288.471 373.658C289.021 372.918 289.776 372.338 290.735 371.918C291.699 371.492 292.794 371.279 294.02 371.279C295.245 371.279 296.337 371.492 297.295 371.918C298.26 372.344 299.018 372.927 299.568 373.667C300.119 374.401 300.397 375.235 300.403 376.17C300.397 377.171 300.089 378.044 299.479 378.789C298.87 379.535 298.089 380.006 297.136 380.201V380.325C297.864 380.443 298.524 380.716 299.115 381.142C299.713 381.562 300.187 382.092 300.536 382.731C300.891 383.364 301.072 384.06 301.077 384.817C301.072 385.8 300.767 386.679 300.163 387.454C299.559 388.229 298.725 388.842 297.659 389.292C296.6 389.736 295.387 389.958 294.02 389.958ZM294.02 387.134C294.629 387.134 295.162 387.025 295.618 386.806C296.073 386.581 296.428 386.273 296.683 385.883C296.943 385.486 297.074 385.03 297.074 384.515C297.074 383.989 296.94 383.524 296.674 383.122C296.408 382.713 296.047 382.394 295.591 382.163C295.135 381.926 294.611 381.808 294.02 381.808C293.434 381.808 292.91 381.926 292.448 382.163C291.987 382.394 291.623 382.713 291.356 383.122C291.096 383.524 290.966 383.989 290.966 384.515C290.966 385.03 291.093 385.486 291.347 385.883C291.602 386.273 291.96 386.581 292.422 386.806C292.883 387.025 293.416 387.134 294.02 387.134ZM294.02 379.011C294.529 379.011 294.981 378.908 295.378 378.7C295.774 378.493 296.085 378.206 296.31 377.839C296.535 377.472 296.647 377.049 296.647 376.57C296.647 376.096 296.535 375.682 296.31 375.327C296.085 374.966 295.777 374.685 295.387 374.483C294.996 374.276 294.54 374.173 294.02 374.173C293.505 374.173 293.049 374.276 292.652 374.483C292.256 374.685 291.945 374.966 291.72 375.327C291.501 375.682 291.392 376.096 291.392 376.57C291.392 377.049 291.504 377.472 291.729 377.839C291.954 378.206 292.265 378.493 292.661 378.7C293.058 378.908 293.511 379.011 294.02 379.011ZM311.675 371.527V389.709H307.831V375.176H307.725L303.561 377.786V374.377L308.062 371.527H311.675ZM325.949 386.3V385.341C325.949 384.613 326.103 383.944 326.41 383.335C326.724 382.719 327.177 382.228 327.769 381.861C328.366 381.488 329.094 381.302 329.953 381.302C330.823 381.302 331.554 381.485 332.145 381.852C332.743 382.219 333.193 382.71 333.495 383.326C333.803 383.935 333.957 384.607 333.957 385.341V386.3C333.957 387.028 333.803 387.7 333.495 388.315C333.187 388.925 332.734 389.413 332.137 389.78C331.539 390.153 330.811 390.339 329.953 390.339C329.083 390.339 328.352 390.153 327.76 389.78C327.168 389.413 326.718 388.925 326.41 388.315C326.103 387.7 325.949 387.028 325.949 386.3ZM328.532 385.341V386.3C328.532 386.72 328.633 387.117 328.834 387.49C329.041 387.862 329.414 388.049 329.953 388.049C330.491 388.049 330.858 387.865 331.053 387.498C331.255 387.131 331.355 386.732 331.355 386.3V385.341C331.355 384.909 331.261 384.507 331.071 384.134C330.882 383.761 330.509 383.574 329.953 383.574C329.42 383.574 329.05 383.761 328.843 384.134C328.636 384.507 328.532 384.909 328.532 385.341ZM316.618 375.895V374.936C316.618 374.202 316.775 373.531 317.089 372.921C317.402 372.305 317.855 371.814 318.447 371.447C319.045 371.08 319.767 370.897 320.613 370.897C321.489 370.897 322.223 371.08 322.815 371.447C323.407 371.814 323.856 372.305 324.164 372.921C324.472 373.531 324.626 374.202 324.626 374.936V375.895C324.626 376.629 324.469 377.301 324.155 377.91C323.848 378.52 323.395 379.008 322.797 379.375C322.205 379.736 321.477 379.917 320.613 379.917C319.749 379.917 319.018 379.733 318.42 379.366C317.828 378.993 317.379 378.505 317.071 377.901C316.769 377.292 316.618 376.623 316.618 375.895ZM319.219 374.936V375.895C319.219 376.327 319.32 376.727 319.521 377.094C319.728 377.461 320.092 377.644 320.613 377.644C321.158 377.644 321.528 377.461 321.723 377.094C321.924 376.727 322.025 376.327 322.025 375.895V374.936C322.025 374.504 321.93 374.102 321.741 373.729C321.551 373.356 321.175 373.17 320.613 373.17C320.086 373.17 319.722 373.359 319.521 373.738C319.32 374.117 319.219 374.516 319.219 374.936ZM317.79 389.709L330.29 371.527H332.616L320.116 389.709H317.79Z" fill="#D90620"/>
<path d="M295.086 21V2.81818H302.259C303.632 2.81818 304.804 3.0638 305.775 3.55504C306.752 4.04036 307.494 4.72988 308.003 5.62358C308.518 6.51136 308.776 7.55599 308.776 8.75746C308.776 9.96484 308.515 11.0036 307.994 11.8736C307.474 12.7377 306.719 13.4006 305.731 13.8622C304.748 14.3239 303.558 14.5547 302.162 14.5547H297.359V11.4652H301.54C302.274 11.4652 302.884 11.3646 303.369 11.1634C303.854 10.9621 304.215 10.6603 304.452 10.2578C304.695 9.85535 304.816 9.35523 304.816 8.75746C304.816 8.15376 304.695 7.64477 304.452 7.23047C304.215 6.81617 303.851 6.50248 303.36 6.28942C302.875 6.07043 302.262 5.96094 301.522 5.96094H298.93V21H295.086ZM304.905 12.7259L309.424 21H305.18L300.759 12.7259H304.905ZM328.2 11.9091C328.2 13.8918 327.825 15.5786 327.073 16.9695C326.327 18.3603 325.309 19.4227 324.019 20.1566C322.735 20.8846 321.29 21.2486 319.687 21.2486C318.071 21.2486 316.621 20.8816 315.336 20.1477C314.052 19.4138 313.037 18.3514 312.291 16.9606C311.546 15.5697 311.173 13.8859 311.173 11.9091C311.173 9.92637 311.546 8.23958 312.291 6.84872C313.037 5.45786 314.052 4.39844 315.336 3.67045C316.621 2.93655 318.071 2.5696 319.687 2.5696C321.29 2.5696 322.735 2.93655 324.019 3.67045C325.309 4.39844 326.327 5.45786 327.073 6.84872C327.825 8.23958 328.2 9.92637 328.2 11.9091ZM324.303 11.9091C324.303 10.6248 324.111 9.54167 323.726 8.6598C323.347 7.77794 322.812 7.10914 322.119 6.65341C321.427 6.19768 320.616 5.96982 319.687 5.96982C318.757 5.96982 317.947 6.19768 317.254 6.65341C316.562 7.10914 316.023 7.77794 315.638 8.6598C315.259 9.54167 315.07 10.6248 315.07 11.9091C315.07 13.1934 315.259 14.2765 315.638 15.1584C316.023 16.0402 316.562 16.709 317.254 17.1648C317.947 17.6205 318.757 17.8484 319.687 17.8484C320.616 17.8484 321.427 17.6205 322.119 17.1648C322.812 16.709 323.347 16.0402 323.726 15.1584C324.111 14.2765 324.303 13.1934 324.303 11.9091ZM334.892 2.81818V21H331.048V2.81818H334.892Z" fill="black"/>
<path d="M76.9357 21V2.81818H84.109C85.488 2.81818 86.6628 3.08156 87.6335 3.60831C88.6041 4.12914 89.3439 4.85417 89.8529 5.78338C90.3678 6.70668 90.6253 7.77202 90.6253 8.9794C90.6253 10.1868 90.3649 11.2521 89.8441 12.1754C89.3232 13.0987 88.5686 13.8178 87.5802 14.3327C86.5977 14.8477 85.4081 15.1051 84.0113 15.1051H79.4392V12.0245H83.3899C84.1297 12.0245 84.7393 11.8973 85.2187 11.6428C85.704 11.3823 86.0651 11.0243 86.3018 10.5685C86.5445 10.1069 86.6658 9.57718 86.6658 8.9794C86.6658 8.37571 86.5445 7.84896 86.3018 7.39915C86.0651 6.94342 85.704 6.59126 85.2187 6.34268C84.7334 6.08819 84.1178 5.96094 83.3721 5.96094H80.7798V21H76.9357ZM93.0512 21V7.36364H96.7177V9.7429H96.8598C97.1083 8.89654 97.5256 8.25734 98.1115 7.82528C98.6975 7.38731 99.3722 7.16832 100.136 7.16832C100.325 7.16832 100.529 7.18016 100.748 7.20383C100.967 7.22751 101.16 7.26006 101.325 7.30149V10.6573C101.148 10.604 100.902 10.5567 100.588 10.5153C100.275 10.4738 99.9877 10.4531 99.7273 10.4531C99.171 10.4531 98.6738 10.5745 98.2358 10.8171C97.8038 11.0539 97.4605 11.3853 97.206 11.8114C96.9574 12.2376 96.8331 12.7288 96.8331 13.2852V21H93.0512ZM108.807 21.2663C107.428 21.2663 106.236 20.9734 105.229 20.3874C104.229 19.7956 103.457 18.9729 102.912 17.9194C102.368 16.86 102.095 15.6319 102.095 14.2351C102.095 12.8265 102.368 11.5954 102.912 10.5419C103.457 9.48248 104.229 8.6598 105.229 8.07386C106.236 7.48201 107.428 7.18608 108.807 7.18608C110.186 7.18608 111.376 7.48201 112.376 8.07386C113.382 8.6598 114.157 9.48248 114.702 10.5419C115.247 11.5954 115.519 12.8265 115.519 14.2351C115.519 15.6319 115.247 16.86 114.702 17.9194C114.157 18.9729 113.382 19.7956 112.376 20.3874C111.376 20.9734 110.186 21.2663 108.807 21.2663ZM108.825 18.3366C109.452 18.3366 109.976 18.1591 110.396 17.804C110.816 17.4429 111.133 16.9517 111.346 16.3303C111.565 15.7088 111.675 15.0015 111.675 14.2085C111.675 13.4154 111.565 12.7081 111.346 12.0866C111.133 11.4652 110.816 10.974 110.396 10.6129C109.976 10.2519 109.452 10.0714 108.825 10.0714C108.192 10.0714 107.659 10.2519 107.227 10.6129C106.801 10.974 106.478 11.4652 106.259 12.0866C106.046 12.7081 105.94 13.4154 105.94 14.2085C105.94 15.0015 106.046 15.7088 106.259 16.3303C106.478 16.9517 106.801 17.4429 107.227 17.804C107.659 18.1591 108.192 18.3366 108.825 18.3366ZM125.311 7.36364V10.2045H116.895V7.36364H125.311ZM118.821 21V6.3782C118.821 5.3898 119.014 4.57007 119.398 3.91903C119.789 3.26799 120.322 2.77971 120.996 2.45419C121.671 2.12867 122.438 1.96591 123.296 1.96591C123.876 1.96591 124.405 2.0103 124.885 2.09908C125.37 2.18785 125.731 2.26776 125.968 2.33878L125.293 5.17969C125.145 5.13234 124.962 5.08795 124.743 5.04652C124.53 5.00509 124.311 4.98438 124.086 4.98438C123.53 4.98438 123.142 5.11458 122.923 5.375C122.704 5.6295 122.594 5.98757 122.594 6.44922V21H118.821ZM127.621 21V7.36364H131.403V21H127.621ZM129.521 5.60582C128.959 5.60582 128.477 5.41939 128.074 5.04652C127.678 4.66773 127.479 4.21496 127.479 3.68821C127.479 3.16738 127.678 2.72053 128.074 2.34766C128.477 1.96887 128.959 1.77947 129.521 1.77947C130.084 1.77947 130.563 1.96887 130.96 2.34766C131.362 2.72053 131.563 3.16738 131.563 3.68821C131.563 4.21496 131.362 4.66773 130.96 5.04652C130.563 5.41939 130.084 5.60582 129.521 5.60582ZM141.686 7.36364V10.2045H133.474V7.36364H141.686ZM135.339 4.09659H139.121V16.8097C139.121 17.1589 139.174 17.4311 139.28 17.6264C139.387 17.8158 139.535 17.949 139.724 18.0259C139.92 18.1029 140.144 18.1413 140.399 18.1413C140.576 18.1413 140.754 18.1265 140.932 18.0969C141.109 18.0614 141.245 18.0348 141.34 18.017L141.935 20.8313C141.745 20.8905 141.479 20.9586 141.136 21.0355C140.793 21.1184 140.375 21.1687 139.884 21.1864C138.973 21.2219 138.174 21.1006 137.487 20.8224C136.806 20.5443 136.277 20.1122 135.898 19.5263C135.519 18.9403 135.333 18.2005 135.339 17.3068V4.09659Z" fill="black"/>
<path d="M39.8833 25.1647V4.66016M39.8833 4.66016L51.7667 16.4658M39.8833 4.66016L28 16.4658" stroke="black" stroke-width="6"/>
</svg>
