<svg width="68" height="67" viewBox="0 0 68 67" fill="none" xmlns="http://www.w3.org/2000/svg">
<g clip-path="url(#clip0_308_646)">
<path d="M33.9984 43.241C32.1735 43.2411 30.3877 42.6943 28.8668 41.6675C27.3454 40.6403 26.1565 39.178 25.4535 37.463C24.7504 35.7479 24.566 33.8594 24.9246 32.0372C25.2831 30.2152 26.1677 28.5443 27.4632 27.2349C28.7585 25.9256 30.4063 25.0365 32.197 24.6764C33.9876 24.3164 35.8438 24.5009 37.5318 25.2075C39.2201 25.9142 40.6665 27.1125 41.6858 28.654C42.7051 30.1957 43.2504 32.0104 43.2505 33.8686C43.2474 36.36 42.2667 38.7443 40.5299 40.4997C38.7938 42.2544 36.4445 43.2378 33.9984 43.241Z" stroke="#7F7F81" stroke-width="4"/>
<path d="M40.9184 60.207L40.1749 59.1262L38.8874 59.3776C35.6589 60.0079 32.3411 60.0079 29.1126 59.3776L27.8254 59.1263L27.0818 60.2067L24.1631 64.4478L16.4806 60.7096L17.9521 55.727L18.317 54.4915L17.343 53.6484C14.842 51.4836 12.769 48.8578 11.2348 45.9099L10.6317 44.7509L9.32808 44.8375L4.22916 45.1763L2.32417 36.7392L7.08556 34.7995L8.29124 34.3083L8.33011 33.007C8.42948 29.6806 9.16707 26.4059 10.5014 23.3649L11.0204 22.1819L10.1556 21.2223L6.69411 17.3816L12.0224 10.6282L16.4703 13.168L17.6166 13.8225L18.669 13.0259C21.3 11.0345 24.2876 9.57939 27.4655 8.7404L28.7265 8.4075L28.9304 7.11938L29.7408 2H38.2584L39.0696 7.11967L39.2737 8.40755L40.5345 8.7404C43.7124 9.57939 46.6999 11.0345 49.331 13.0259L50.3835 13.8226L51.5298 13.1679L55.9773 10.6279L61.3105 17.3821L57.8495 21.2223L56.9849 22.1816L57.5034 23.3644C58.837 26.406 59.5746 29.6809 59.6749 33.0076L59.7142 34.3085L60.9195 34.7995L65.6796 36.7387L63.7672 45.1764L58.6669 44.8375L57.3631 44.7509L56.76 45.9101C55.2262 48.8581 53.1533 51.4838 50.6522 53.6482L49.6779 54.4913L50.0428 55.727L51.5144 60.71L43.8359 64.4483L40.9184 60.207Z" stroke="#7F7F81" stroke-width="4"/>
</g>
<defs>
<clipPath id="clip0_308_646">
<rect width="68" height="67" rx="15" fill="white"/>
</clipPath>
</defs>
</svg>
