<svg width="1695" height="272" viewBox="0 0 1695 272" fill="none" xmlns="http://www.w3.org/2000/svg">
<path d="M15.9141 107.5C13.8047 107.5 11.8255 107.331 9.97656 106.992C8.15365 106.68 6.64323 106.276 5.44531 105.781L9.19531 93.3594C11.1484 93.9583 12.9063 94.2839 14.4688 94.3359C16.0573 94.388 17.4245 94.0234 18.5703 93.2422C19.7422 92.4609 20.6927 91.1328 21.4219 89.2578L22.3984 86.7188L0.875 25H18.375L30.7969 69.0625H31.4219L43.9609 25H61.5781L38.2578 91.4844C37.138 94.7135 35.6146 97.526 33.6875 99.9219C31.7865 102.344 29.3776 104.206 26.4609 105.508C23.5443 106.836 20.0286 107.5 15.9141 107.5ZM95.5039 86.1719C89.332 86.1719 84.0195 84.9219 79.5664 82.4219C75.1393 79.8958 71.7279 76.3281 69.332 71.7187C66.9362 67.0833 65.7383 61.6016 65.7383 55.2734C65.7383 49.1016 66.9362 43.6849 69.332 39.0234C71.7279 34.362 75.1003 30.7292 79.4492 28.125C83.8242 25.5208 88.9544 24.2188 94.8398 24.2188C98.7982 24.2188 102.483 24.8568 105.895 26.1328C109.332 27.3828 112.327 29.2708 114.879 31.7969C117.457 34.3229 119.462 37.5 120.895 41.3281C122.327 45.1302 123.043 49.5833 123.043 54.6875V59.2578H72.3789V48.9453H107.379C107.379 46.5495 106.858 44.4271 105.816 42.5781C104.775 40.7292 103.329 39.2839 101.48 38.2422C99.6576 37.1745 97.5352 36.6406 95.1133 36.6406C92.5872 36.6406 90.3477 37.2266 88.3945 38.3984C86.4674 39.5443 84.957 41.0937 83.8633 43.0469C82.7695 44.974 82.2096 47.1224 82.1836 49.4922V59.2969C82.1836 62.2656 82.7305 64.8307 83.8242 66.9922C84.944 69.1536 86.5195 70.8203 88.5508 71.9922C90.582 73.1641 92.9909 73.75 95.7773 73.75C97.6263 73.75 99.319 73.4896 100.855 72.9688C102.392 72.4479 103.707 71.6667 104.801 70.625C105.895 69.5833 106.728 68.3073 107.301 66.7969L122.691 67.8125C121.91 71.5104 120.309 74.7396 117.887 77.5C115.491 80.2344 112.392 82.3698 108.59 83.9063C104.814 85.4167 100.452 86.1719 95.5039 86.1719ZM183.824 42.1094L168.59 43.0469C168.329 41.7448 167.77 40.5729 166.91 39.5312C166.051 38.4635 164.918 37.6172 163.512 36.9922C162.132 36.3411 160.478 36.0156 158.551 36.0156C155.973 36.0156 153.798 36.5625 152.027 37.6562C150.257 38.724 149.371 40.1562 149.371 41.9531C149.371 43.3854 149.944 44.5964 151.09 45.5859C152.236 46.5755 154.202 47.3698 156.988 47.9687L167.848 50.1562C173.681 51.3542 178.03 53.2812 180.895 55.9375C183.759 58.5937 185.191 62.0833 185.191 66.4062C185.191 70.3385 184.033 73.7891 181.715 76.7578C179.423 79.7266 176.272 82.0443 172.262 83.7109C168.277 85.3516 163.681 86.1719 158.473 86.1719C150.53 86.1719 144.202 84.5182 139.488 81.2109C134.801 77.8776 132.053 73.3464 131.246 67.6172L147.613 66.7578C148.108 69.1797 149.306 71.0286 151.207 72.3047C153.108 73.5547 155.543 74.1797 158.512 74.1797C161.428 74.1797 163.772 73.6198 165.543 72.5C167.34 71.3542 168.251 69.8828 168.277 68.0859C168.251 66.5755 167.613 65.3385 166.363 64.375C165.113 63.3854 163.186 62.6302 160.582 62.1094L150.191 60.0391C144.332 58.8672 139.97 56.8359 137.105 53.9453C134.267 51.0547 132.848 47.3698 132.848 42.8906C132.848 39.0365 133.889 35.7161 135.973 32.9297C138.082 30.1432 141.038 27.9948 144.84 26.4844C148.668 24.974 153.147 24.2188 158.277 24.2188C165.855 24.2188 171.819 25.8203 176.168 29.0234C180.543 32.2266 183.095 36.5885 183.824 42.1094ZM213.756 74.0625L213.326 78.3594C212.988 81.7969 212.337 85.2214 211.373 88.6328C210.436 92.0703 209.446 95.1823 208.404 97.9688C207.389 100.755 206.568 102.943 205.943 104.531H195.162C195.553 102.995 196.087 100.846 196.764 98.0859C197.441 95.3516 198.079 92.2786 198.678 88.8672C199.277 85.4557 199.654 81.9792 199.811 78.4375L200.006 74.0625H213.756ZM260.943 107.5C258.834 107.5 256.855 107.331 255.006 106.992C253.183 106.68 251.673 106.276 250.475 105.781L254.225 93.3594C256.178 93.9583 257.936 94.2839 259.498 94.3359C261.087 94.388 262.454 94.0234 263.6 93.2422C264.771 92.4609 265.722 91.1328 266.451 89.2578L267.428 86.7188L245.904 25H263.404L275.826 69.0625H276.451L288.99 25H306.607L283.287 91.4844C282.167 94.7135 280.644 97.526 278.717 99.9219C276.816 102.344 274.407 104.206 271.49 105.508C268.574 106.836 265.058 107.5 260.943 107.5ZM340.299 86.1719C334.231 86.1719 328.984 84.8828 324.557 82.3047C320.156 79.7005 316.757 76.0807 314.361 71.4453C311.965 66.7839 310.768 61.3802 310.768 55.2344C310.768 49.0365 311.965 43.6198 314.361 38.9844C316.757 34.3229 320.156 30.7031 324.557 28.125C328.984 25.5208 334.231 24.2188 340.299 24.2188C346.367 24.2188 351.601 25.5208 356.002 28.125C360.429 30.7031 363.84 34.3229 366.236 38.9844C368.632 43.6198 369.83 49.0365 369.83 55.2344C369.83 61.3802 368.632 66.7839 366.236 71.4453C363.84 76.0807 360.429 79.7005 356.002 82.3047C351.601 84.8828 346.367 86.1719 340.299 86.1719ZM340.377 73.2812C343.137 73.2812 345.442 72.5 347.291 70.9375C349.14 69.349 350.533 67.1875 351.471 64.4531C352.434 61.7187 352.916 58.6068 352.916 55.1172C352.916 51.6276 352.434 48.5156 351.471 45.7812C350.533 43.0469 349.14 40.8854 347.291 39.2969C345.442 37.7083 343.137 36.9141 340.377 36.9141C337.59 36.9141 335.247 37.7083 333.346 39.2969C331.471 40.8854 330.051 43.0469 329.088 45.7812C328.15 48.5156 327.682 51.6276 327.682 55.1172C327.682 58.6068 328.15 61.7187 329.088 64.4531C330.051 67.1875 331.471 69.349 333.346 70.9375C335.247 72.5 337.59 73.2812 340.377 73.2812ZM419.127 59.4531V25H435.768V85H419.791V74.1016H419.166C417.812 77.6172 415.559 80.4427 412.408 82.5781C409.283 84.7135 405.468 85.7813 400.963 85.7813C396.952 85.7813 393.424 84.8698 390.377 83.0469C387.33 81.224 384.947 78.6328 383.229 75.2734C381.536 71.9141 380.676 67.8906 380.65 63.2031V25H397.291V60.2344C397.317 63.776 398.268 66.5755 400.143 68.6328C402.018 70.6901 404.531 71.7187 407.682 71.7187C409.687 71.7187 411.562 71.263 413.307 70.3516C415.051 69.4141 416.458 68.0339 417.525 66.2109C418.619 64.388 419.153 62.1354 419.127 59.4531ZM464.635 5V13.4375C464.635 15.8333 464.166 18.2812 463.229 20.7813C462.317 23.2552 461.093 25.599 459.557 27.8125C458.02 30 456.34 31.862 454.518 33.3984L447.174 29.0625C448.476 27.0052 449.622 24.7266 450.611 22.2266C451.627 19.7266 452.135 16.8229 452.135 13.5156V5H464.635ZM473.355 85V25H489.488V35.4687H490.113C491.207 31.7448 493.043 28.9323 495.621 27.0313C498.199 25.1042 501.168 24.1406 504.527 24.1406C505.361 24.1406 506.259 24.1927 507.223 24.2969C508.186 24.401 509.033 24.5443 509.762 24.7266V39.4922C508.98 39.2578 507.9 39.0495 506.52 38.8672C505.139 38.6849 503.876 38.5938 502.73 38.5938C500.283 38.5938 498.095 39.1276 496.168 40.1953C494.267 41.237 492.757 42.6953 491.637 44.5703C490.543 46.4453 489.996 48.6068 489.996 51.0547V85H473.355ZM542.916 86.1719C536.744 86.1719 531.432 84.9219 526.979 82.4219C522.551 79.8958 519.14 76.3281 516.744 71.7187C514.348 67.0833 513.15 61.6016 513.15 55.2734C513.15 49.1016 514.348 43.6849 516.744 39.0234C519.14 34.362 522.512 30.7292 526.861 28.125C531.236 25.5208 536.367 24.2188 542.252 24.2188C546.21 24.2188 549.895 24.8568 553.307 26.1328C556.744 27.3828 559.739 29.2708 562.291 31.7969C564.869 34.3229 566.874 37.5 568.307 41.3281C569.739 45.1302 570.455 49.5833 570.455 54.6875V59.2578H519.791V48.9453H554.791C554.791 46.5495 554.27 44.4271 553.229 42.5781C552.187 40.7292 550.742 39.2839 548.893 38.2422C547.07 37.1745 544.947 36.6406 542.525 36.6406C539.999 36.6406 537.76 37.2266 535.807 38.3984C533.88 39.5443 532.369 41.0937 531.275 43.0469C530.182 44.974 529.622 47.1224 529.596 49.4922V59.2969C529.596 62.2656 530.143 64.8307 531.236 66.9922C532.356 69.1536 533.932 70.8203 535.963 71.9922C537.994 73.1641 540.403 73.75 543.189 73.75C545.038 73.75 546.731 73.4896 548.268 72.9688C549.804 72.4479 551.119 71.6667 552.213 70.625C553.307 69.5833 554.14 68.3073 554.713 66.7969L570.104 67.8125C569.322 71.5104 567.721 74.7396 565.299 77.5C562.903 80.2344 559.804 82.3698 556.002 83.9063C552.226 85.4167 547.864 86.1719 542.916 86.1719ZM606.773 107.5V25H623.18V35.0781H623.922C624.651 33.4635 625.706 31.8229 627.086 30.1562C628.492 28.4635 630.315 27.0573 632.555 25.9375C634.82 24.7917 637.633 24.2188 640.992 24.2188C645.367 24.2188 649.404 25.3646 653.102 27.6563C656.799 29.9219 659.755 33.3464 661.969 37.9297C664.182 42.487 665.289 48.2031 665.289 55.0781C665.289 61.7708 664.208 67.4219 662.047 72.0312C659.911 76.6146 656.995 80.0911 653.297 82.4609C649.625 84.8047 645.51 85.9766 640.953 85.9766C637.724 85.9766 634.977 85.4427 632.711 84.375C630.471 83.3073 628.635 81.9661 627.203 80.3516C625.771 78.7109 624.677 77.0573 623.922 75.3906H623.414V107.5H606.773ZM623.063 55C623.063 58.5677 623.557 61.6797 624.547 64.3359C625.536 66.9922 626.969 69.0625 628.844 70.5469C630.719 72.0052 632.997 72.7344 635.68 72.7344C638.388 72.7344 640.68 71.9922 642.555 70.5078C644.43 68.9974 645.849 66.9141 646.813 64.2578C647.802 61.5755 648.297 58.4896 648.297 55C648.297 51.5365 647.815 48.4896 646.852 45.8594C645.888 43.2292 644.469 41.1719 642.594 39.6875C640.719 38.2031 638.414 37.4609 635.68 37.4609C632.971 37.4609 630.68 38.1771 628.805 39.6094C626.956 41.0417 625.536 43.0729 624.547 45.7031C623.557 48.3333 623.063 51.4323 623.063 55ZM676.383 85V25H692.516V35.4687H693.141C694.234 31.7448 696.07 28.9323 698.648 27.0313C701.227 25.1042 704.195 24.1406 707.555 24.1406C708.388 24.1406 709.286 24.1927 710.25 24.2969C711.214 24.401 712.06 24.5443 712.789 24.7266V39.4922C712.008 39.2578 710.927 39.0495 709.547 38.8672C708.167 38.6849 706.904 38.5938 705.758 38.5938C703.31 38.5938 701.122 39.1276 699.195 40.1953C697.294 41.237 695.784 42.6953 694.664 44.5703C693.57 46.4453 693.023 48.6068 693.023 51.0547V85H676.383ZM745.709 86.1719C739.641 86.1719 734.394 84.8828 729.967 82.3047C725.566 79.7005 722.167 76.0807 719.771 71.4453C717.376 66.7839 716.178 61.3802 716.178 55.2344C716.178 49.0365 717.376 43.6198 719.771 38.9844C722.167 34.3229 725.566 30.7031 729.967 28.125C734.394 25.5208 739.641 24.2188 745.709 24.2188C751.777 24.2188 757.011 25.5208 761.412 28.125C765.839 30.7031 769.251 34.3229 771.646 38.9844C774.042 43.6198 775.24 49.0365 775.24 55.2344C775.24 61.3802 774.042 66.7839 771.646 71.4453C769.251 76.0807 765.839 79.7005 761.412 82.3047C757.011 84.8828 751.777 86.1719 745.709 86.1719ZM745.787 73.2812C748.548 73.2812 750.852 72.5 752.701 70.9375C754.55 69.349 755.943 67.1875 756.881 64.4531C757.844 61.7187 758.326 58.6068 758.326 55.1172C758.326 51.6276 757.844 48.5156 756.881 45.7812C755.943 43.0469 754.55 40.8854 752.701 39.2969C750.852 37.7083 748.548 36.9141 745.787 36.9141C743.001 36.9141 740.657 37.7083 738.756 39.2969C736.881 40.8854 735.462 43.0469 734.498 45.7812C733.561 48.5156 733.092 51.6276 733.092 55.1172C733.092 58.6068 733.561 61.7187 734.498 64.4531C735.462 67.1875 736.881 69.349 738.756 70.9375C740.657 72.5 743.001 73.2812 745.787 73.2812ZM786.373 85V5H803.014V35.0781H803.521C804.251 33.4635 805.305 31.8229 806.686 30.1562C808.092 28.4635 809.915 27.0573 812.154 25.9375C814.42 24.7917 817.232 24.2188 820.592 24.2188C824.967 24.2188 829.003 25.3646 832.701 27.6563C836.399 29.9219 839.355 33.3464 841.568 37.9297C843.782 42.487 844.889 48.2031 844.889 55.0781C844.889 61.7708 843.808 67.4219 841.646 72.0312C839.511 76.6146 836.594 80.0911 832.896 82.4609C829.225 84.8047 825.11 85.9766 820.553 85.9766C817.324 85.9766 814.576 85.4427 812.311 84.375C810.071 83.3073 808.235 81.9661 806.803 80.3516C805.37 78.7109 804.277 77.0573 803.521 75.3906H802.779V85H786.373ZM802.662 55C802.662 58.5677 803.157 61.6797 804.146 64.3359C805.136 66.9922 806.568 69.0625 808.443 70.5469C810.318 72.0052 812.597 72.7344 815.279 72.7344C817.988 72.7344 820.279 71.9922 822.154 70.5078C824.029 68.9974 825.449 66.9141 826.412 64.2578C827.402 61.5755 827.896 58.4896 827.896 55C827.896 51.5365 827.415 48.4896 826.451 45.8594C825.488 43.2292 824.068 41.1719 822.193 39.6875C820.318 38.2031 818.014 37.4609 815.279 37.4609C812.571 37.4609 810.279 38.1771 808.404 39.6094C806.555 41.0417 805.136 43.0729 804.146 45.7031C803.157 48.3333 802.662 51.4323 802.662 55ZM873.102 86.1328C869.273 86.1328 865.862 85.4688 862.867 84.1406C859.872 82.7865 857.503 80.7943 855.758 78.1641C854.039 75.5078 853.18 72.2005 853.18 68.2422C853.18 64.9089 853.792 62.1094 855.016 59.8437C856.24 57.5781 857.906 55.7552 860.016 54.375C862.125 52.9948 864.521 51.9531 867.203 51.25C869.911 50.5469 872.75 50.0521 875.719 49.7656C879.208 49.401 882.021 49.0625 884.156 48.75C886.292 48.4115 887.841 47.9167 888.805 47.2656C889.768 46.6146 890.25 45.651 890.25 44.375V44.1406C890.25 41.6667 889.469 39.7526 887.906 38.3984C886.37 37.0443 884.182 36.3672 881.344 36.3672C878.349 36.3672 875.966 37.0312 874.195 38.3594C872.424 39.6615 871.253 41.3021 870.68 43.2812L855.289 42.0312C856.07 38.3854 857.607 35.2344 859.898 32.5781C862.19 29.8958 865.146 27.8385 868.766 26.4062C872.411 24.9479 876.63 24.2188 881.422 24.2188C884.755 24.2188 887.945 24.6094 890.992 25.3906C894.065 26.1719 896.786 27.3828 899.156 29.0234C901.552 30.6641 903.44 32.7734 904.82 35.3516C906.201 37.9036 906.891 40.9635 906.891 44.5312V85H891.109V76.6797H890.641C889.677 78.5547 888.388 80.2083 886.773 81.6406C885.159 83.0469 883.219 84.1536 880.953 84.9609C878.688 85.7422 876.07 86.1328 873.102 86.1328ZM877.867 74.6484C880.315 74.6484 882.477 74.1667 884.352 73.2031C886.227 72.2135 887.698 70.8854 888.766 69.2188C889.833 67.5521 890.367 65.6641 890.367 63.5547V57.1875C889.846 57.526 889.13 57.8385 888.219 58.125C887.333 58.3854 886.331 58.6328 885.211 58.8672C884.091 59.0755 882.971 59.2708 881.852 59.4531C880.732 59.6094 879.716 59.7526 878.805 59.8828C876.852 60.1693 875.146 60.625 873.688 61.25C872.229 61.875 871.096 62.7214 870.289 63.7891C869.482 64.8307 869.078 66.1328 869.078 67.6953C869.078 69.9609 869.898 71.6927 871.539 72.8906C873.206 74.0625 875.315 74.6484 877.867 74.6484ZM920.113 85V5H936.754V35.0781H937.262C937.991 33.4635 939.046 31.8229 940.426 30.1562C941.832 28.4635 943.655 27.0573 945.895 25.9375C948.16 24.7917 950.973 24.2188 954.332 24.2188C958.707 24.2188 962.743 25.3646 966.441 27.6563C970.139 29.9219 973.095 33.3464 975.309 37.9297C977.522 42.487 978.629 48.2031 978.629 55.0781C978.629 61.7708 977.548 67.4219 975.387 72.0312C973.251 76.6146 970.335 80.0911 966.637 82.4609C962.965 84.8047 958.85 85.9766 954.293 85.9766C951.064 85.9766 948.316 85.4427 946.051 84.375C943.811 83.3073 941.975 81.9661 940.543 80.3516C939.111 78.7109 938.017 77.0573 937.262 75.3906H936.52V85H920.113ZM936.402 55C936.402 58.5677 936.897 61.6797 937.887 64.3359C938.876 66.9922 940.309 69.0625 942.184 70.5469C944.059 72.0052 946.337 72.7344 949.02 72.7344C951.728 72.7344 954.02 71.9922 955.895 70.5078C957.77 68.9974 959.189 66.9141 960.152 64.2578C961.142 61.5755 961.637 58.4896 961.637 55C961.637 51.5365 961.155 48.4896 960.191 45.8594C959.228 43.2292 957.809 41.1719 955.934 39.6875C954.059 38.2031 951.754 37.4609 949.02 37.4609C946.311 37.4609 944.02 38.1771 942.145 39.6094C940.296 41.0417 938.876 43.0729 937.887 45.7031C936.897 48.3333 936.402 51.4323 936.402 55ZM1006.37 5V85H989.732V5H1006.37ZM1029.98 107.5C1027.87 107.5 1025.89 107.331 1024.04 106.992C1022.22 106.68 1020.71 106.276 1019.51 105.781L1023.26 93.3594C1025.21 93.9583 1026.97 94.2839 1028.53 94.3359C1030.12 94.388 1031.49 94.0234 1032.63 93.2422C1033.8 92.4609 1034.76 91.1328 1035.48 89.2578L1036.46 86.7188L1014.94 25H1032.44L1044.86 69.0625H1045.48L1058.02 25H1075.64L1052.32 91.4844C1051.2 94.7135 1049.68 97.526 1047.75 99.9219C1045.85 102.344 1043.44 104.206 1040.52 105.508C1037.61 106.836 1034.09 107.5 1029.98 107.5ZM1141.88 25V37.5H1104.85V25H1141.88ZM1113.33 85V20.6641C1113.33 16.3151 1114.17 12.7083 1115.87 9.84374C1117.58 6.97916 1119.93 4.83072 1122.9 3.39843C1125.87 1.96614 1129.24 1.24999 1133.01 1.24999C1135.57 1.24999 1137.9 1.44531 1140.01 1.83594C1142.14 2.22656 1143.73 2.57812 1144.77 2.89062L1141.8 15.3906C1141.15 15.1823 1140.34 14.987 1139.38 14.8047C1138.44 14.6224 1137.48 14.5312 1136.49 14.5312C1134.04 14.5312 1132.34 15.1042 1131.37 16.25C1130.41 17.3698 1129.93 18.9453 1129.93 20.9766V85H1113.33ZM1167.01 86.1328C1163.18 86.1328 1159.77 85.4688 1156.77 84.1406C1153.78 82.7865 1151.41 80.7943 1149.66 78.1641C1147.95 75.5078 1147.09 72.2005 1147.09 68.2422C1147.09 64.9089 1147.7 62.1094 1148.92 59.8437C1150.15 57.5781 1151.81 55.7552 1153.92 54.375C1156.03 52.9948 1158.43 51.9531 1161.11 51.25C1163.82 50.5469 1166.66 50.0521 1169.63 49.7656C1173.11 49.401 1175.93 49.0625 1178.06 48.75C1180.2 48.4115 1181.75 47.9167 1182.71 47.2656C1183.67 46.6146 1184.16 45.651 1184.16 44.375V44.1406C1184.16 41.6667 1183.38 39.7526 1181.81 38.3984C1180.28 37.0443 1178.09 36.3672 1175.25 36.3672C1172.26 36.3672 1169.87 37.0312 1168.1 38.3594C1166.33 39.6615 1165.16 41.3021 1164.59 43.2812L1149.2 42.0312C1149.98 38.3854 1151.51 35.2344 1153.8 32.5781C1156.1 29.8958 1159.05 27.8385 1162.67 26.4062C1166.32 24.9479 1170.54 24.2188 1175.33 24.2188C1178.66 24.2188 1181.85 24.6094 1184.9 25.3906C1187.97 26.1719 1190.69 27.3828 1193.06 29.0234C1195.46 30.6641 1197.35 32.7734 1198.73 35.3516C1200.11 37.9036 1200.8 40.9635 1200.8 44.5312V85H1185.02V76.6797H1184.55C1183.58 78.5547 1182.29 80.2083 1180.68 81.6406C1179.07 83.0469 1177.12 84.1536 1174.86 84.9609C1172.59 85.7422 1169.98 86.1328 1167.01 86.1328ZM1171.77 74.6484C1174.22 74.6484 1176.38 74.1667 1178.26 73.2031C1180.13 72.2135 1181.6 70.8854 1182.67 69.2188C1183.74 67.5521 1184.27 65.6641 1184.27 63.5547V57.1875C1183.75 57.526 1183.04 57.8385 1182.13 58.125C1181.24 58.3854 1180.24 58.6328 1179.12 58.8672C1178 59.0755 1176.88 59.2708 1175.76 59.4531C1174.64 59.6094 1173.62 59.7526 1172.71 59.8828C1170.76 60.1693 1169.05 60.625 1167.59 61.25C1166.14 61.875 1165 62.7214 1164.2 63.7891C1163.39 64.8307 1162.98 66.1328 1162.98 67.6953C1162.98 69.9609 1163.8 71.6927 1165.45 72.8906C1167.11 74.0625 1169.22 74.6484 1171.77 74.6484ZM1213.71 85V25H1229.57V35.5859H1230.27C1231.52 32.0703 1233.6 29.2969 1236.52 27.2656C1239.44 25.2344 1242.93 24.2188 1246.99 24.2188C1251.1 24.2188 1254.61 25.2474 1257.5 27.3047C1260.39 29.3359 1262.31 32.0964 1263.28 35.5859H1263.9C1265.13 32.1484 1267.34 29.401 1270.54 27.3437C1273.77 25.2604 1277.59 24.2188 1281.99 24.2188C1287.59 24.2188 1292.13 26.0026 1295.62 29.5703C1299.14 33.112 1300.89 38.138 1300.89 44.6484V85H1284.29V47.9297C1284.29 44.5964 1283.41 42.0964 1281.64 40.4297C1279.87 38.763 1277.65 37.9297 1275 37.9297C1271.98 37.9297 1269.62 38.8932 1267.93 40.8203C1266.23 42.7214 1265.39 45.2344 1265.39 48.3594V85H1249.25V47.5781C1249.25 44.6354 1248.41 42.2917 1246.71 40.5469C1245.05 38.8021 1242.85 37.9297 1240.11 37.9297C1238.26 37.9297 1236.6 38.3984 1235.11 39.3359C1233.65 40.2474 1232.5 41.5365 1231.64 43.2031C1230.78 44.8437 1230.35 46.7708 1230.35 48.9844V85H1213.71ZM1314.04 85V25H1330.68V85H1314.04ZM1322.4 17.2656C1319.92 17.2656 1317.8 16.4453 1316.03 14.8047C1314.29 13.138 1313.41 11.1458 1313.41 8.82812C1313.41 6.53645 1314.29 4.57031 1316.03 2.92969C1317.8 1.26302 1319.92 0.429683 1322.4 0.429683C1324.87 0.429683 1326.98 1.26302 1328.73 2.92969C1330.5 4.57031 1331.38 6.53645 1331.38 8.82812C1331.38 11.1458 1330.5 13.138 1328.73 14.8047C1326.98 16.4453 1324.87 17.2656 1322.4 17.2656ZM1360.65 5V85H1344.01V5H1360.65ZM1373.98 85V25H1390.62V85H1373.98ZM1382.34 17.2656C1379.87 17.2656 1377.74 16.4453 1375.97 14.8047C1374.23 13.138 1373.36 11.1458 1373.36 8.82812C1373.36 6.53645 1374.23 4.57031 1375.97 2.92969C1377.74 1.26302 1379.87 0.429683 1382.34 0.429683C1384.81 0.429683 1386.92 1.26302 1388.67 2.92969C1390.44 4.57031 1391.32 6.53645 1391.32 8.82812C1391.32 11.1458 1390.44 13.138 1388.67 14.8047C1386.92 16.4453 1384.81 17.2656 1382.34 17.2656ZM1421.06 86.1328C1417.23 86.1328 1413.82 85.4688 1410.83 84.1406C1407.83 82.7865 1405.46 80.7943 1403.72 78.1641C1402 75.5078 1401.14 72.2005 1401.14 68.2422C1401.14 64.9089 1401.75 62.1094 1402.97 59.8437C1404.2 57.5781 1405.87 55.7552 1407.97 54.375C1410.08 52.9948 1412.48 51.9531 1415.16 51.25C1417.87 50.5469 1420.71 50.0521 1423.68 49.7656C1427.17 49.401 1429.98 49.0625 1432.12 48.75C1434.25 48.4115 1435.8 47.9167 1436.76 47.2656C1437.73 46.6146 1438.21 45.651 1438.21 44.375V44.1406C1438.21 41.6667 1437.43 39.7526 1435.87 38.3984C1434.33 37.0443 1432.14 36.3672 1429.3 36.3672C1426.31 36.3672 1423.93 37.0312 1422.15 38.3594C1420.38 39.6615 1419.21 41.3021 1418.64 43.2812L1403.25 42.0312C1404.03 38.3854 1405.57 35.2344 1407.86 32.5781C1410.15 29.8958 1413.1 27.8385 1416.72 26.4062C1420.37 24.9479 1424.59 24.2188 1429.38 24.2188C1432.71 24.2188 1435.9 24.6094 1438.95 25.3906C1442.02 26.1719 1444.75 27.3828 1447.12 29.0234C1449.51 30.6641 1451.4 32.7734 1452.78 35.3516C1454.16 37.9036 1454.85 40.9635 1454.85 44.5312V85H1439.07V76.6797H1438.6C1437.64 78.5547 1436.35 80.2083 1434.73 81.6406C1433.12 83.0469 1431.18 84.1536 1428.91 84.9609C1426.65 85.7422 1424.03 86.1328 1421.06 86.1328ZM1425.83 74.6484C1428.27 74.6484 1430.44 74.1667 1432.31 73.2031C1434.19 72.2135 1435.66 70.8854 1436.72 69.2188C1437.79 67.5521 1438.33 65.6641 1438.33 63.5547V57.1875C1437.81 57.526 1437.09 57.8385 1436.18 58.125C1435.29 58.3854 1434.29 58.6328 1433.17 58.8672C1432.05 59.0755 1430.93 59.2708 1429.81 59.4531C1428.69 59.6094 1427.68 59.7526 1426.76 59.8828C1424.81 60.1693 1423.1 60.625 1421.65 61.25C1420.19 61.875 1419.06 62.7214 1418.25 63.7891C1417.44 64.8307 1417.04 66.1328 1417.04 67.6953C1417.04 69.9609 1417.86 71.6927 1419.5 72.8906C1421.16 74.0625 1423.27 74.6484 1425.83 74.6484ZM1467.76 85V25H1483.89V35.4687H1484.52C1485.61 31.7448 1487.45 28.9323 1490.03 27.0313C1492.6 25.1042 1495.57 24.1406 1498.93 24.1406C1499.76 24.1406 1500.66 24.1927 1501.63 24.2969C1502.59 24.401 1503.44 24.5443 1504.17 24.7266V39.4922C1503.38 39.2578 1502.3 39.0495 1500.92 38.8672C1499.54 38.6849 1498.28 38.5938 1497.13 38.5938C1494.69 38.5938 1492.5 39.1276 1490.57 40.1953C1488.67 41.237 1487.16 42.6953 1486.04 44.5703C1484.95 46.4453 1484.4 48.6068 1484.4 51.0547V85H1467.76ZM832.164 249L815.836 189H832.672L841.969 229.312H842.516L852.203 189H868.727L878.57 229.078H879.078L888.219 189H905.016L888.727 249H871.109L860.797 211.266H860.055L849.742 249H832.164ZM913.893 249V189H930.533V249H913.893ZM922.252 181.266C919.778 181.266 917.656 180.445 915.885 178.805C914.14 177.138 913.268 175.146 913.268 172.828C913.268 170.536 914.14 168.57 915.885 166.93C917.656 165.263 919.778 164.43 922.252 164.43C924.726 164.43 926.835 165.263 928.58 166.93C930.351 168.57 931.236 170.536 931.236 172.828C931.236 175.146 930.351 177.138 928.58 178.805C926.835 180.445 924.726 181.266 922.252 181.266ZM975.777 189V201.5H939.645V189H975.777ZM947.848 174.625H964.488V230.562C964.488 232.099 964.723 233.297 965.191 234.156C965.66 234.99 966.311 235.576 967.145 235.914C968.004 236.253 968.993 236.422 970.113 236.422C970.895 236.422 971.676 236.357 972.457 236.227C973.238 236.07 973.837 235.953 974.254 235.875L976.871 248.258C976.038 248.518 974.866 248.818 973.355 249.156C971.845 249.521 970.009 249.742 967.848 249.82C963.837 249.977 960.322 249.443 957.301 248.219C954.306 246.995 951.975 245.094 950.309 242.516C948.642 239.937 947.822 236.682 947.848 232.75V174.625ZM1004.55 214.313V249H987.906V169H1004.08V199.586H1004.78C1006.14 196.044 1008.32 193.271 1011.34 191.266C1014.36 189.234 1018.15 188.219 1022.71 188.219C1026.88 188.219 1030.51 189.13 1033.61 190.953C1036.73 192.75 1039.16 195.341 1040.88 198.727C1042.62 202.086 1043.48 206.109 1043.45 210.797V249H1026.81V213.766C1026.84 210.068 1025.9 207.19 1024 205.133C1022.13 203.076 1019.49 202.047 1016.11 202.047C1013.84 202.047 1011.84 202.529 1010.09 203.492C1008.38 204.456 1007.02 205.862 1006.03 207.711C1005.07 209.534 1004.57 211.734 1004.55 214.313ZM1082.01 271.5V189H1098.41V199.078H1099.16C1099.89 197.464 1100.94 195.823 1102.32 194.156C1103.73 192.464 1105.55 191.057 1107.79 189.938C1110.05 188.792 1112.87 188.219 1116.23 188.219C1120.6 188.219 1124.64 189.365 1128.34 191.656C1132.03 193.922 1134.99 197.346 1137.2 201.93C1139.42 206.487 1140.52 212.203 1140.52 219.078C1140.52 225.771 1139.44 231.422 1137.28 236.031C1135.15 240.615 1132.23 244.091 1128.53 246.461C1124.86 248.805 1120.74 249.977 1116.19 249.977C1112.96 249.977 1110.21 249.443 1107.95 248.375C1105.71 247.307 1103.87 245.966 1102.44 244.352C1101.01 242.711 1099.91 241.057 1099.16 239.391H1098.65V271.5H1082.01ZM1098.3 219C1098.3 222.568 1098.79 225.68 1099.78 228.336C1100.77 230.992 1102.2 233.062 1104.08 234.547C1105.95 236.005 1108.23 236.734 1110.91 236.734C1113.62 236.734 1115.91 235.992 1117.79 234.508C1119.66 232.997 1121.08 230.914 1122.05 228.258C1123.04 225.576 1123.53 222.49 1123.53 219C1123.53 215.536 1123.05 212.49 1122.09 209.859C1121.12 207.229 1119.7 205.172 1117.83 203.687C1115.95 202.203 1113.65 201.461 1110.91 201.461C1108.21 201.461 1105.91 202.177 1104.04 203.609C1102.19 205.042 1100.77 207.073 1099.78 209.703C1098.79 212.333 1098.3 215.432 1098.3 219ZM1190.09 223.453V189H1206.73V249H1190.76V238.102H1190.13C1188.78 241.617 1186.53 244.443 1183.38 246.578C1180.25 248.714 1176.43 249.781 1171.93 249.781C1167.92 249.781 1164.39 248.87 1161.34 247.047C1158.3 245.224 1155.91 242.633 1154.2 239.273C1152.5 235.914 1151.64 231.891 1151.62 227.203V189H1168.26V224.234C1168.28 227.776 1169.23 230.576 1171.11 232.633C1172.98 234.69 1175.5 235.719 1178.65 235.719C1180.65 235.719 1182.53 235.263 1184.27 234.352C1186.02 233.414 1187.42 232.034 1188.49 230.211C1189.59 228.388 1190.12 226.135 1190.09 223.453ZM1269.97 206.109L1254.73 207.047C1254.47 205.745 1253.91 204.573 1253.05 203.531C1252.19 202.464 1251.06 201.617 1249.65 200.992C1248.27 200.341 1246.62 200.016 1244.69 200.016C1242.12 200.016 1239.94 200.562 1238.17 201.656C1236.4 202.724 1235.51 204.156 1235.51 205.953C1235.51 207.385 1236.09 208.596 1237.23 209.586C1238.38 210.576 1240.34 211.37 1243.13 211.969L1253.99 214.156C1259.82 215.354 1264.17 217.281 1267.04 219.937C1269.9 222.594 1271.33 226.083 1271.33 230.406C1271.33 234.339 1270.18 237.789 1267.86 240.758C1265.57 243.727 1262.41 246.044 1258.4 247.711C1254.42 249.352 1249.82 250.172 1244.62 250.172C1236.67 250.172 1230.34 248.518 1225.63 245.211C1220.94 241.878 1218.2 237.346 1217.39 231.617L1233.76 230.758C1234.25 233.18 1235.45 235.029 1237.35 236.305C1239.25 237.555 1241.69 238.18 1244.65 238.18C1247.57 238.18 1249.91 237.62 1251.69 236.5C1253.48 235.354 1254.39 233.883 1254.42 232.086C1254.39 230.576 1253.76 229.339 1252.51 228.375C1251.26 227.385 1249.33 226.63 1246.72 226.109L1236.33 224.039C1230.47 222.867 1226.11 220.836 1223.25 217.945C1220.41 215.055 1218.99 211.37 1218.99 206.891C1218.99 203.036 1220.03 199.716 1222.12 196.93C1224.22 194.143 1227.18 191.995 1230.98 190.484C1234.81 188.974 1239.29 188.219 1244.42 188.219C1252 188.219 1257.96 189.82 1262.31 193.023C1266.69 196.227 1269.24 200.589 1269.97 206.109ZM1298.45 214.313V249H1281.81V169H1297.98V199.586H1298.69C1300.04 196.044 1302.23 193.271 1305.25 191.266C1308.27 189.234 1312.06 188.219 1316.62 188.219C1320.78 188.219 1324.42 189.13 1327.52 190.953C1330.64 192.75 1333.06 195.341 1334.78 198.727C1336.53 202.086 1337.39 206.109 1337.36 210.797V249H1320.72V213.766C1320.74 210.068 1319.81 207.19 1317.91 205.133C1316.03 203.076 1313.4 202.047 1310.02 202.047C1307.75 202.047 1305.74 202.529 1304 203.492C1302.28 204.456 1300.93 205.862 1299.94 207.711C1298.97 209.534 1298.48 211.734 1298.45 214.313ZM1407.83 189V201.5H1371.7V189H1407.83ZM1379.9 174.625H1396.54V230.562C1396.54 232.099 1396.77 233.297 1397.24 234.156C1397.71 234.99 1398.36 235.576 1399.2 235.914C1400.05 236.253 1401.04 236.422 1402.16 236.422C1402.95 236.422 1403.73 236.357 1404.51 236.227C1405.29 236.07 1405.89 235.953 1406.3 235.875L1408.92 248.258C1408.09 248.518 1406.92 248.818 1405.41 249.156C1403.9 249.521 1402.06 249.742 1399.9 249.82C1395.89 249.977 1392.37 249.443 1389.35 248.219C1386.36 246.995 1384.03 245.094 1382.36 242.516C1380.69 239.937 1379.87 236.682 1379.9 232.75V174.625ZM1418.67 249V189H1434.8V199.469H1435.43C1436.52 195.745 1438.36 192.932 1440.93 191.031C1443.51 189.104 1446.48 188.141 1449.84 188.141C1450.67 188.141 1451.57 188.193 1452.54 188.297C1453.5 188.401 1454.35 188.544 1455.07 188.727V203.492C1454.29 203.258 1453.21 203.049 1451.83 202.867C1450.45 202.685 1449.19 202.594 1448.04 202.594C1445.6 202.594 1443.41 203.128 1441.48 204.195C1439.58 205.237 1438.07 206.695 1436.95 208.57C1435.86 210.445 1435.31 212.607 1435.31 215.055V249H1418.67ZM1479.07 250.133C1475.24 250.133 1471.83 249.469 1468.83 248.141C1465.84 246.786 1463.47 244.794 1461.72 242.164C1460.01 239.508 1459.15 236.201 1459.15 232.242C1459.15 228.909 1459.76 226.109 1460.98 223.844C1462.21 221.578 1463.87 219.755 1465.98 218.375C1468.09 216.995 1470.49 215.953 1473.17 215.25C1475.88 214.547 1478.72 214.052 1481.69 213.766C1485.18 213.401 1487.99 213.062 1490.12 212.75C1492.26 212.411 1493.81 211.917 1494.77 211.266C1495.74 210.615 1496.22 209.651 1496.22 208.375V208.141C1496.22 205.667 1495.44 203.753 1493.87 202.398C1492.34 201.044 1490.15 200.367 1487.31 200.367C1484.32 200.367 1481.93 201.031 1480.16 202.359C1478.39 203.661 1477.22 205.302 1476.65 207.281L1461.26 206.031C1462.04 202.385 1463.57 199.234 1465.87 196.578C1468.16 193.896 1471.11 191.839 1474.73 190.406C1478.38 188.948 1482.6 188.219 1487.39 188.219C1490.72 188.219 1493.91 188.609 1496.96 189.391C1500.03 190.172 1502.75 191.383 1505.12 193.023C1507.52 194.664 1509.41 196.773 1510.79 199.352C1512.17 201.904 1512.86 204.964 1512.86 208.531V249H1497.08V240.68H1496.61C1495.64 242.555 1494.35 244.208 1492.74 245.641C1491.13 247.047 1489.19 248.154 1486.92 248.961C1484.65 249.742 1482.04 250.133 1479.07 250.133ZM1483.83 238.648C1486.28 238.648 1488.44 238.167 1490.32 237.203C1492.19 236.214 1493.66 234.885 1494.73 233.219C1495.8 231.552 1496.33 229.664 1496.33 227.555V221.188C1495.81 221.526 1495.1 221.839 1494.19 222.125C1493.3 222.385 1492.3 222.633 1491.18 222.867C1490.06 223.076 1488.94 223.271 1487.82 223.453C1486.7 223.609 1485.68 223.753 1484.77 223.883C1482.82 224.169 1481.11 224.625 1479.65 225.25C1478.2 225.875 1477.06 226.721 1476.26 227.789C1475.45 228.831 1475.04 230.133 1475.04 231.695C1475.04 233.961 1475.87 235.693 1477.51 236.891C1479.17 238.062 1481.28 238.648 1483.83 238.648ZM1558.03 189V201.5H1521V189H1558.03ZM1529.48 249V184.664C1529.48 180.315 1530.32 176.708 1532.02 173.844C1533.74 170.979 1536.08 168.831 1539.05 167.398C1542.02 165.966 1545.39 165.25 1549.17 165.25C1551.72 165.25 1554.05 165.445 1556.16 165.836C1558.29 166.227 1559.88 166.578 1560.92 166.891L1557.96 179.391C1557.3 179.182 1556.5 178.987 1555.53 178.805C1554.6 178.622 1553.63 178.531 1552.64 178.531C1550.19 178.531 1548.49 179.104 1547.53 180.25C1546.56 181.37 1546.08 182.945 1546.08 184.977V249H1529.48ZM1600.46 189V201.5H1563.43V189H1600.46ZM1571.91 249V184.664C1571.91 180.315 1572.76 176.708 1574.45 173.844C1576.17 170.979 1578.51 168.831 1581.48 167.398C1584.45 165.966 1587.82 165.25 1591.6 165.25C1594.15 165.25 1596.48 165.445 1598.59 165.836C1600.73 166.227 1602.31 166.578 1603.36 166.891L1600.39 179.391C1599.74 179.182 1598.93 178.987 1597.96 178.805C1597.03 178.622 1596.06 178.531 1595.07 178.531C1592.63 178.531 1590.92 179.104 1589.96 180.25C1588.99 181.37 1588.51 182.945 1588.51 184.977V249H1571.91ZM1610.63 249V189H1627.27V249H1610.63ZM1618.99 181.266C1616.52 181.266 1614.39 180.445 1612.62 178.805C1610.88 177.138 1610.01 175.146 1610.01 172.828C1610.01 170.536 1610.88 168.57 1612.62 166.93C1614.39 165.263 1616.52 164.43 1618.99 164.43C1621.46 164.43 1623.57 165.263 1625.32 166.93C1627.09 168.57 1627.97 170.536 1627.97 172.828C1627.97 175.146 1627.09 177.138 1625.32 178.805C1623.57 180.445 1621.46 181.266 1618.99 181.266ZM1667.71 250.172C1661.57 250.172 1656.28 248.87 1651.85 246.266C1647.45 243.635 1644.07 239.99 1641.7 235.328C1639.35 230.667 1638.18 225.302 1638.18 219.234C1638.18 213.089 1639.36 207.698 1641.73 203.062C1644.13 198.401 1647.53 194.768 1651.93 192.164C1656.33 189.534 1661.57 188.219 1667.63 188.219C1672.87 188.219 1677.45 189.169 1681.38 191.07C1685.32 192.971 1688.43 195.641 1690.72 199.078C1693.01 202.516 1694.27 206.552 1694.51 211.188H1678.8C1678.36 208.193 1677.19 205.784 1675.29 203.961C1673.41 202.112 1670.95 201.187 1667.91 201.187C1665.33 201.187 1663.08 201.891 1661.15 203.297C1659.25 204.677 1657.76 206.695 1656.7 209.352C1655.63 212.008 1655.09 215.224 1655.09 219C1655.09 222.828 1655.61 226.083 1656.66 228.766C1657.72 231.448 1659.22 233.492 1661.15 234.898C1663.08 236.305 1665.33 237.008 1667.91 237.008C1669.81 237.008 1671.51 236.617 1673.02 235.836C1674.56 235.055 1675.82 233.922 1676.81 232.437C1677.83 230.927 1678.49 229.117 1678.8 227.008H1694.51C1694.25 231.591 1693 235.628 1690.76 239.117C1688.54 242.581 1685.48 245.289 1681.58 247.242C1677.67 249.195 1673.05 250.172 1667.71 250.172Z" fill="white"/>
</svg>
