<svg width="1445" height="224" viewBox="0 0 1445 224" fill="none" xmlns="http://www.w3.org/2000/svg">
<rect x="15" width="1430" height="224" fill="#FF8787"/>
<path d="M20.3288 44.3636V50.9545H1.27699V44.3636H20.3288ZM5.60227 36.7841H14.3764V66.2784C14.3764 67.0885 14.5 67.7202 14.7472 68.1733C14.9943 68.6127 15.3376 68.9216 15.777 69.1001C16.2301 69.2786 16.7519 69.3679 17.3423 69.3679C17.7543 69.3679 18.1662 69.3336 18.5781 69.2649C18.9901 69.1825 19.3059 69.1207 19.5256 69.0795L20.9055 75.6087C20.4661 75.746 19.8482 75.9039 19.0518 76.0824C18.2554 76.2746 17.2874 76.3913 16.1477 76.4325C14.0331 76.5149 12.1795 76.2334 10.5866 75.5881C9.00758 74.9427 7.77865 73.9403 6.89986 72.581C6.02107 71.2216 5.58854 69.5052 5.60227 67.4318V36.7841ZM35.4982 57.7102V76H26.7241V33.8182H35.2511V49.9453H35.6218C36.3358 48.0779 37.4892 46.6155 39.082 45.5582C40.6748 44.4872 42.6727 43.9517 45.0756 43.9517C47.2726 43.9517 49.1881 44.4323 50.8221 45.3935C52.4698 46.3409 53.7468 47.7071 54.6531 49.4922C55.573 51.2635 56.0262 53.3849 56.0124 55.8565V76H47.2383V57.4219C47.252 55.4721 46.7577 53.9548 45.7553 52.87C44.7667 51.7853 43.3799 51.2429 41.5948 51.2429C40.4002 51.2429 39.3429 51.4969 38.4229 52.005C37.5167 52.513 36.8027 53.2545 36.2809 54.2294C35.7728 55.1906 35.512 56.3509 35.4982 57.7102ZM77.3351 76.6179C74.0808 76.6179 71.2797 75.9588 68.9316 74.6406C66.5974 73.3087 64.7986 71.4276 63.5353 68.9972C62.2721 66.553 61.6404 63.6626 61.6404 60.326C61.6404 57.0717 62.2721 54.2157 63.5353 51.7578C64.7986 49.3 66.5768 47.3845 68.8699 46.0114C71.1767 44.6383 73.8817 43.9517 76.9849 43.9517C79.072 43.9517 81.015 44.2881 82.8137 44.9609C84.6262 45.62 86.2053 46.6155 87.551 47.9474C88.9103 49.2794 89.9676 50.9545 90.7228 52.973C91.478 54.9777 91.8556 57.3258 91.8556 60.017V62.4268H65.1419V56.9893H83.5964C83.5964 55.7261 83.3218 54.607 82.7726 53.6321C82.2233 52.6572 81.4612 51.8951 80.4863 51.3459C79.5252 50.7829 78.4061 50.5014 77.1291 50.5014C75.7972 50.5014 74.6163 50.8104 73.5865 51.4283C72.5704 52.0324 71.774 52.8494 71.1973 53.8793C70.6206 54.8954 70.3253 56.0282 70.3116 57.2777V62.4474C70.3116 64.0128 70.6 65.3653 71.1767 66.505C71.7671 67.6446 72.5978 68.5234 73.6689 69.1413C74.7399 69.7592 76.01 70.0682 77.4792 70.0682C78.4541 70.0682 79.3467 69.9309 80.1568 69.6562C80.9669 69.3816 81.6603 68.9697 82.237 68.4205C82.8137 67.8712 83.2531 67.1984 83.5552 66.402L91.6703 66.9375C91.2583 68.8873 90.4139 70.59 89.1369 72.0455C87.8736 73.4872 86.2396 74.6132 84.2349 75.4233C82.2439 76.2197 79.944 76.6179 77.3351 76.6179ZM123.904 53.3849L115.871 53.8793C115.734 53.1927 115.439 52.5748 114.986 52.0256C114.532 51.4626 113.935 51.0163 113.194 50.6868C112.466 50.3435 111.594 50.1719 110.578 50.1719C109.219 50.1719 108.072 50.4602 107.138 51.0369C106.205 51.5999 105.738 52.3551 105.738 53.3026C105.738 54.0578 106.04 54.6963 106.644 55.218C107.248 55.7398 108.285 56.1586 109.754 56.4744L115.48 57.6278C118.556 58.2595 120.849 59.2756 122.359 60.6761C123.87 62.0767 124.625 63.9167 124.625 66.196C124.625 68.2694 124.014 70.0888 122.792 71.6541C121.583 73.2195 119.922 74.4415 117.807 75.3203C115.706 76.1854 113.283 76.6179 110.537 76.6179C106.349 76.6179 103.012 75.746 100.527 74.0021C98.0552 72.2446 96.6066 69.8554 96.1809 66.8345L104.811 66.3814C105.072 67.6584 105.703 68.6333 106.706 69.3061C107.708 69.9652 108.992 70.2947 110.557 70.2947C112.095 70.2947 113.331 69.9995 114.265 69.4091C115.212 68.8049 115.693 68.0291 115.706 67.0817C115.693 66.2853 115.356 65.633 114.697 65.125C114.038 64.6032 113.022 64.205 111.649 63.9304L106.17 62.8388C103.081 62.2209 100.781 61.1499 99.2704 59.6257C97.7737 58.1016 97.0254 56.1586 97.0254 53.7969C97.0254 51.7647 97.5746 50.014 98.6731 48.5447C99.7853 47.0755 101.344 45.9427 103.349 45.1463C105.367 44.3499 107.729 43.9517 110.434 43.9517C114.43 43.9517 117.574 44.7962 119.867 46.4851C122.174 48.174 123.519 50.474 123.904 53.3849ZM144.567 76.6179C141.313 76.6179 138.512 75.9588 136.164 74.6406C133.83 73.3087 132.031 71.4276 130.768 68.9972C129.504 66.553 128.873 63.6626 128.873 60.326C128.873 57.0717 129.504 54.2157 130.768 51.7578C132.031 49.3 133.809 47.3845 136.102 46.0114C138.409 44.6383 141.114 43.9517 144.217 43.9517C146.304 43.9517 148.247 44.2881 150.046 44.9609C151.859 45.62 153.438 46.6155 154.783 47.9474C156.143 49.2794 157.2 50.9545 157.955 52.973C158.71 54.9777 159.088 57.3258 159.088 60.017V62.4268H132.374V56.9893H150.829C150.829 55.7261 150.554 54.607 150.005 53.6321C149.456 52.6572 148.694 51.8951 147.719 51.3459C146.758 50.7829 145.638 50.5014 144.362 50.5014C143.03 50.5014 141.849 50.8104 140.819 51.4283C139.803 52.0324 139.006 52.8494 138.43 53.8793C137.853 54.8954 137.558 56.0282 137.544 57.2777V62.4474C137.544 64.0128 137.832 65.3653 138.409 66.505C139 67.6446 139.83 68.5234 140.901 69.1413C141.972 69.7592 143.242 70.0682 144.712 70.0682C145.687 70.0682 146.579 69.9309 147.389 69.6562C148.199 69.3816 148.893 68.9697 149.469 68.4205C150.046 67.8712 150.486 67.1984 150.788 66.402L158.903 66.9375C158.491 68.8873 157.646 70.59 156.369 72.0455C155.106 73.4872 153.472 74.6132 151.467 75.4233C149.476 76.2197 147.176 76.6179 144.567 76.6179ZM187.259 76.5973C185.241 76.5973 183.442 76.2472 181.863 75.5469C180.284 74.8329 179.034 73.7824 178.114 72.3956C177.208 70.995 176.755 69.2512 176.755 67.1641C176.755 65.4065 177.077 63.9304 177.723 62.7358C178.368 61.5412 179.247 60.58 180.359 59.8523C181.471 59.1245 182.735 58.5753 184.149 58.2045C185.577 57.8338 187.074 57.5729 188.639 57.4219C190.479 57.2296 191.962 57.0511 193.088 56.8864C194.214 56.7079 195.031 56.447 195.539 56.1037C196.047 55.7604 196.301 55.2524 196.301 54.5795V54.456C196.301 53.1515 195.889 52.1423 195.065 51.4283C194.255 50.7143 193.102 50.3572 191.605 50.3572C190.026 50.3572 188.769 50.7074 187.836 51.4077C186.902 52.0942 186.284 52.9593 185.982 54.0028L177.867 53.3438C178.279 51.4214 179.089 49.7599 180.297 48.3594C181.506 46.9451 183.064 45.8603 184.973 45.1051C186.895 44.3362 189.12 43.9517 191.646 43.9517C193.404 43.9517 195.086 44.1577 196.692 44.5696C198.313 44.9815 199.747 45.62 200.997 46.4851C202.26 47.3501 203.256 48.4624 203.983 49.8217C204.711 51.1674 205.075 52.7808 205.075 54.6619V76H196.754V71.6129H196.507C195.999 72.6016 195.319 73.4735 194.468 74.2287C193.617 74.9702 192.594 75.5537 191.399 75.9794C190.204 76.3913 188.824 76.5973 187.259 76.5973ZM189.772 70.5419C191.063 70.5419 192.202 70.2879 193.191 69.7798C194.18 69.258 194.955 68.5578 195.518 67.679C196.081 66.8002 196.363 65.8047 196.363 64.6925V61.3352C196.088 61.5137 195.711 61.6785 195.23 61.8295C194.763 61.9669 194.234 62.0973 193.644 62.2209C193.054 62.3307 192.463 62.4337 191.873 62.5298C191.282 62.6122 190.747 62.6877 190.266 62.7564C189.236 62.9074 188.337 63.1477 187.568 63.4773C186.799 63.8068 186.202 64.2531 185.776 64.8161C185.35 65.3653 185.138 66.0518 185.138 66.8757C185.138 68.0703 185.57 68.9834 186.435 69.6151C187.314 70.233 188.426 70.5419 189.772 70.5419ZM220.656 57.7102V76H211.882V44.3636H220.244V49.9453H220.615C221.316 48.1053 222.49 46.6499 224.137 45.5788C225.785 44.4941 227.783 43.9517 230.131 43.9517C232.328 43.9517 234.243 44.4323 235.877 45.3935C237.511 46.3546 238.781 47.7277 239.688 49.5128C240.594 51.2841 241.047 53.3987 241.047 55.8565V76H232.273V57.4219C232.287 55.4858 231.792 53.9754 230.79 52.8906C229.788 51.7921 228.408 51.2429 226.65 51.2429C225.469 51.2429 224.426 51.4969 223.519 52.005C222.627 52.513 221.927 53.2545 221.419 54.2294C220.924 55.1906 220.67 56.3509 220.656 57.7102ZM256.737 57.7102V76H247.962V44.3636H256.325V49.9453H256.695C257.396 48.1053 258.57 46.6499 260.217 45.5788C261.865 44.4941 263.863 43.9517 266.211 43.9517C268.408 43.9517 270.323 44.4323 271.957 45.3935C273.591 46.3546 274.862 47.7277 275.768 49.5128C276.674 51.2841 277.127 53.3987 277.127 55.8565V76H268.353V57.4219C268.367 55.4858 267.872 53.9754 266.87 52.8906C265.868 51.7921 264.488 51.2429 262.73 51.2429C261.549 51.2429 260.506 51.4969 259.599 52.005C258.707 52.513 258.007 53.2545 257.499 54.2294C257.004 55.1906 256.75 56.3509 256.737 57.7102ZM298.336 76.6179C295.137 76.6179 292.37 75.9382 290.036 74.5788C287.715 73.2057 285.924 71.2971 284.66 68.853C283.397 66.3951 282.765 63.5459 282.765 60.3054C282.765 57.0374 283.397 54.1813 284.66 51.7372C285.924 49.2794 287.715 47.3707 290.036 46.0114C292.37 44.6383 295.137 43.9517 298.336 43.9517C301.536 43.9517 304.296 44.6383 306.616 46.0114C308.951 47.3707 310.749 49.2794 312.013 51.7372C313.276 54.1813 313.907 57.0374 313.907 60.3054C313.907 63.5459 313.276 66.3951 312.013 68.853C310.749 71.2971 308.951 73.2057 306.616 74.5788C304.296 75.9382 301.536 76.6179 298.336 76.6179ZM298.378 69.821C299.833 69.821 301.048 69.4091 302.023 68.5852C302.998 67.7476 303.733 66.608 304.227 65.1662C304.735 63.7244 304.989 62.0836 304.989 60.2436C304.989 58.4036 304.735 56.7628 304.227 55.321C303.733 53.8793 302.998 52.7396 302.023 51.902C301.048 51.0644 299.833 50.6456 298.378 50.6456C296.908 50.6456 295.673 51.0644 294.67 51.902C293.682 52.7396 292.933 53.8793 292.425 55.321C291.931 56.7628 291.684 58.4036 291.684 60.2436C291.684 62.0836 291.931 63.7244 292.425 65.1662C292.933 66.608 293.682 67.7476 294.67 68.5852C295.673 69.4091 296.908 69.821 298.378 69.821ZM324.01 87.8636C322.898 87.8636 321.854 87.7744 320.879 87.5959C319.918 87.4311 319.122 87.2183 318.49 86.9574L320.468 80.4077C321.497 80.7235 322.424 80.8951 323.248 80.9226C324.086 80.95 324.807 80.7578 325.411 80.3459C326.029 79.9339 326.53 79.2337 326.914 78.245L327.429 76.9062L316.08 44.3636H325.308L331.857 67.5966H332.187L338.798 44.3636H348.088L335.791 79.419C335.201 81.1217 334.398 82.6046 333.382 83.8679C332.379 85.1449 331.109 86.1267 329.571 86.8132C328.033 87.5135 326.18 87.8636 324.01 87.8636ZM352.578 76V44.3636H361.352V76H352.578ZM356.985 40.2855C355.681 40.2855 354.562 39.853 353.628 38.9879C352.708 38.1091 352.248 37.0587 352.248 35.8366C352.248 34.6283 352.708 33.5916 353.628 32.7266C354.562 31.8478 355.681 31.4084 356.985 31.4084C358.29 31.4084 359.402 31.8478 360.322 32.7266C361.256 33.5916 361.722 34.6283 361.722 35.8366C361.722 37.0587 361.256 38.1091 360.322 38.9879C359.402 39.853 358.29 40.2855 356.985 40.2855ZM377.154 57.7102V76H368.38V44.3636H376.743V49.9453H377.113C377.814 48.1053 378.988 46.6499 380.635 45.5788C382.283 44.4941 384.281 43.9517 386.629 43.9517C388.826 43.9517 390.741 44.4323 392.375 45.3935C394.009 46.3546 395.279 47.7277 396.186 49.5128C397.092 51.2841 397.545 53.3987 397.545 55.8565V76H388.771V57.4219C388.785 55.4858 388.29 53.9754 387.288 52.8906C386.286 51.7921 384.906 51.2429 383.148 51.2429C381.967 51.2429 380.924 51.4969 380.017 52.005C379.125 52.513 378.425 53.2545 377.917 54.2294C377.422 55.1906 377.168 56.3509 377.154 57.7102ZM418.713 88.5227C415.871 88.5227 413.434 88.1314 411.401 87.3487C409.383 86.5798 407.776 85.5294 406.582 84.1974C405.387 82.8655 404.611 81.3688 404.254 79.7074L412.369 78.6158C412.617 79.2474 413.008 79.8378 413.544 80.3871C414.079 80.9363 414.786 81.3757 415.665 81.7053C416.557 82.0485 417.642 82.2202 418.919 82.2202C420.828 82.2202 422.4 81.7533 423.636 80.8196C424.885 79.8996 425.51 78.3549 425.51 76.1854V70.3977H425.139C424.755 71.2765 424.178 72.1072 423.409 72.8899C422.64 73.6726 421.652 74.3111 420.443 74.8054C419.235 75.2997 417.793 75.5469 416.118 75.5469C413.743 75.5469 411.58 74.9976 409.63 73.8991C407.694 72.7869 406.149 71.0911 404.996 68.8118C403.856 66.5187 403.286 63.6214 403.286 60.12C403.286 56.5362 403.87 53.5428 405.037 51.1399C406.204 48.737 407.756 46.9382 409.692 45.7436C411.642 44.549 413.777 43.9517 416.097 43.9517C417.869 43.9517 419.352 44.2538 420.546 44.858C421.741 45.4484 422.702 46.1899 423.43 47.0824C424.171 47.9612 424.741 48.8262 425.139 49.6776H425.469V44.3636H434.181V76.3089C434.181 79.0002 433.522 81.2521 432.204 83.0646C430.886 84.8771 429.06 86.2365 426.725 87.1428C424.405 88.0627 421.734 88.5227 418.713 88.5227ZM418.899 68.956C420.313 68.956 421.508 68.6058 422.482 67.9055C423.471 67.1915 424.226 66.1754 424.748 64.8572C425.284 63.5253 425.551 61.9325 425.551 60.0788C425.551 58.2251 425.29 56.6186 424.769 55.2592C424.247 53.8861 423.492 52.822 422.503 52.0668C421.514 51.3116 420.313 50.9339 418.899 50.9339C417.457 50.9339 416.242 51.3253 415.253 52.108C414.264 52.8769 413.516 53.9479 413.008 55.321C412.5 56.6941 412.246 58.2801 412.246 60.0788C412.246 61.9051 412.5 63.4841 413.008 64.8161C413.53 66.1342 414.278 67.1572 415.253 67.8849C416.242 68.599 417.457 68.956 418.899 68.956ZM463.609 76.5973C461.59 76.5973 459.791 76.2472 458.212 75.5469C456.633 74.8329 455.384 73.7824 454.464 72.3956C453.558 70.995 453.104 69.2512 453.104 67.1641C453.104 65.4065 453.427 63.9304 454.072 62.7358C454.718 61.5412 455.597 60.58 456.709 59.8523C457.821 59.1245 459.084 58.5753 460.499 58.2045C461.927 57.8338 463.423 57.5729 464.989 57.4219C466.829 57.2296 468.312 57.0511 469.438 56.8864C470.563 56.7079 471.38 56.447 471.888 56.1037C472.397 55.7604 472.651 55.2524 472.651 54.5795V54.456C472.651 53.1515 472.239 52.1423 471.415 51.4283C470.605 50.7143 469.451 50.3572 467.955 50.3572C466.375 50.3572 465.119 50.7074 464.185 51.4077C463.252 52.0942 462.634 52.9593 462.332 54.0028L454.217 53.3438C454.629 51.4214 455.439 49.7599 456.647 48.3594C457.855 46.9451 459.414 45.8603 461.322 45.1051C463.245 44.3362 465.469 43.9517 467.996 43.9517C469.753 43.9517 471.435 44.1577 473.042 44.5696C474.662 44.9815 476.097 45.62 477.347 46.4851C478.61 47.3501 479.605 48.4624 480.333 49.8217C481.061 51.1674 481.425 52.7808 481.425 54.6619V76H473.104V71.6129H472.857C472.348 72.6016 471.669 73.4735 470.817 74.2287C469.966 74.9702 468.943 75.5537 467.749 75.9794C466.554 76.3913 465.174 76.5973 463.609 76.5973ZM466.121 70.5419C467.412 70.5419 468.552 70.2879 469.54 69.7798C470.529 69.258 471.305 68.5578 471.868 67.679C472.431 66.8002 472.712 65.8047 472.712 64.6925V61.3352C472.438 61.5137 472.06 61.6785 471.58 61.8295C471.113 61.9669 470.584 62.0973 469.994 62.2209C469.403 62.3307 468.813 62.4337 468.222 62.5298C467.632 62.6122 467.096 62.6877 466.616 62.7564C465.586 62.9074 464.687 63.1477 463.918 63.4773C463.149 63.8068 462.551 64.2531 462.126 64.8161C461.7 65.3653 461.487 66.0518 461.487 66.8757C461.487 68.0703 461.92 68.9834 462.785 69.6151C463.664 70.233 464.776 70.5419 466.121 70.5419ZM514.554 53.3849L506.522 53.8793C506.384 53.1927 506.089 52.5748 505.636 52.0256C505.183 51.4626 504.586 51.0163 503.844 50.6868C503.116 50.3435 502.244 50.1719 501.228 50.1719C499.869 50.1719 498.722 50.4602 497.789 51.0369C496.855 51.5999 496.388 52.3551 496.388 53.3026C496.388 54.0578 496.69 54.6963 497.294 55.218C497.899 55.7398 498.935 56.1586 500.404 56.4744L506.13 57.6278C509.206 58.2595 511.499 59.2756 513.01 60.6761C514.52 62.0767 515.275 63.9167 515.275 66.196C515.275 68.2694 514.664 70.0888 513.442 71.6541C512.234 73.2195 510.572 74.4415 508.458 75.3203C506.357 76.1854 503.933 76.6179 501.187 76.6179C496.999 76.6179 493.663 75.746 491.177 74.0021C488.706 72.2446 487.257 69.8554 486.831 66.8345L495.461 66.3814C495.722 67.6584 496.354 68.6333 497.356 69.3061C498.359 69.9652 499.642 70.2947 501.208 70.2947C502.746 70.2947 503.981 69.9995 504.915 69.4091C505.863 68.8049 506.343 68.0291 506.357 67.0817C506.343 66.2853 506.007 65.633 505.348 65.125C504.689 64.6032 503.672 64.205 502.299 63.9304L496.821 62.8388C493.731 62.2209 491.431 61.1499 489.921 59.6257C488.424 58.1016 487.676 56.1586 487.676 53.7969C487.676 51.7647 488.225 50.014 489.324 48.5447C490.436 47.0755 491.994 45.9427 493.999 45.1463C496.017 44.3499 498.379 43.9517 501.084 43.9517C505.08 43.9517 508.224 44.7962 510.517 46.4851C512.824 48.174 514.17 50.474 514.554 53.3849ZM551.237 44.3636V50.9545H531.711V44.3636H551.237ZM536.181 76V42.0774C536.181 39.7843 536.627 37.8826 537.52 36.3722C538.426 34.8617 539.662 33.7289 541.227 32.9737C542.792 32.2185 544.57 31.8409 546.561 31.8409C547.907 31.8409 549.136 31.9439 550.248 32.1499C551.374 32.3558 552.212 32.5412 552.761 32.706L551.196 39.2969C550.852 39.187 550.427 39.084 549.919 38.9879C549.424 38.8918 548.916 38.8438 548.395 38.8438C547.104 38.8438 546.204 39.1458 545.696 39.75C545.188 40.3404 544.934 41.1712 544.934 42.2422V76H536.181ZM576.885 62.5298V44.3636H585.659V76H577.235V70.2536H576.905C576.191 72.1072 575.004 73.5971 573.342 74.723C571.694 75.849 569.683 76.4119 567.307 76.4119C565.193 76.4119 563.332 75.9313 561.726 74.9702C560.119 74.009 558.863 72.6428 557.956 70.8714C557.064 69.1001 556.611 66.9787 556.597 64.5071V44.3636H565.371V62.9418C565.385 64.8092 565.886 66.2853 566.875 67.37C567.863 68.4548 569.189 68.9972 570.85 68.9972C571.907 68.9972 572.896 68.7569 573.816 68.2763C574.736 67.782 575.477 67.0542 576.04 66.093C576.617 65.1319 576.898 63.9441 576.885 62.5298ZM606.971 76.6179C603.731 76.6179 600.943 75.9313 598.609 74.5582C596.288 73.1714 594.503 71.2491 593.254 68.7912C592.018 66.3333 591.4 63.5047 591.4 60.3054C591.4 57.0649 592.025 54.2225 593.275 51.7784C594.538 49.3205 596.33 47.4051 598.65 46.032C600.971 44.6451 603.731 43.9517 606.93 43.9517C609.69 43.9517 612.107 44.4529 614.18 45.4553C616.253 46.4576 617.894 47.8651 619.103 49.6776C620.311 51.4901 620.977 53.6184 621.1 56.0625H612.821C612.587 54.4834 611.969 53.2133 610.967 52.2521C609.978 51.2772 608.681 50.7898 607.074 50.7898C605.715 50.7898 604.527 51.1605 603.511 51.902C602.509 52.6297 601.726 53.6939 601.163 55.0945C600.6 56.495 600.319 58.1908 600.319 60.1818C600.319 62.2003 600.593 63.9167 601.142 65.331C601.705 66.7453 602.495 67.8232 603.511 68.5646C604.527 69.3061 605.715 69.6768 607.074 69.6768C608.077 69.6768 608.976 69.4709 609.772 69.0589C610.583 68.647 611.248 68.0497 611.77 67.267C612.306 66.4706 612.656 65.5163 612.821 64.4041H621.1C620.963 66.8208 620.304 68.9491 619.123 70.7891C617.956 72.6153 616.343 74.0433 614.283 75.0732C612.223 76.103 609.786 76.6179 606.971 76.6179ZM634.669 66.8963L634.689 56.3714H635.966L646.1 44.3636H656.171L642.557 60.2642H640.477L634.669 66.8963ZM626.718 76V33.8182H635.492V76H626.718ZM646.491 76L637.181 62.2209L643.031 56.0213L656.769 76H646.491ZM674.065 76V33.8182H682.839V49.6776H683.107C683.491 48.8262 684.047 47.9612 684.775 47.0824C685.516 46.1899 686.478 45.4484 687.658 44.858C688.853 44.2538 690.336 43.9517 692.107 43.9517C694.414 43.9517 696.542 44.5559 698.492 45.7642C700.442 46.9588 702 48.7644 703.168 51.1811C704.335 53.584 704.918 56.598 704.918 60.223C704.918 63.7519 704.348 66.7315 703.209 69.1619C702.083 71.5786 700.545 73.4117 698.595 74.6612C696.659 75.897 694.49 76.5149 692.087 76.5149C690.384 76.5149 688.935 76.2334 687.741 75.6705C686.56 75.1075 685.592 74.4003 684.837 73.549C684.081 72.6839 683.505 71.812 683.107 70.9332H682.715V76H674.065ZM682.653 60.1818C682.653 62.063 682.914 63.7038 683.436 65.1044C683.958 66.505 684.713 67.5966 685.702 68.3793C686.69 69.1482 687.892 69.5327 689.306 69.5327C690.734 69.5327 691.942 69.1413 692.931 68.3587C693.92 67.5623 694.668 66.4638 695.176 65.0632C695.698 63.6489 695.959 62.0218 695.959 60.1818C695.959 58.3556 695.705 56.7491 695.197 55.3622C694.689 53.9754 693.94 52.8906 692.952 52.108C691.963 51.3253 690.748 50.9339 689.306 50.9339C687.878 50.9339 686.67 51.3116 685.681 52.0668C684.706 52.822 683.958 53.893 683.436 55.2798C682.914 56.6667 682.653 58.3007 682.653 60.1818ZM731.061 62.5298V44.3636H739.835V76H731.411V70.2536H731.081C730.367 72.1072 729.179 73.5971 727.518 74.723C725.87 75.849 723.859 76.4119 721.483 76.4119C719.369 76.4119 717.508 75.9313 715.901 74.9702C714.295 74.009 713.039 72.6428 712.132 70.8714C711.24 69.1001 710.787 66.9787 710.773 64.5071V44.3636H719.547V62.9418C719.561 64.8092 720.062 66.2853 721.051 67.37C722.039 68.4548 723.364 68.9972 725.026 68.9972C726.083 68.9972 727.072 68.7569 727.992 68.2763C728.912 67.782 729.653 67.0542 730.216 66.093C730.793 65.1319 731.074 63.9441 731.061 62.5298ZM763.68 44.3636V50.9545H744.629V44.3636H763.68ZM748.954 36.7841H757.728V66.2784C757.728 67.0885 757.852 67.7202 758.099 68.1733C758.346 68.6127 758.689 68.9216 759.129 69.1001C759.582 69.2786 760.103 69.3679 760.694 69.3679C761.106 69.3679 761.518 69.3336 761.93 69.2649C762.342 69.1825 762.657 69.1207 762.877 69.0795L764.257 75.6087C763.818 75.746 763.2 75.9039 762.403 76.0824C761.607 76.2746 760.639 76.3913 759.499 76.4325C757.385 76.5149 755.531 76.2334 753.938 75.5881C752.359 74.9427 751.13 73.9403 750.251 72.581C749.373 71.2216 748.94 69.5052 748.954 67.4318V36.7841ZM809.142 53.3849L801.11 53.8793C800.972 53.1927 800.677 52.5748 800.224 52.0256C799.771 51.4626 799.173 51.0163 798.432 50.6868C797.704 50.3435 796.832 50.1719 795.816 50.1719C794.457 50.1719 793.31 50.4602 792.377 51.0369C791.443 51.5999 790.976 52.3551 790.976 53.3026C790.976 54.0578 791.278 54.6963 791.882 55.218C792.486 55.7398 793.523 56.1586 794.992 56.4744L800.718 57.6278C803.794 58.2595 806.087 59.2756 807.597 60.6761C809.108 62.0767 809.863 63.9167 809.863 66.196C809.863 68.2694 809.252 70.0888 808.03 71.6541C806.822 73.2195 805.16 74.4415 803.046 75.3203C800.945 76.1854 798.521 76.6179 795.775 76.6179C791.587 76.6179 788.25 75.746 785.765 74.0021C783.294 72.2446 781.845 69.8554 781.419 66.8345L790.049 66.3814C790.31 67.6584 790.942 68.6333 791.944 69.3061C792.946 69.9652 794.23 70.2947 795.796 70.2947C797.334 70.2947 798.569 69.9995 799.503 69.4091C800.45 68.8049 800.931 68.0291 800.945 67.0817C800.931 66.2853 800.595 65.633 799.936 65.125C799.276 64.6032 798.26 64.205 796.887 63.9304L791.409 62.8388C788.319 62.2209 786.019 61.1499 784.509 59.6257C783.012 58.1016 782.264 56.1586 782.264 53.7969C782.264 51.7647 782.813 50.014 783.911 48.5447C785.024 47.0755 786.582 45.9427 788.587 45.1463C790.605 44.3499 792.967 43.9517 795.672 43.9517C799.668 43.9517 802.812 44.7962 805.105 46.4851C807.412 48.174 808.758 50.474 809.142 53.3849ZM832.216 44.3636V50.9545H813.164V44.3636H832.216ZM817.489 36.7841H826.263V66.2784C826.263 67.0885 826.387 67.7202 826.634 68.1733C826.881 68.6127 827.224 68.9216 827.664 69.1001C828.117 69.2786 828.639 69.3679 829.229 69.3679C829.641 69.3679 830.053 69.3336 830.465 69.2649C830.877 69.1825 831.193 69.1207 831.412 69.0795L832.792 75.6087C832.353 75.746 831.735 75.9039 830.939 76.0824C830.142 76.2746 829.174 76.3913 828.034 76.4325C825.92 76.5149 824.066 76.2334 822.473 75.5881C820.894 74.9427 819.665 73.9403 818.787 72.581C817.908 71.2216 817.475 69.5052 817.489 67.4318V36.7841ZM837.931 76V44.3636H846.705V76H837.931ZM842.339 40.2855C841.034 40.2855 839.915 39.853 838.982 38.9879C838.062 38.1091 837.602 37.0587 837.602 35.8366C837.602 34.6283 838.062 33.5916 838.982 32.7266C839.915 31.8478 841.034 31.4084 842.339 31.4084C843.643 31.4084 844.755 31.8478 845.675 32.7266C846.609 33.5916 847.076 34.6283 847.076 35.8366C847.076 37.0587 846.609 38.1091 845.675 38.9879C844.755 39.853 843.643 40.2855 842.339 40.2855ZM862.508 33.8182V76H853.734V33.8182H862.508ZM878.311 33.8182V76H869.537V33.8182H878.311ZM913.181 76.6179C909.926 76.6179 907.125 75.9588 904.777 74.6406C902.443 73.3087 900.644 71.4276 899.381 68.9972C898.118 66.553 897.486 63.6626 897.486 60.326C897.486 57.0717 898.118 54.2157 899.381 51.7578C900.644 49.3 902.422 47.3845 904.716 46.0114C907.022 44.6383 909.727 43.9517 912.831 43.9517C914.918 43.9517 916.861 44.2881 918.659 44.9609C920.472 45.62 922.051 46.6155 923.397 47.9474C924.756 49.2794 925.813 50.9545 926.569 52.973C927.324 54.9777 927.701 57.3258 927.701 60.017V62.4268H900.988V56.9893H919.442C919.442 55.7261 919.167 54.607 918.618 53.6321C918.069 52.6572 917.307 51.8951 916.332 51.3459C915.371 50.7829 914.252 50.5014 912.975 50.5014C911.643 50.5014 910.462 50.8104 909.432 51.4283C908.416 52.0324 907.62 52.8494 907.043 53.8793C906.466 54.8954 906.171 56.0282 906.157 57.2777V62.4474C906.157 64.0128 906.446 65.3653 907.022 66.505C907.613 67.6446 908.444 68.5234 909.515 69.1413C910.586 69.7592 911.856 70.0682 913.325 70.0682C914.3 70.0682 915.192 69.9309 916.002 69.6562C916.813 69.3816 917.506 68.9697 918.083 68.4205C918.659 67.8712 919.099 67.1984 919.401 66.402L927.516 66.9375C927.104 68.8873 926.26 70.59 924.983 72.0455C923.719 73.4872 922.085 74.6132 920.081 75.4233C918.09 76.2197 915.79 76.6179 913.181 76.6179ZM950.44 44.3636V50.9545H930.914V44.3636H950.44ZM935.384 76V42.0774C935.384 39.7843 935.83 37.8826 936.723 36.3722C937.629 34.8617 938.865 33.7289 940.43 32.9737C941.995 32.2185 943.774 31.8409 945.765 31.8409C947.11 31.8409 948.339 31.9439 949.451 32.1499C950.577 32.3558 951.415 32.5412 951.964 32.706L950.399 39.2969C950.056 39.187 949.63 39.084 949.122 38.9879C948.627 38.8918 948.119 38.8438 947.598 38.8438C946.307 38.8438 945.408 39.1458 944.9 39.75C944.391 40.3404 944.137 41.1712 944.137 42.2422V76H935.384ZM972.813 44.3636V50.9545H953.287V44.3636H972.813ZM957.757 76V42.0774C957.757 39.7843 958.203 37.8826 959.096 36.3722C960.002 34.8617 961.238 33.7289 962.803 32.9737C964.368 32.2185 966.147 31.8409 968.138 31.8409C969.483 31.8409 970.712 31.9439 971.824 32.1499C972.95 32.3558 973.788 32.5412 974.337 32.706L972.772 39.2969C972.429 39.187 972.003 39.084 971.495 38.9879C971.001 38.8918 970.492 38.8438 969.971 38.8438C968.68 38.8438 967.781 39.1458 967.273 39.75C966.765 40.3404 966.51 41.1712 966.51 42.2422V76H957.757ZM991.458 76.6179C988.204 76.6179 985.403 75.9588 983.055 74.6406C980.72 73.3087 978.922 71.4276 977.658 68.9972C976.395 66.553 975.763 63.6626 975.763 60.326C975.763 57.0717 976.395 54.2157 977.658 51.7578C978.922 49.3 980.7 47.3845 982.993 46.0114C985.3 44.6383 988.005 43.9517 991.108 43.9517C993.195 43.9517 995.138 44.2881 996.937 44.9609C998.749 45.62 1000.33 46.6155 1001.67 47.9474C1003.03 49.2794 1004.09 50.9545 1004.85 52.973C1005.6 54.9777 1005.98 57.3258 1005.98 60.017V62.4268H979.265V56.9893H997.719C997.719 55.7261 997.445 54.607 996.896 53.6321C996.346 52.6572 995.584 51.8951 994.609 51.3459C993.648 50.7829 992.529 50.5014 991.252 50.5014C989.92 50.5014 988.739 50.8104 987.71 51.4283C986.693 52.0324 985.897 52.8494 985.32 53.8793C984.744 54.8954 984.448 56.0282 984.435 57.2777V62.4474C984.435 64.0128 984.723 65.3653 985.3 66.505C985.89 67.6446 986.721 68.5234 987.792 69.1413C988.863 69.7592 990.133 70.0682 991.602 70.0682C992.577 70.0682 993.47 69.9309 994.28 69.6562C995.09 69.3816 995.783 68.9697 996.36 68.4205C996.937 67.8712 997.376 67.1984 997.678 66.402L1005.79 66.9375C1005.38 68.8873 1004.54 70.59 1003.26 72.0455C1002 73.4872 1000.36 74.6132 998.358 75.4233C996.367 76.2197 994.067 76.6179 991.458 76.6179ZM1026 76.6179C1022.76 76.6179 1019.97 75.9313 1017.64 74.5582C1015.32 73.1714 1013.53 71.2491 1012.28 68.7912C1011.05 66.3333 1010.43 63.5047 1010.43 60.3054C1010.43 57.0649 1011.05 54.2225 1012.3 51.7784C1013.57 49.3205 1015.36 47.4051 1017.68 46.032C1020 44.6451 1022.76 43.9517 1025.96 43.9517C1028.72 43.9517 1031.13 44.4529 1033.21 45.4553C1035.28 46.4576 1036.92 47.8651 1038.13 49.6776C1039.34 51.4901 1040 53.6184 1040.13 56.0625H1031.85C1031.61 54.4834 1031 53.2133 1029.99 52.2521C1029.01 51.2772 1027.71 50.7898 1026.1 50.7898C1024.74 50.7898 1023.55 51.1605 1022.54 51.902C1021.54 52.6297 1020.75 53.6939 1020.19 55.0945C1019.63 56.495 1019.35 58.1908 1019.35 60.1818C1019.35 62.2003 1019.62 63.9167 1020.17 65.331C1020.73 66.7453 1021.52 67.8232 1022.54 68.5646C1023.55 69.3061 1024.74 69.6768 1026.1 69.6768C1027.1 69.6768 1028 69.4709 1028.8 69.0589C1029.61 68.647 1030.28 68.0497 1030.8 67.267C1031.33 66.4706 1031.68 65.5163 1031.85 64.4041H1040.13C1039.99 66.8208 1039.33 68.9491 1038.15 70.7891C1036.98 72.6153 1035.37 74.0433 1033.31 75.0732C1031.25 76.103 1028.81 76.6179 1026 76.6179ZM1062.57 44.3636V50.9545H1043.52V44.3636H1062.57ZM1047.85 36.7841H1056.62V66.2784C1056.62 67.0885 1056.74 67.7202 1056.99 68.1733C1057.24 68.6127 1057.58 68.9216 1058.02 69.1001C1058.47 69.2786 1059 69.3679 1059.59 69.3679C1060 69.3679 1060.41 69.3336 1060.82 69.2649C1061.23 69.1825 1061.55 69.1207 1061.77 69.0795L1063.15 75.6087C1062.71 75.746 1062.09 75.9039 1061.3 76.0824C1060.5 76.2746 1059.53 76.3913 1058.39 76.4325C1056.28 76.5149 1054.42 76.2334 1052.83 75.5881C1051.25 74.9427 1050.02 73.9403 1049.14 72.581C1048.27 71.2216 1047.83 69.5052 1047.85 67.4318V36.7841ZM1068.29 76V44.3636H1077.06V76H1068.29ZM1072.7 40.2855C1071.39 40.2855 1070.27 39.853 1069.34 38.9879C1068.42 38.1091 1067.96 37.0587 1067.96 35.8366C1067.96 34.6283 1068.42 33.5916 1069.34 32.7266C1070.27 31.8478 1071.39 31.4084 1072.7 31.4084C1074 31.4084 1075.11 31.8478 1076.03 32.7266C1076.97 33.5916 1077.43 34.6283 1077.43 35.8366C1077.43 37.0587 1076.97 38.1091 1076.03 38.9879C1075.11 39.853 1074 40.2855 1072.7 40.2855ZM1113.59 44.3636L1102.53 76H1092.64L1081.58 44.3636H1090.85L1097.42 66.9993H1097.75L1104.3 44.3636H1113.59ZM1131.47 76.6179C1128.22 76.6179 1125.42 75.9588 1123.07 74.6406C1120.74 73.3087 1118.94 71.4276 1117.67 68.9972C1116.41 66.553 1115.78 63.6626 1115.78 60.326C1115.78 57.0717 1116.41 54.2157 1117.67 51.7578C1118.94 49.3 1120.72 47.3845 1123.01 46.0114C1125.32 44.6383 1128.02 43.9517 1131.12 43.9517C1133.21 43.9517 1135.15 44.2881 1136.95 44.9609C1138.76 45.62 1140.34 46.6155 1141.69 47.9474C1143.05 49.2794 1144.11 50.9545 1144.86 52.973C1145.62 54.9777 1145.99 57.3258 1145.99 60.017V62.4268H1119.28V56.9893H1137.74C1137.74 55.7261 1137.46 54.607 1136.91 53.6321C1136.36 52.6572 1135.6 51.8951 1134.62 51.3459C1133.66 50.7829 1132.54 50.5014 1131.27 50.5014C1129.94 50.5014 1128.75 50.8104 1127.73 51.4283C1126.71 52.0324 1125.91 52.8494 1125.34 53.8793C1124.76 54.8954 1124.46 56.0282 1124.45 57.2777V62.4474C1124.45 64.0128 1124.74 65.3653 1125.32 66.505C1125.91 67.6446 1126.74 68.5234 1127.81 69.1413C1128.88 69.7592 1130.15 70.0682 1131.62 70.0682C1132.59 70.0682 1133.49 69.9309 1134.3 69.6562C1135.11 69.3816 1135.8 68.9697 1136.38 68.4205C1136.95 67.8712 1137.39 67.1984 1137.69 66.402L1145.81 66.9375C1145.4 68.8873 1144.55 70.59 1143.28 72.0455C1142.01 73.4872 1140.38 74.6132 1138.37 75.4233C1136.38 76.2197 1134.08 76.6179 1131.47 76.6179ZM29.8239 139.385L21.7912 139.879C21.6539 139.193 21.3587 138.575 20.9055 138.026C20.4524 137.463 19.8551 137.016 19.1136 136.687C18.3859 136.344 17.514 136.172 16.4979 136.172C15.1385 136.172 13.992 136.46 13.0582 137.037C12.1245 137.6 11.6577 138.355 11.6577 139.303C11.6577 140.058 11.9598 140.696 12.5639 141.218C13.1681 141.74 14.2048 142.159 15.674 142.474L21.3999 143.628C24.4756 144.259 26.7687 145.276 28.2791 146.676C29.7895 148.077 30.5447 149.917 30.5447 152.196C30.5447 154.269 29.9337 156.089 28.7116 157.654C27.5033 159.219 25.8419 160.442 23.7273 161.32C21.6264 162.185 19.2029 162.618 16.4567 162.618C12.2687 162.618 8.93206 161.746 6.44673 160.002C3.97514 158.245 2.52652 155.855 2.10085 152.835L10.7308 152.381C10.9917 153.658 11.6233 154.633 12.6257 155.306C13.6281 155.965 14.9119 156.295 16.4773 156.295C18.0152 156.295 19.2509 156 20.1847 155.409C21.1321 154.805 21.6127 154.029 21.6264 153.082C21.6127 152.285 21.2763 151.633 20.6172 151.125C19.9581 150.603 18.942 150.205 17.5689 149.93L12.0902 148.839C9.00071 148.221 6.70076 147.15 5.19034 145.626C3.69366 144.102 2.94531 142.159 2.94531 139.797C2.94531 137.765 3.49455 136.014 4.59304 134.545C5.70526 133.076 7.26373 131.943 9.26847 131.146C11.2869 130.35 13.6487 129.952 16.3537 129.952C20.3494 129.952 23.4938 130.796 25.7869 132.485C28.0938 134.174 29.4394 136.474 29.8239 139.385ZM50.3638 162.618C47.1645 162.618 44.3977 161.938 42.0634 160.579C39.7428 159.206 37.9509 157.297 36.6877 154.853C35.4244 152.395 34.7928 149.546 34.7928 146.305C34.7928 143.037 35.4244 140.181 36.6877 137.737C37.9509 135.279 39.7428 133.371 42.0634 132.011C44.3977 130.638 47.1645 129.952 50.3638 129.952C53.5632 129.952 56.3231 130.638 58.6436 132.011C60.9779 133.371 62.7767 135.279 64.0399 137.737C65.3032 140.181 65.9348 143.037 65.9348 146.305C65.9348 149.546 65.3032 152.395 64.0399 154.853C62.7767 157.297 60.9779 159.206 58.6436 160.579C56.3231 161.938 53.5632 162.618 50.3638 162.618ZM50.405 155.821C51.8605 155.821 53.0757 155.409 54.0506 154.585C55.0255 153.748 55.7601 152.608 56.2544 151.166C56.7625 149.724 57.0165 148.084 57.0165 146.244C57.0165 144.404 56.7625 142.763 56.2544 141.321C55.7601 139.879 55.0255 138.74 54.0506 137.902C53.0757 137.064 51.8605 136.646 50.405 136.646C48.9358 136.646 47.7 137.064 46.6976 137.902C45.709 138.74 44.9606 139.879 44.4526 141.321C43.9583 142.763 43.7111 144.404 43.7111 146.244C43.7111 148.084 43.9583 149.724 44.4526 151.166C44.9606 152.608 45.709 153.748 46.6976 154.585C47.7 155.409 48.9358 155.821 50.405 155.821ZM91.3047 162L82.6953 130.364H91.5724L96.4744 151.619H96.7628L101.871 130.364H110.583L115.773 151.496H116.041L120.861 130.364H129.717L121.129 162H111.839L106.402 142.104H106.011L100.573 162H91.3047ZM143.172 143.71V162H134.398V119.818H142.925V135.945H143.296C144.01 134.078 145.163 132.616 146.756 131.558C148.349 130.487 150.347 129.952 152.749 129.952C154.946 129.952 156.862 130.432 158.496 131.393C160.144 132.341 161.421 133.707 162.327 135.492C163.247 137.263 163.7 139.385 163.686 141.857V162H154.912V143.422C154.926 141.472 154.432 139.955 153.429 138.87C152.441 137.785 151.054 137.243 149.269 137.243C148.074 137.243 147.017 137.497 146.097 138.005C145.191 138.513 144.477 139.254 143.955 140.229C143.447 141.191 143.186 142.351 143.172 143.71ZM174.875 173.864C173.763 173.864 172.72 173.774 171.745 173.596C170.783 173.431 169.987 173.218 169.355 172.957L171.333 166.408C172.363 166.723 173.289 166.895 174.113 166.923C174.951 166.95 175.672 166.758 176.276 166.346C176.894 165.934 177.395 165.234 177.779 164.245L178.294 162.906L166.946 130.364H176.173L182.723 153.597H183.052L189.664 130.364H198.953L186.657 165.419C186.066 167.122 185.263 168.605 184.247 169.868C183.244 171.145 181.974 172.127 180.436 172.813C178.899 173.513 177.045 173.864 174.875 173.864ZM225.641 143.71V162H216.867V130.364H225.229V135.945H225.6C226.3 134.105 227.474 132.65 229.122 131.579C230.769 130.494 232.767 129.952 235.115 129.952C237.312 129.952 239.228 130.432 240.862 131.393C242.496 132.355 243.766 133.728 244.672 135.513C245.578 137.284 246.031 139.399 246.031 141.857V162H237.257V143.422C237.271 141.486 236.777 139.975 235.774 138.891C234.772 137.792 233.392 137.243 231.634 137.243C230.454 137.243 229.41 137.497 228.504 138.005C227.611 138.513 226.911 139.254 226.403 140.229C225.909 141.191 225.655 142.351 225.641 143.71ZM267.241 162.618C264.041 162.618 261.275 161.938 258.94 160.579C256.62 159.206 254.828 157.297 253.565 154.853C252.301 152.395 251.67 149.546 251.67 146.305C251.67 143.037 252.301 140.181 253.565 137.737C254.828 135.279 256.62 133.371 258.94 132.011C261.275 130.638 264.041 129.952 267.241 129.952C270.44 129.952 273.2 130.638 275.521 132.011C277.855 133.371 279.654 135.279 280.917 137.737C282.18 140.181 282.812 143.037 282.812 146.305C282.812 149.546 282.18 152.395 280.917 154.853C279.654 157.297 277.855 159.206 275.521 160.579C273.2 161.938 270.44 162.618 267.241 162.618ZM267.282 155.821C268.737 155.821 269.953 155.409 270.928 154.585C271.902 153.748 272.637 152.608 273.131 151.166C273.639 149.724 273.893 148.084 273.893 146.244C273.893 144.404 273.639 142.763 273.131 141.321C272.637 139.879 271.902 138.74 270.928 137.902C269.953 137.064 268.737 136.646 267.282 136.646C265.813 136.646 264.577 137.064 263.575 137.902C262.586 138.74 261.838 139.879 261.33 141.321C260.835 142.763 260.588 144.404 260.588 146.244C260.588 148.084 260.835 149.724 261.33 151.166C261.838 152.608 262.586 153.748 263.575 154.585C264.577 155.409 265.813 155.821 267.282 155.821ZM305.344 130.364V136.955H286.293V130.364H305.344ZM290.618 122.784H299.392V152.278C299.392 153.089 299.516 153.72 299.763 154.173C300.01 154.613 300.353 154.922 300.793 155.1C301.246 155.279 301.768 155.368 302.358 155.368C302.77 155.368 303.182 155.334 303.594 155.265C304.006 155.183 304.321 155.121 304.541 155.08L305.921 161.609C305.482 161.746 304.864 161.904 304.067 162.082C303.271 162.275 302.303 162.391 301.163 162.433C299.049 162.515 297.195 162.233 295.602 161.588C294.023 160.943 292.794 159.94 291.915 158.581C291.037 157.222 290.604 155.505 290.618 153.432V122.784ZM341.311 130.364V136.955H322.259V130.364H341.311ZM326.585 122.784H335.359V152.278C335.359 153.089 335.482 153.72 335.73 154.173C335.977 154.613 336.32 154.922 336.759 155.1C337.213 155.279 337.734 155.368 338.325 155.368C338.737 155.368 339.149 155.334 339.561 155.265C339.972 155.183 340.288 155.121 340.508 155.08L341.888 161.609C341.449 161.746 340.831 161.904 340.034 162.082C339.238 162.275 338.27 162.391 337.13 162.433C335.016 162.515 333.162 162.233 331.569 161.588C329.99 160.943 328.761 159.94 327.882 158.581C327.003 157.222 326.571 155.505 326.585 153.432V122.784ZM360.981 162.618C357.782 162.618 355.015 161.938 352.681 160.579C350.36 159.206 348.568 157.297 347.305 154.853C346.042 152.395 345.41 149.546 345.41 146.305C345.41 143.037 346.042 140.181 347.305 137.737C348.568 135.279 350.36 133.371 352.681 132.011C355.015 130.638 357.782 129.952 360.981 129.952C364.18 129.952 366.94 130.638 369.261 132.011C371.595 133.371 373.394 135.279 374.657 137.737C375.92 140.181 376.552 143.037 376.552 146.305C376.552 149.546 375.92 152.395 374.657 154.853C373.394 157.297 371.595 159.206 369.261 160.579C366.94 161.938 364.18 162.618 360.981 162.618ZM361.022 155.821C362.478 155.821 363.693 155.409 364.668 154.585C365.643 153.748 366.377 152.608 366.872 151.166C367.38 149.724 367.634 148.084 367.634 146.244C367.634 144.404 367.38 142.763 366.872 141.321C366.377 139.879 365.643 138.74 364.668 137.902C363.693 137.064 362.478 136.646 361.022 136.646C359.553 136.646 358.317 137.064 357.315 137.902C356.326 138.74 355.578 139.879 355.07 141.321C354.575 142.763 354.328 144.404 354.328 146.244C354.328 148.084 354.575 149.724 355.07 151.166C355.578 152.608 356.326 153.748 357.315 154.585C358.317 155.409 359.553 155.821 361.022 155.821ZM412.509 130.364V136.955H393.457V130.364H412.509ZM397.782 122.784H406.556V152.278C406.556 153.089 406.68 153.72 406.927 154.173C407.174 154.613 407.517 154.922 407.957 155.1C408.41 155.279 408.932 155.368 409.522 155.368C409.934 155.368 410.346 155.334 410.758 155.265C411.17 155.183 411.486 155.121 411.705 155.08L413.085 161.609C412.646 161.746 412.028 161.904 411.232 162.082C410.435 162.275 409.467 162.391 408.327 162.433C406.213 162.515 404.359 162.233 402.766 161.588C401.187 160.943 399.958 159.94 399.08 158.581C398.201 157.222 397.768 155.505 397.782 153.432V122.784ZM427.245 162.597C425.227 162.597 423.428 162.247 421.849 161.547C420.27 160.833 419.02 159.782 418.1 158.396C417.194 156.995 416.741 155.251 416.741 153.164C416.741 151.406 417.064 149.93 417.709 148.736C418.355 147.541 419.233 146.58 420.346 145.852C421.458 145.125 422.721 144.575 424.135 144.205C425.563 143.834 427.06 143.573 428.625 143.422C430.465 143.23 431.948 143.051 433.074 142.886C434.2 142.708 435.017 142.447 435.525 142.104C436.033 141.76 436.287 141.252 436.287 140.58V140.456C436.287 139.152 435.875 138.142 435.051 137.428C434.241 136.714 433.088 136.357 431.591 136.357C430.012 136.357 428.756 136.707 427.822 137.408C426.888 138.094 426.27 138.959 425.968 140.003L417.853 139.344C418.265 137.421 419.075 135.76 420.284 134.359C421.492 132.945 423.051 131.86 424.959 131.105C426.882 130.336 429.106 129.952 431.632 129.952C433.39 129.952 435.072 130.158 436.679 130.57C438.299 130.982 439.734 131.62 440.983 132.485C442.247 133.35 443.242 134.462 443.97 135.822C444.698 137.167 445.061 138.781 445.061 140.662V162H436.74V157.613H436.493C435.985 158.602 435.306 159.473 434.454 160.229C433.603 160.97 432.58 161.554 431.385 161.979C430.191 162.391 428.811 162.597 427.245 162.597ZM429.758 156.542C431.049 156.542 432.189 156.288 433.177 155.78C434.166 155.258 434.942 154.558 435.505 153.679C436.068 152.8 436.349 151.805 436.349 150.692V147.335C436.074 147.514 435.697 147.679 435.216 147.83C434.749 147.967 434.221 148.097 433.63 148.221C433.04 148.331 432.449 148.434 431.859 148.53C431.269 148.612 430.733 148.688 430.252 148.756C429.223 148.907 428.323 149.148 427.554 149.477C426.785 149.807 426.188 150.253 425.762 150.816C425.337 151.365 425.124 152.052 425.124 152.876C425.124 154.07 425.556 154.983 426.422 155.615C427.3 156.233 428.413 156.542 429.758 156.542ZM459.819 152.896L459.839 142.371H461.116L471.25 130.364H481.322L467.707 146.264H465.627L459.819 152.896ZM451.869 162V119.818H460.643V162H451.869ZM471.641 162L462.332 148.221L468.181 142.021L481.919 162H471.641ZM498.741 162.618C495.487 162.618 492.686 161.959 490.338 160.641C488.004 159.309 486.205 157.428 484.942 154.997C483.678 152.553 483.047 149.663 483.047 146.326C483.047 143.072 483.678 140.216 484.942 137.758C486.205 135.3 487.983 133.384 490.276 132.011C492.583 130.638 495.288 129.952 498.391 129.952C500.478 129.952 502.421 130.288 504.22 130.961C506.032 131.62 507.612 132.616 508.957 133.947C510.317 135.279 511.374 136.955 512.129 138.973C512.884 140.978 513.262 143.326 513.262 146.017V148.427H486.548V142.989H505.003C505.003 141.726 504.728 140.607 504.179 139.632C503.63 138.657 502.867 137.895 501.893 137.346C500.931 136.783 499.812 136.501 498.535 136.501C497.203 136.501 496.023 136.81 494.993 137.428C493.977 138.032 493.18 138.849 492.604 139.879C492.027 140.895 491.732 142.028 491.718 143.278V148.447C491.718 150.013 492.006 151.365 492.583 152.505C493.173 153.645 494.004 154.523 495.075 155.141C496.146 155.759 497.416 156.068 498.885 156.068C499.86 156.068 500.753 155.931 501.563 155.656C502.373 155.382 503.067 154.97 503.643 154.42C504.22 153.871 504.659 153.198 504.961 152.402L513.077 152.938C512.665 154.887 511.82 156.59 510.543 158.045C509.28 159.487 507.646 160.613 505.641 161.423C503.65 162.22 501.35 162.618 498.741 162.618ZM541.433 162.597C539.414 162.597 537.616 162.247 536.037 161.547C534.458 160.833 533.208 159.782 532.288 158.396C531.382 156.995 530.929 155.251 530.929 153.164C530.929 151.406 531.251 149.93 531.897 148.736C532.542 147.541 533.421 146.58 534.533 145.852C535.645 145.125 536.908 144.575 538.323 144.205C539.751 143.834 541.248 143.573 542.813 143.422C544.653 143.23 546.136 143.051 547.262 142.886C548.388 142.708 549.205 142.447 549.713 142.104C550.221 141.76 550.475 141.252 550.475 140.58V140.456C550.475 139.152 550.063 138.142 549.239 137.428C548.429 136.714 547.275 136.357 545.779 136.357C544.2 136.357 542.943 136.707 542.01 137.408C541.076 138.094 540.458 138.959 540.156 140.003L532.041 139.344C532.453 137.421 533.263 135.76 534.471 134.359C535.68 132.945 537.238 131.86 539.147 131.105C541.069 130.336 543.293 129.952 545.82 129.952C547.578 129.952 549.26 130.158 550.866 130.57C552.486 130.982 553.921 131.62 555.171 132.485C556.434 133.35 557.43 134.462 558.157 135.822C558.885 137.167 559.249 138.781 559.249 140.662V162H550.928V157.613H550.681C550.173 158.602 549.493 159.473 548.642 160.229C547.79 160.97 546.767 161.554 545.573 161.979C544.378 162.391 542.998 162.597 541.433 162.597ZM543.946 156.542C545.236 156.542 546.376 156.288 547.365 155.78C548.353 155.258 549.129 154.558 549.692 153.679C550.255 152.8 550.537 151.805 550.537 150.692V147.335C550.262 147.514 549.884 147.679 549.404 147.83C548.937 147.967 548.408 148.097 547.818 148.221C547.227 148.331 546.637 148.434 546.047 148.53C545.456 148.612 544.921 148.688 544.44 148.756C543.41 148.907 542.511 149.148 541.742 149.477C540.973 149.807 540.376 150.253 539.95 150.816C539.524 151.365 539.311 152.052 539.311 152.876C539.311 154.07 539.744 154.983 540.609 155.615C541.488 156.233 542.6 156.542 543.946 156.542ZM574.83 143.71V162H566.056V130.364H574.418V135.945H574.789C575.489 134.105 576.663 132.65 578.311 131.579C579.959 130.494 581.957 129.952 584.305 129.952C586.502 129.952 588.417 130.432 590.051 131.393C591.685 132.355 592.955 133.728 593.862 135.513C594.768 137.284 595.221 139.399 595.221 141.857V162H586.447V143.422C586.46 141.486 585.966 139.975 584.964 138.891C583.961 137.792 582.581 137.243 580.824 137.243C579.643 137.243 578.599 137.497 577.693 138.005C576.801 138.513 576.1 139.254 575.592 140.229C575.098 141.191 574.844 142.351 574.83 143.71ZM627.218 162.515C624.815 162.515 622.638 161.897 620.689 160.661C618.752 159.412 617.215 157.579 616.075 155.162C614.949 152.732 614.386 149.752 614.386 146.223C614.386 142.598 614.97 139.584 616.137 137.181C617.304 134.764 618.855 132.959 620.792 131.764C622.741 130.556 624.877 129.952 627.197 129.952C628.968 129.952 630.444 130.254 631.625 130.858C632.82 131.448 633.781 132.19 634.509 133.082C635.25 133.961 635.813 134.826 636.198 135.678H636.466V119.818H645.219V162H636.569V156.933H636.198C635.786 157.812 635.202 158.684 634.447 159.549C633.706 160.4 632.738 161.107 631.543 161.67C630.362 162.233 628.92 162.515 627.218 162.515ZM629.998 155.533C631.413 155.533 632.607 155.148 633.582 154.379C634.571 153.597 635.326 152.505 635.848 151.104C636.383 149.704 636.651 148.063 636.651 146.182C636.651 144.301 636.39 142.667 635.868 141.28C635.346 139.893 634.591 138.822 633.603 138.067C632.614 137.312 631.413 136.934 629.998 136.934C628.556 136.934 627.341 137.325 626.353 138.108C625.364 138.891 624.616 139.975 624.108 141.362C623.6 142.749 623.346 144.356 623.346 146.182C623.346 148.022 623.6 149.649 624.108 151.063C624.629 152.464 625.378 153.562 626.353 154.359C627.341 155.141 628.556 155.533 629.998 155.533ZM661.454 162.597C659.436 162.597 657.637 162.247 656.058 161.547C654.479 160.833 653.229 159.782 652.309 158.396C651.403 156.995 650.95 155.251 650.95 153.164C650.95 151.406 651.273 149.93 651.918 148.736C652.564 147.541 653.442 146.58 654.555 145.852C655.667 145.125 656.93 144.575 658.344 144.205C659.772 143.834 661.269 143.573 662.834 143.422C664.674 143.23 666.157 143.051 667.283 142.886C668.409 142.708 669.226 142.447 669.734 142.104C670.242 141.76 670.496 141.252 670.496 140.58V140.456C670.496 139.152 670.084 138.142 669.26 137.428C668.45 136.714 667.297 136.357 665.8 136.357C664.221 136.357 662.965 136.707 662.031 137.408C661.097 138.094 660.479 138.959 660.177 140.003L652.062 139.344C652.474 137.421 653.284 135.76 654.493 134.359C655.701 132.945 657.26 131.86 659.168 131.105C661.09 130.336 663.315 129.952 665.841 129.952C667.599 129.952 669.281 130.158 670.888 130.57C672.508 130.982 673.943 131.62 675.192 132.485C676.456 133.35 677.451 134.462 678.179 135.822C678.907 137.167 679.27 138.781 679.27 140.662V162H670.949V157.613H670.702C670.194 158.602 669.515 159.473 668.663 160.229C667.812 160.97 666.789 161.554 665.594 161.979C664.4 162.391 663.02 162.597 661.454 162.597ZM663.967 156.542C665.258 156.542 666.398 156.288 667.386 155.78C668.375 155.258 669.151 154.558 669.714 153.679C670.277 152.8 670.558 151.805 670.558 150.692V147.335C670.283 147.514 669.906 147.679 669.425 147.83C668.958 147.967 668.43 148.097 667.839 148.221C667.249 148.331 666.658 148.434 666.068 148.53C665.478 148.612 664.942 148.688 664.461 148.756C663.432 148.907 662.532 149.148 661.763 149.477C660.994 149.807 660.397 150.253 659.971 150.816C659.546 151.365 659.333 152.052 659.333 152.876C659.333 154.07 659.765 154.983 660.631 155.615C661.509 156.233 662.622 156.542 663.967 156.542ZM714.439 130.364L703.379 162H693.492L682.432 130.364H691.7L698.271 152.999H698.6L705.15 130.364H714.439ZM727.101 162.597C725.082 162.597 723.284 162.247 721.705 161.547C720.125 160.833 718.876 159.782 717.956 158.396C717.05 156.995 716.597 155.251 716.597 153.164C716.597 151.406 716.919 149.93 717.565 148.736C718.21 147.541 719.089 146.58 720.201 145.852C721.313 145.125 722.576 144.575 723.991 144.205C725.419 143.834 726.915 143.573 728.481 143.422C730.321 143.23 731.804 143.051 732.93 142.886C734.056 142.708 734.873 142.447 735.381 142.104C735.889 141.76 736.143 141.252 736.143 140.58V140.456C736.143 139.152 735.731 138.142 734.907 137.428C734.097 136.714 732.943 136.357 731.447 136.357C729.868 136.357 728.611 136.707 727.678 137.408C726.744 138.094 726.126 138.959 725.824 140.003L717.709 139.344C718.121 137.421 718.931 135.76 720.139 134.359C721.348 132.945 722.906 131.86 724.815 131.105C726.737 130.336 728.961 129.952 731.488 129.952C733.246 129.952 734.928 130.158 736.534 130.57C738.154 130.982 739.589 131.62 740.839 132.485C742.102 133.35 743.098 134.462 743.825 135.822C744.553 137.167 744.917 138.781 744.917 140.662V162H736.596V157.613H736.349C735.841 158.602 735.161 159.473 734.31 160.229C733.458 160.97 732.435 161.554 731.241 161.979C730.046 162.391 728.666 162.597 727.101 162.597ZM729.614 156.542C730.904 156.542 732.044 156.288 733.033 155.78C734.021 155.258 734.797 154.558 735.36 153.679C735.923 152.8 736.205 151.805 736.205 150.692V147.335C735.93 147.514 735.552 147.679 735.072 147.83C734.605 147.967 734.076 148.097 733.486 148.221C732.895 148.331 732.305 148.434 731.714 148.53C731.124 148.612 730.589 148.688 730.108 148.756C729.078 148.907 728.179 149.148 727.41 149.477C726.641 149.807 726.044 150.253 725.618 150.816C725.192 151.365 724.979 152.052 724.979 152.876C724.979 154.07 725.412 154.983 726.277 155.615C727.156 156.233 728.268 156.542 729.614 156.542ZM760.498 143.71V162H751.724V130.364H760.086V135.945H760.457C761.157 134.105 762.331 132.65 763.979 131.579C765.627 130.494 767.625 129.952 769.973 129.952C772.17 129.952 774.085 130.432 775.719 131.393C777.353 132.355 778.623 133.728 779.529 135.513C780.436 137.284 780.889 139.399 780.889 141.857V162H772.115V143.422C772.128 141.486 771.634 139.975 770.632 138.891C769.629 137.792 768.249 137.243 766.492 137.243C765.311 137.243 764.267 137.497 763.361 138.005C762.469 138.513 761.768 139.254 761.26 140.229C760.766 141.191 760.512 142.351 760.498 143.71ZM804.632 130.364V136.955H785.58V130.364H804.632ZM789.905 122.784H798.679V152.278C798.679 153.089 798.803 153.72 799.05 154.173C799.297 154.613 799.64 154.922 800.08 155.1C800.533 155.279 801.055 155.368 801.645 155.368C802.057 155.368 802.469 155.334 802.881 155.265C803.293 155.183 803.609 155.121 803.828 155.08L805.208 161.609C804.769 161.746 804.151 161.904 803.355 162.082C802.558 162.275 801.59 162.391 800.45 162.433C798.336 162.515 796.482 162.233 794.889 161.588C793.31 160.943 792.081 159.94 791.203 158.581C790.324 157.222 789.891 155.505 789.905 153.432V122.784ZM819.368 162.597C817.35 162.597 815.551 162.247 813.972 161.547C812.393 160.833 811.144 159.782 810.224 158.396C809.317 156.995 808.864 155.251 808.864 153.164C808.864 151.406 809.187 149.93 809.832 148.736C810.478 147.541 811.356 146.58 812.469 145.852C813.581 145.125 814.844 144.575 816.258 144.205C817.686 143.834 819.183 143.573 820.748 143.422C822.588 143.23 824.071 143.051 825.197 142.886C826.323 142.708 827.14 142.447 827.648 142.104C828.156 141.76 828.41 141.252 828.41 140.58V140.456C828.41 139.152 827.998 138.142 827.175 137.428C826.364 136.714 825.211 136.357 823.714 136.357C822.135 136.357 820.879 136.707 819.945 137.408C819.011 138.094 818.394 138.959 818.091 140.003L809.976 139.344C810.388 137.421 811.198 135.76 812.407 134.359C813.615 132.945 815.174 131.86 817.082 131.105C819.005 130.336 821.229 129.952 823.756 129.952C825.513 129.952 827.195 130.158 828.802 130.57C830.422 130.982 831.857 131.62 833.106 132.485C834.37 133.35 835.365 134.462 836.093 135.822C836.821 137.167 837.184 138.781 837.184 140.662V162H828.863V157.613H828.616C828.108 158.602 827.429 159.473 826.577 160.229C825.726 160.97 824.703 161.554 823.508 161.979C822.314 162.391 820.934 162.597 819.368 162.597ZM821.881 156.542C823.172 156.542 824.312 156.288 825.3 155.78C826.289 155.258 827.065 154.558 827.628 153.679C828.191 152.8 828.472 151.805 828.472 150.692V147.335C828.198 147.514 827.82 147.679 827.339 147.83C826.872 147.967 826.344 148.097 825.753 148.221C825.163 148.331 824.573 148.434 823.982 148.53C823.392 148.612 822.856 148.688 822.376 148.756C821.346 148.907 820.446 149.148 819.677 149.477C818.908 149.807 818.311 150.253 817.885 150.816C817.46 151.365 817.247 152.052 817.247 152.876C817.247 154.07 817.68 154.983 818.545 155.615C819.423 156.233 820.536 156.542 821.881 156.542ZM858.244 174.523C855.402 174.523 852.965 174.131 850.933 173.349C848.914 172.58 847.308 171.529 846.113 170.197C844.919 168.866 844.143 167.369 843.786 165.707L851.901 164.616C852.148 165.247 852.539 165.838 853.075 166.387C853.61 166.936 854.317 167.376 855.196 167.705C856.089 168.049 857.173 168.22 858.45 168.22C860.359 168.22 861.931 167.753 863.167 166.82C864.417 165.9 865.041 164.355 865.041 162.185V156.398H864.671C864.286 157.277 863.709 158.107 862.941 158.89C862.172 159.673 861.183 160.311 859.975 160.805C858.766 161.3 857.325 161.547 855.649 161.547C853.274 161.547 851.111 160.998 849.161 159.899C847.225 158.787 845.681 157.091 844.527 154.812C843.387 152.519 842.818 149.621 842.818 146.12C842.818 142.536 843.401 139.543 844.568 137.14C845.735 134.737 847.287 132.938 849.223 131.744C851.173 130.549 853.308 129.952 855.629 129.952C857.4 129.952 858.883 130.254 860.078 130.858C861.272 131.448 862.233 132.19 862.961 133.082C863.703 133.961 864.272 134.826 864.671 135.678H865V130.364H873.713V162.309C873.713 165 873.053 167.252 871.735 169.065C870.417 170.877 868.591 172.237 866.257 173.143C863.936 174.063 861.265 174.523 858.244 174.523ZM858.43 154.956C859.844 154.956 861.039 154.606 862.014 153.906C863.002 153.192 863.758 152.175 864.279 150.857C864.815 149.525 865.083 147.933 865.083 146.079C865.083 144.225 864.822 142.619 864.3 141.259C863.778 139.886 863.023 138.822 862.034 138.067C861.046 137.312 859.844 136.934 858.43 136.934C856.988 136.934 855.773 137.325 854.784 138.108C853.796 138.877 853.047 139.948 852.539 141.321C852.031 142.694 851.777 144.28 851.777 146.079C851.777 147.905 852.031 149.484 852.539 150.816C853.061 152.134 853.809 153.157 854.784 153.885C855.773 154.599 856.988 154.956 858.43 154.956ZM895.112 162.618C891.858 162.618 889.057 161.959 886.709 160.641C884.375 159.309 882.576 157.428 881.313 154.997C880.049 152.553 879.418 149.663 879.418 146.326C879.418 143.072 880.049 140.216 881.313 137.758C882.576 135.3 884.354 133.384 886.647 132.011C888.954 130.638 891.659 129.952 894.762 129.952C896.849 129.952 898.792 130.288 900.591 130.961C902.404 131.62 903.983 132.616 905.328 133.947C906.688 135.279 907.745 136.955 908.5 138.973C909.255 140.978 909.633 143.326 909.633 146.017V148.427H882.919V142.989H901.374C901.374 141.726 901.099 140.607 900.55 139.632C900.001 138.657 899.239 137.895 898.264 137.346C897.302 136.783 896.183 136.501 894.906 136.501C893.575 136.501 892.394 136.81 891.364 137.428C890.348 138.032 889.551 138.849 888.975 139.879C888.398 140.895 888.103 142.028 888.089 143.278V148.447C888.089 150.013 888.377 151.365 888.954 152.505C889.544 153.645 890.375 154.523 891.446 155.141C892.517 155.759 893.787 156.068 895.257 156.068C896.231 156.068 897.124 155.931 897.934 155.656C898.744 155.382 899.438 154.97 900.014 154.42C900.591 153.871 901.03 153.198 901.333 152.402L909.448 152.938C909.036 154.887 908.191 156.59 906.914 158.045C905.651 159.487 904.017 160.613 902.012 161.423C900.021 162.22 897.721 162.618 895.112 162.618ZM943.077 162.618C939.877 162.618 937.111 161.938 934.776 160.579C932.456 159.206 930.664 157.297 929.401 154.853C928.137 152.395 927.506 149.546 927.506 146.305C927.506 143.037 928.137 140.181 929.401 137.737C930.664 135.279 932.456 133.371 934.776 132.011C937.111 130.638 939.877 129.952 943.077 129.952C946.276 129.952 949.036 130.638 951.357 132.011C953.691 133.371 955.49 135.279 956.753 137.737C958.016 140.181 958.648 143.037 958.648 146.305C958.648 149.546 958.016 152.395 956.753 154.853C955.49 157.297 953.691 159.206 951.357 160.579C949.036 161.938 946.276 162.618 943.077 162.618ZM943.118 155.821C944.573 155.821 945.789 155.409 946.763 154.585C947.738 153.748 948.473 152.608 948.967 151.166C949.475 149.724 949.729 148.084 949.729 146.244C949.729 144.404 949.475 142.763 948.967 141.321C948.473 139.879 947.738 138.74 946.763 137.902C945.789 137.064 944.573 136.646 943.118 136.646C941.649 136.646 940.413 137.064 939.411 137.902C938.422 138.74 937.674 139.879 937.165 141.321C936.671 142.763 936.424 144.404 936.424 146.244C936.424 148.084 936.671 149.724 937.165 151.166C937.674 152.608 938.422 153.748 939.411 154.585C940.413 155.409 941.649 155.821 943.118 155.821ZM981.366 130.364V136.955H961.84V130.364H981.366ZM966.31 162V128.077C966.31 125.784 966.756 123.883 967.648 122.372C968.555 120.862 969.79 119.729 971.356 118.974C972.921 118.219 974.699 117.841 976.69 117.841C978.036 117.841 979.265 117.944 980.377 118.15C981.503 118.356 982.341 118.541 982.89 118.706L981.325 125.297C980.981 125.187 980.556 125.084 980.048 124.988C979.553 124.892 979.045 124.844 978.523 124.844C977.233 124.844 976.333 125.146 975.825 125.75C975.317 126.34 975.063 127.171 975.063 128.242V162H966.31ZM1000.15 162V130.364H1008.92V162H1000.15ZM1004.56 126.286C1003.25 126.286 1002.13 125.853 1001.2 124.988C1000.28 124.109 999.82 123.059 999.82 121.837C999.82 120.628 1000.28 119.592 1001.2 118.727C1002.13 117.848 1003.25 117.408 1004.56 117.408C1005.86 117.408 1006.97 117.848 1007.89 118.727C1008.83 119.592 1009.29 120.628 1009.29 121.837C1009.29 123.059 1008.83 124.109 1007.89 124.988C1006.97 125.853 1005.86 126.286 1004.56 126.286ZM1032.78 130.364V136.955H1013.73V130.364H1032.78ZM1018.05 122.784H1026.83V152.278C1026.83 153.089 1026.95 153.72 1027.2 154.173C1027.45 154.613 1027.79 154.922 1028.23 155.1C1028.68 155.279 1029.2 155.368 1029.79 155.368C1030.21 155.368 1030.62 155.334 1031.03 155.265C1031.44 155.183 1031.76 155.121 1031.98 155.08L1033.36 161.609C1032.92 161.746 1032.3 161.904 1031.5 162.082C1030.71 162.275 1029.74 162.391 1028.6 162.433C1026.48 162.515 1024.63 162.233 1023.04 161.588C1021.46 160.943 1020.23 159.94 1019.35 158.581C1018.47 157.222 1018.04 155.505 1018.05 153.432V122.784ZM1046.03 149.354V148.653C1046.05 146.25 1046.26 144.335 1046.67 142.907C1047.1 141.479 1047.72 140.326 1048.53 139.447C1049.34 138.568 1050.31 137.772 1051.45 137.058C1052.3 136.508 1053.06 135.938 1053.74 135.348C1054.41 134.758 1054.95 134.105 1055.34 133.391C1055.74 132.664 1055.94 131.853 1055.94 130.961C1055.94 130.013 1055.71 129.183 1055.26 128.469C1054.81 127.755 1054.2 127.205 1053.43 126.821C1052.67 126.437 1051.84 126.244 1050.92 126.244C1050.02 126.244 1049.18 126.443 1048.38 126.842C1047.59 127.226 1046.93 127.803 1046.43 128.572C1045.92 129.327 1045.64 130.268 1045.6 131.393H1037.2C1037.27 128.647 1037.93 126.382 1039.18 124.597C1040.42 122.798 1042.08 121.459 1044.14 120.58C1046.2 119.688 1048.47 119.241 1050.96 119.241C1053.69 119.241 1056.11 119.695 1058.21 120.601C1060.31 121.493 1061.96 122.791 1063.15 124.494C1064.34 126.196 1064.94 128.249 1064.94 130.652C1064.94 132.259 1064.67 133.687 1064.14 134.936C1063.62 136.172 1062.88 137.27 1061.93 138.232C1060.99 139.179 1059.87 140.037 1058.58 140.806C1057.49 141.451 1056.6 142.124 1055.9 142.825C1055.21 143.525 1054.7 144.335 1054.35 145.255C1054.03 146.175 1053.85 147.308 1053.84 148.653V149.354H1046.03ZM1050.11 162.536C1048.74 162.536 1047.56 162.055 1046.59 161.094C1045.63 160.119 1045.16 158.952 1045.17 157.592C1045.16 156.247 1045.63 155.093 1046.59 154.132C1047.56 153.171 1048.74 152.69 1050.11 152.69C1051.42 152.69 1052.56 153.171 1053.55 154.132C1054.54 155.093 1055.04 156.247 1055.06 157.592C1055.04 158.499 1054.8 159.329 1054.33 160.085C1053.88 160.826 1053.28 161.423 1052.54 161.876C1051.8 162.316 1050.99 162.536 1050.11 162.536Z" fill="white"/>
</svg>
