<svg width="226" height="226" viewBox="0 0 226 226" fill="none" xmlns="http://www.w3.org/2000/svg">
<path d="M100.01 22.5C105.783 12.5 120.217 12.5 125.99 22.5L197.87 147C203.644 157 196.427 169.5 184.88 169.5H41.1199C29.5729 169.5 22.356 157 28.1295 147L100.01 22.5Z" fill="#FFB700"/>
<path d="M121.112 67.2727L119.727 118.196H106.73L105.31 67.2727H121.112ZM113.229 140.923C110.885 140.923 108.873 140.095 107.192 138.438C105.511 136.757 104.682 134.744 104.706 132.401C104.682 130.08 105.511 128.092 107.192 126.435C108.873 124.777 110.885 123.949 113.229 123.949C115.478 123.949 117.455 124.777 119.159 126.435C120.864 128.092 121.728 130.08 121.751 132.401C121.728 133.963 121.313 135.395 120.509 136.697C119.727 137.976 118.697 139.006 117.419 139.787C116.141 140.545 114.744 140.923 113.229 140.923Z" fill="white"/>
</svg>
